0
SECTION
2
HEADER
9
$ACADVER
1
AC1027
9
$INSUNITS
70
4
0
ENDSEC
0
SECTION
2
TABLES
0
TABLE
2
LAYER
70
5
0
LAYER
2
0
70
0
62
7
6
CONTINUOUS
0
LAYER
2
OUTLINE
70
0
62
7
6
CONTINUOUS
0
LAYER
2
DIM
70
0
62
5
6
CONTINUOUS
0
LAYER
2
TEXT
70
0
62
7
6
CONTINUOUS
0
LAYER
2
CENTER
70
0
62
3
6
CONTINUOUS
0
LAYER
2
TITLE
70
0
62
2
6
CONTINUOUS
0
ENDTAB
0
ENDSEC
0
SECTION
2
ENTITIES
0
LINE
8
OUTLINE
10
0
20
0
30
0
11
420
21
0
31
0
0
LINE
8
OUTLINE
10
420
20
0
30
0
11
420
21
297
31
0
0
LINE
8
OUTLINE
10
420
20
297
30
0
11
0
21
297
31
0
0
LINE
8
OUTLINE
10
0
20
297
30
0
11
0
21
0
31
0
0
LINE
8
OUTLINE
10
10
20
10
30
0
11
410
21
10
31
0
0
LINE
8
OUTLINE
10
410
20
10
30
0
11
410
21
287
31
0
0
LINE
8
OUTLINE
10
410
20
287
30
0
11
10
21
287
31
0
0
LINE
8
OUTLINE
10
10
20
287
30
0
11
10
21
10
31
0
0
MTEXT
100
AcDbEntity
8
TITLE
100
AcDbMText
10
15
20
278
30
0
40
6
41
300
71
1
1
HDA-1 \U+2014 \U+0413\U+041B\U+0410\U+0412\U+041D\U+042B\U+0419 \U+0423\U+0417\U+0415\U+041B P2 \U+00B7 \U+0421\U+0411\U+041E\U+0420\U+041A\U+0410
7
Standard
0
MTEXT
100
AcDbEntity
8
TEXT
100
AcDbMText
10
15
20
270
30
0
40
3
41
300
71
1
1
GA-02 \U+00B7 \U+0411\U+044B\U+0442\U+043E\U+0432\U+0430\U+044F \U+043F\U+0430\U+0440\U+0442\U+0438\U+044F 350\U+2013500 \U+0433 \U+00B7 \U+0420\U+0430\U+0437\U+043C\U+0435\U+0440\U+044B \U+0432 \U+043C\U+043C \U+00B7 \U+041C\U+0430\U+0441\U+0448\U+0442\U+0430\U+0431 1:2 \U+00B7 P2 / \U+043D\U+0435 \U+0441\U+0435\U+0440\U+0438\U+0439\U+043D\U+0430\U+044F \U+041A\U+0414
7
Standard
0
LINE
8
OUTLINE
10
86.25
20
76.0
30
0
11
193.75
21
76.0
31
0
0
LINE
8
OUTLINE
10
193.75
20
76.0
30
0
11
193.75
21
147.0
31
0
0
LINE
8
OUTLINE
10
193.75
20
147.0
30
0
11
86.25
21
147.0
31
0
0
LINE
8
OUTLINE
10
86.25
20
147.0
30
0
11
86.25
21
76.0
31
0
0
LINE
8
OUTLINE
10
87.5
20
77.5
30
0
11
192.5
21
77.5
31
0
0
LINE
8
OUTLINE
10
192.5
20
77.5
30
0
11
192.5
21
142.0
31
0
0
LINE
8
OUTLINE
10
192.5
20
142.0
30
0
11
87.5
21
142.0
31
0
0
LINE
8
OUTLINE
10
87.5
20
142.0
30
0
11
87.5
21
77.5
31
0
0
LINE
8
OUTLINE
10
81.0
20
147.0
30
0
11
199.0
21
147.0
31
0
0
LINE
8
OUTLINE
10
199.0
20
147.0
30
0
11
199.0
21
156.0
31
0
0
LINE
8
OUTLINE
10
199.0
20
156.0
30
0
11
81.0
21
156.0
31
0
0
LINE
8
OUTLINE
10
81.0
20
156.0
30
0
11
81.0
21
147.0
31
0
0
LINE
8
OUTLINE
10
75.0
20
140.0
30
0
11
205.0
21
140.0
31
0
0
LINE
8
OUTLINE
10
205.0
20
140.0
30
0
11
205.0
21
147.0
31
0
0
LINE
8
OUTLINE
10
205.0
20
147.0
30
0
11
75.0
21
147.0
31
0
0
LINE
8
OUTLINE
10
75.0
20
147.0
30
0
11
75.0
21
140.0
31
0
0
LINE
8
OUTLINE
10
83.75
20
147.75
30
0
11
196.25
21
147.75
31
0
0
LINE
8
OUTLINE
10
101.25
20
77.25
30
0
11
178.75
21
77.25
31
0
0
LINE
8
OUTLINE
10
178.75
20
77.25
30
0
11
178.75
21
126.0
31
0
0
LINE
8
OUTLINE
10
178.75
20
126.0
30
0
11
101.25
21
126.0
31
0
0
LINE
8
OUTLINE
10
101.25
20
126.0
30
0
11
101.25
21
77.25
31
0
0
LINE
8
OUTLINE
10
102.5
20
77.25
30
0
11
177.5
21
77.25
31
0
0
LINE
8
OUTLINE
10
177.5
20
77.25
30
0
11
177.5
21
124.75
31
0
0
LINE
8
OUTLINE
10
177.5
20
124.75
30
0
11
102.5
21
124.75
31
0
0
LINE
8
OUTLINE
10
102.5
20
124.75
30
0
11
102.5
21
77.25
31
0
0
LINE
8
OUTLINE
10
135.0
20
81.25
30
0
11
145.0
21
81.25
31
0
0
LINE
8
OUTLINE
10
145.0
20
81.25
30
0
11
145.0
21
183.75
31
0
0
LINE
8
OUTLINE
10
145.0
20
183.75
30
0
11
135.0
21
183.75
31
0
0
LINE
8
OUTLINE
10
135.0
20
183.75
30
0
11
135.0
21
81.25
31
0
0
CIRCLE
8
OUTLINE
10
140.0
20
102.0
30
0
40
27.0
0
ARC
8
OUTLINE
10
140.0
20
102.0
30
0
40
27.0
50
210
51
330
0
ARC
8
OUTLINE
10
140.0
20
102.0
30
0
40
27.0
50
30
51
150
0
LINE
8
OUTLINE
10
108.0
20
86.0
30
0
11
122.5
21
115.0
31
0
0
LINE
8
OUTLINE
10
172.0
20
86.0
30
0
11
157.5
21
115.0
31
0
0
LINE
8
CENTER
10
105.0
20
81.25
30
0
11
175.0
21
81.25
31
0
0
CIRCLE
8
OUTLINE
10
77.25
20
121.0
30
0
40
5.0
0
LINE
8
OUTLINE
10
74.75
20
102.0
30
0
11
79.75
21
102.0
31
0
0
LINE
8
OUTLINE
10
79.75
20
102.0
30
0
11
79.75
21
117.0
31
0
0
LINE
8
OUTLINE
10
79.75
20
117.0
30
0
11
74.75
21
117.0
31
0
0
LINE
8
OUTLINE
10
74.75
20
117.0
30
0
11
74.75
21
102.0
31
0
0
LINE
8
OUTLINE
10
66.25
20
104.0
30
0
11
74.75
21
104.0
31
0
0
LINE
8
OUTLINE
10
74.75
20
104.0
30
0
11
74.75
21
108.0
31
0
0
LINE
8
OUTLINE
10
74.75
20
108.0
30
0
11
66.25
21
108.0
31
0
0
LINE
8
OUTLINE
10
66.25
20
108.0
30
0
11
66.25
21
104.0
31
0
0
LINE
8
DIM
10
86.25
20
76.0
30
0
11
86.25
21
60.0
31
0
0
LINE
8
DIM
10
193.75
20
76.0
30
0
11
193.75
21
60.0
31
0
0
LINE
8
DIM
10
86.25
20
60.0
30
0
11
193.75
21
60.0
31
0
0
MTEXT
100
AcDbEntity
8
DIM
100
AcDbMText
10
90
20
55
30
0
40
3
41
80
71
1
1
\U+041D\U+0410\U+0420\U+0423\U+0416. \U+00D8215
7
Standard
0
LINE
8
DIM
10
102.5
20
77.25
30
0
11
102.5
21
67.0
31
0
0
LINE
8
DIM
10
177.5
20
77.25
30
0
11
177.5
21
67.0
31
0
0
LINE
8
DIM
10
102.5
20
67.0
30
0
11
177.5
21
67.0
31
0
0
MTEXT
100
AcDbEntity
8
DIM
100
AcDbMText
10
105
20
62
30
0
40
3
41
70
71
1
1
\U+0424\U+041E\U+0420\U+041C\U+0410 \U+00D8150
7
Standard
0
LINE
8
DIM
10
193.75
20
76.0
30
0
11
212.5
21
76.0
31
0
0
LINE
8
DIM
10
193.75
20
147.0
30
0
11
212.5
21
147.0
31
0
0
LINE
8
DIM
10
212.5
20
76.0
30
0
11
212.5
21
147.0
31
0
0
MTEXT
100
AcDbEntity
8
DIM
100
AcDbMText
10
215
20
112
30
0
40
3
41
30
71
1
1
142
7
Standard
0
LINE
8
DIM
10
178.75
20
77.25
30
0
11
189.0
21
77.25
31
0
0
LINE
8
DIM
10
178.75
20
124.75
30
0
11
189.0
21
124.75
31
0
0
LINE
8
DIM
10
189.0
20
77.25
30
0
11
189.0
21
124.75
31
0
0
MTEXT
100
AcDbEntity
8
DIM
100
AcDbMText
10
188
20
104
30
0
40
3
41
30
71
1
1
95
7
Standard
0
MTEXT
100
AcDbEntity
8
TEXT
100
AcDbMText
10
35
20
56
30
0
40
3
41
120
71
1
1
\U+0420\U+0410\U+0417\U+0420\U+0415\U+0417 \U+0410\U+2013\U+0410 \U+00B7 \U+0424\U+041E\U+0420\U+041C\U+0410 \U+0421\U+041E \U+0421\U+041F\U+041B\U+041E\U+0428\U+041D\U+042B\U+041C \U+0414\U+041D\U+041E\U+041C
7
Standard
0
MTEXT
100
AcDbEntity
8
DIM
100
AcDbMText
10
35
20
49
30
0
40
3
41
120
71
1
1
\U+0417\U+0430\U+0437\U+043E\U+0440 \U+0434\U+043E \U+0434\U+043D\U+0430 8 \U+00B7 \U+043D\U+0438\U+0436\U+043D\U+0435\U+0439 \U+043E\U+043F\U+043E\U+0440\U+044B \U+0432\U+0430\U+043B\U+0430 \U+043D\U+0435\U+0442
7
Standard
0
MTEXT
100
AcDbEntity
8
DIM
100
AcDbMText
10
35
20
44
30
0
40
3
41
120
71
1
1
\U+0418\U+043D\U+0441\U+0442\U+0440\U+0443\U+043C\U+0435\U+043D\U+0442 \U+00D8134,02 \U+00B7 \U+0440\U+0430\U+0434\U+0438\U+0430\U+043B\U+044C\U+043D\U+044B\U+0439 \U+0437\U+0430\U+0437\U+043E\U+0440 7,99
7
Standard
0
CIRCLE
8
OUTLINE
10
315
20
135
30
0
40
53.75
0
CIRCLE
8
OUTLINE
10
315
20
135
30
0
40
37.5
0
CIRCLE
8
OUTLINE
10
315
20
135
30
0
40
33.505
0
CIRCLE
8
OUTLINE
10
315
20
135
30
0
40
5
0
ARC
8
OUTLINE
10
315
20
135
30
0
40
31
50
0
51
300
0
ARC
8
OUTLINE
10
315
20
135
30
0
40
31
50
180
51
480
0
MTEXT
100
AcDbEntity
8
TEXT
100
AcDbMText
10
258
20
198
30
0
40
4
41
125
71
1
1
\U+0412\U+0418\U+0414 \U+0421\U+0412\U+0415\U+0420\U+0425\U+0423 \U+00B7 \U+0424\U+041E\U+0420\U+041C\U+0410 \U+00D8150 \U+00B7 \U+0418\U+041D\U+0421\U+0422\U+0420\U+0423\U+041C\U+0415\U+041D\U+0422 A \U+00D8134,02
7
Standard
0
LINE
8
OUTLINE
10
235
20
210
30
0
11
400
21
210
31
0
0
LINE
8
OUTLINE
10
400
20
210
30
0
11
400
21
258
31
0
0
LINE
8
OUTLINE
10
400
20
258
30
0
11
235
21
258
31
0
0
LINE
8
OUTLINE
10
235
20
258
30
0
11
235
21
210
31
0
0
MTEXT
100
AcDbEntity
8
TITLE
100
AcDbMText
10
240
20
252
30
0
40
4
41
150
71
1
1
\U+041F\U+0420\U+041E\U+0412\U+0415\U+0420\U+0415\U+041D\U+041D\U+042B\U+0415 \U+0414\U+0410\U+041D\U+041D\U+042B\U+0415 P2
7
Standard
0
MTEXT
100
AcDbEntity
8
TEXT
100
AcDbMText
10
240
20
244
30
0
40
3
41
150
71
1
1
\U+0412\U+0430\U+043B \U+00D820 \U+00B7 \U+043F\U+0438\U+043A 24 \U+041D\U+00B7\U+043C \U+00B7 \U+043F\U+0440\U+043E\U+0433\U+0438\U+0431 0,095\P\U+0424\U+043E\U+0440\U+043C\U+0430 1,679 \U+043B \U+00B7 \U+043A\U+0430\U+043C\U+0435\U+0440\U+0430 \U+0432\U+043D\U+0443\U+0442\U+0440. \U+00D8210\P\U+0421\U+0442\U+0435\U+043D\U+0434: +20 / +40 / +60 \U+043A\U+041F\U+0430\P8 \U+043F\U+0440\U+043E\U+0443\U+0448\U+0438\U+043D \U+0437\U+0430\U+043C\U+043A\U+0430 \U+00B7 \U+043D\U+0435\U+0437\U+0430\U+0432\U+0438\U+0441\U+0438\U+043C\U+044B\U+0439 \U+043F\U+0440\U+0435\U+0434\U+043E\U+0445\U+0440\U+0430\U+043D\U+0438\U+0442\U+0435\U+043B\U+044C\U+043D\U+044B\U+0439 \U+043A\U+043B\U+0430\U+043F\U+0430\U+043D\P\U+041E\U+0440\U+0433\U+0430\U+043D A: \U+0434\U+0432\U+0435 \U+043E\U+0442\U+043A\U+0440\U+044B\U+0442\U+044B\U+0435 \U+043B\U+0435\U+043D\U+0442\U+043E\U+0447\U+043D\U+044B\U+0435 \U+0441\U+043F\U+0438\U+0440\U+0430\U+043B\U+0438
7
Standard
0
LINE
8
OUTLINE
10
250
20
12
30
0
11
410
21
12
31
0
0
LINE
8
OUTLINE
10
410
20
12
30
0
11
410
21
40
31
0
0
LINE
8
OUTLINE
10
410
20
40
30
0
11
250
21
40
31
0
0
LINE
8
OUTLINE
10
250
20
40
30
0
11
250
21
12
31
0
0
LINE
8
OUTLINE
10
250
20
23
30
0
11
410
21
23
31
0
0
LINE
8
OUTLINE
10
330
20
12
30
0
11
330
21
40
31
0
0
MTEXT
100
AcDbEntity
8
TITLE
100
AcDbMText
10
254
20
34
30
0
40
4
41
70
71
1
1
HDA-1 / GA-02
7
Standard
0
MTEXT
100
AcDbEntity
8
TEXT
100
AcDbMText
10
254
20
19
30
0
40
3
41
70
71
1
1
\U+0421\U+0411\U+041E\U+0420\U+041A\U+0410 P2 \U+00B7 1:2
7
Standard
0
MTEXT
100
AcDbEntity
8
TEXT
100
AcDbMText
10
334
20
34
30
0
40
3
41
70
71
1
1
\U+041F\U+0420\U+0415\U+0414\U+041A\U+041E\U+041D\U+0421\U+0422\U+0420\U+0423\U+041A\U+0422\U+041E\U+0420\U+0421\U+041A\U+0418\U+0419\P\U+041D\U+0415 \U+0414\U+041B\U+042F \U+041F\U+0420\U+041E\U+0418\U+0417\U+0412\U+041E\U+0414\U+0421\U+0422\U+0412\U+0410
7
Standard
0
ENDSEC
0
EOF
