0
SECTION
2
HEADER
9
$ACADVER
1
AC1027
9
$INSUNITS
70
4
0
ENDSEC
0
SECTION
2
TABLES
0
TABLE
2
LAYER
70
5
0
LAYER
2
0
70
0
62
7
6
CONTINUOUS
0
LAYER
2
OUTLINE
70
0
62
7
6
CONTINUOUS
0
LAYER
2
DIM
70
0
62
5
6
CONTINUOUS
0
LAYER
2
TEXT
70
0
62
7
6
CONTINUOUS
0
LAYER
2
CENTER
70
0
62
3
6
CONTINUOUS
0
LAYER
2
TITLE
70
0
62
2
6
CONTINUOUS
0
ENDTAB
0
ENDSEC
0
SECTION
2
ENTITIES
0
LINE
8
OUTLINE
10
0
20
0
30
0
11
420
21
0
31
0
0
LINE
8
OUTLINE
10
420
20
0
30
0
11
420
21
297
31
0
0
LINE
8
OUTLINE
10
420
20
297
30
0
11
0
21
297
31
0
0
LINE
8
OUTLINE
10
0
20
297
30
0
11
0
21
0
31
0
0
LINE
8
OUTLINE
10
10
20
10
30
0
11
410
21
10
31
0
0
LINE
8
OUTLINE
10
410
20
10
30
0
11
410
21
287
31
0
0
LINE
8
OUTLINE
10
410
20
287
30
0
11
10
21
287
31
0
0
LINE
8
OUTLINE
10
10
20
287
30
0
11
10
21
10
31
0
0
MTEXT
100
AcDbEntity
8
TITLE
100
AcDbMText
10
15
20
278
30
0
40
6
41
300
71
1
1
HDA-1 \U+2014 \U+0413\U+041B\U+0410\U+0412\U+041D\U+042B\U+0419 \U+0423\U+0417\U+0415\U+041B P2 \U+00B7 \U+0421\U+0411\U+041E\U+0420\U+041A\U+0410
7
Standard
0
MTEXT
100
AcDbEntity
8
TEXT
100
AcDbMText
10
15
20
270
30
0
40
3
41
300
71
1
1
GA-02 \U+00B7 \U+0411\U+044B\U+0442\U+043E\U+0432\U+0430\U+044F \U+043F\U+0430\U+0440\U+0442\U+0438\U+044F 350\U+2013500 \U+0433 \U+00B7 \U+0412\U+0441\U+0435 \U+0440\U+0430\U+0437\U+043C\U+0435\U+0440\U+044B \U+0432 \U+043C\U+043C \U+00B7 \U+0421\U+0442\U+0430\U+0442\U+0443\U+0441: P2 / \U+043D\U+0435 \U+0441\U+0435\U+0440\U+0438\U+0439\U+043D\U+0430\U+044F \U+041A\U+0414
7
Standard
0
LINE
8
OUTLINE
10
17.5
20
48
30
0
11
232.5
21
48
31
0
0
LINE
8
OUTLINE
10
232.5
20
48
30
0
11
232.5
21
190
31
0
0
LINE
8
OUTLINE
10
232.5
20
190
30
0
11
17.5
21
190
31
0
0
LINE
8
OUTLINE
10
17.5
20
190
30
0
11
17.5
21
48
31
0
0
LINE
8
OUTLINE
10
20.0
20
51
30
0
11
230.0
21
51
31
0
0
LINE
8
OUTLINE
10
230.0
20
51
30
0
11
230.0
21
180
31
0
0
LINE
8
OUTLINE
10
230.0
20
180
30
0
11
20.0
21
180
31
0
0
LINE
8
OUTLINE
10
20.0
20
180
30
0
11
20.0
21
51
31
0
0
LINE
8
OUTLINE
10
7
20
190
30
0
11
243
21
190
31
0
0
LINE
8
OUTLINE
10
243
20
190
30
0
11
243
21
208
31
0
0
LINE
8
OUTLINE
10
243
20
208
30
0
11
7
21
208
31
0
0
LINE
8
OUTLINE
10
7
20
208
30
0
11
7
21
190
31
0
0
LINE
8
OUTLINE
10
-5
20
176
30
0
11
255
21
176
31
0
0
LINE
8
OUTLINE
10
255
20
176
30
0
11
255
21
190
31
0
0
LINE
8
OUTLINE
10
255
20
190
30
0
11
-5
21
190
31
0
0
LINE
8
OUTLINE
10
-5
20
190
30
0
11
-5
21
176
31
0
0
LINE
8
OUTLINE
10
12.5
20
191.5
30
0
11
237.5
21
191.5
31
0
0
LINE
8
OUTLINE
10
47.5
20
50.5
30
0
11
202.5
21
50.5
31
0
0
LINE
8
OUTLINE
10
202.5
20
50.5
30
0
11
202.5
21
148.0
31
0
0
LINE
8
OUTLINE
10
202.5
20
148.0
30
0
11
47.5
21
148.0
31
0
0
LINE
8
OUTLINE
10
47.5
20
148.0
30
0
11
47.5
21
50.5
31
0
0
LINE
8
OUTLINE
10
50
20
50.5
30
0
11
200
21
50.5
31
0
0
LINE
8
OUTLINE
10
200
20
50.5
30
0
11
200
21
145.5
31
0
0
LINE
8
OUTLINE
10
200
20
145.5
30
0
11
50
21
145.5
31
0
0
LINE
8
OUTLINE
10
50
20
145.5
30
0
11
50
21
50.5
31
0
0
LINE
8
OUTLINE
10
115
20
58.5
30
0
11
135
21
58.5
31
0
0
LINE
8
OUTLINE
10
135
20
58.5
30
0
11
135
21
263.5
31
0
0
LINE
8
OUTLINE
10
135
20
263.5
30
0
11
115
21
263.5
31
0
0
LINE
8
OUTLINE
10
115
20
263.5
30
0
11
115
21
58.5
31
0
0
CIRCLE
8
OUTLINE
10
125
20
100
30
0
40
54
0
ARC
8
OUTLINE
10
125
20
100
30
0
40
54
50
210
51
330
0
ARC
8
OUTLINE
10
125
20
100
30
0
40
54
50
30
51
150
0
LINE
8
OUTLINE
10
61
20
68
30
0
11
90
21
126
31
0
0
LINE
8
OUTLINE
10
189
20
68
30
0
11
160
21
126
31
0
0
LINE
8
CENTER
10
55
20
58.5
30
0
11
195
21
58.5
31
0
0
CIRCLE
8
OUTLINE
10
-0.5
20
138
30
0
40
10
0
LINE
8
OUTLINE
10
-5.5
20
100
30
0
11
4.5
21
100
31
0
0
LINE
8
OUTLINE
10
4.5
20
100
30
0
11
4.5
21
130
31
0
0
LINE
8
OUTLINE
10
4.5
20
130
30
0
11
-5.5
21
130
31
0
0
LINE
8
OUTLINE
10
-5.5
20
130
30
0
11
-5.5
21
100
31
0
0
LINE
8
OUTLINE
10
-22.5
20
104
30
0
11
-5.5
21
104
31
0
0
LINE
8
OUTLINE
10
-5.5
20
104
30
0
11
-5.5
21
112
31
0
0
LINE
8
OUTLINE
10
-5.5
20
112
30
0
11
-22.5
21
112
31
0
0
LINE
8
OUTLINE
10
-22.5
20
112
30
0
11
-22.5
21
104
31
0
0
CIRCLE
8
OUTLINE
10
325
20
145
30
0
40
107.5
0
CIRCLE
8
OUTLINE
10
325
20
145
30
0
40
75
0
CIRCLE
8
OUTLINE
10
325
20
145
30
0
40
67.01
0
CIRCLE
8
OUTLINE
10
325
20
145
30
0
40
10
0
ARC
8
OUTLINE
10
325
20
145
30
0
40
62
50
0
51
300
0
ARC
8
OUTLINE
10
325
20
145
30
0
40
62
50
180
51
480
0
MTEXT
100
AcDbEntity
8
TEXT
100
AcDbMText
10
276
20
258
30
0
40
4
41
95
71
1
1
\U+0412\U+0418\U+0414 \U+0421\U+0412\U+0415\U+0420\U+0425\U+0423 \U+00B7 \U+0424\U+041E\U+0420\U+041C\U+0410 \U+00D8150 \U+00B7 \U+0418\U+041D\U+0421\U+0422\U+0420\U+0423\U+041C\U+0415\U+041D\U+0422 A \U+00D8134
7
Standard
0
LINE
8
DIM
10
17.5
20
48
30
0
11
17.5
21
30
31
0
0
LINE
8
DIM
10
232.5
20
48
30
0
11
232.5
21
30
31
0
0
LINE
8
DIM
10
17.5
20
30
30
0
11
232.5
21
30
31
0
0
LINE
8
DIM
10
17.5
20
30
30
0
11
19.5
21
32.0
31
0
0
LINE
8
DIM
10
17.5
20
30
30
0
11
19.5
21
28.0
31
0
0
LINE
8
DIM
10
232.5
20
30
30
0
11
230.5
21
32.0
31
0
0
LINE
8
DIM
10
232.5
20
30
30
0
11
230.5
21
28.0
31
0
0
MTEXT
100
AcDbEntity
8
DIM
100
AcDbMText
10
103.0
20
26.8
30
0
40
3.0
41
44
71
1
1
\U+041D\U+0410\U+0420\U+0423\U+0416. \U+00D8215
7
Standard
0
LINE
8
DIM
10
50
20
50.5
30
0
11
50
21
22
31
0
0
LINE
8
DIM
10
200
20
50.5
30
0
11
200
21
22
31
0
0
LINE
8
DIM
10
50
20
22
30
0
11
200
21
22
31
0
0
LINE
8
DIM
10
50
20
22
30
0
11
52.0
21
24.0
31
0
0
LINE
8
DIM
10
50
20
22
30
0
11
52.0
21
20.0
31
0
0
LINE
8
DIM
10
200
20
22
30
0
11
198.0
21
24.0
31
0
0
LINE
8
DIM
10
200
20
22
30
0
11
198.0
21
20.0
31
0
0
MTEXT
100
AcDbEntity
8
DIM
100
AcDbMText
10
103.0
20
18.8
30
0
40
3.0
41
44
71
1
1
\U+0412\U+041D\U+0423\U+0422\U+0420. \U+0424\U+041E\U+0420\U+041C\U+0410 \U+00D8150
7
Standard
0
LINE
8
DIM
10
232.5
20
48
30
0
11
252.5
21
48
31
0
0
LINE
8
DIM
10
232.5
20
190
30
0
11
252.5
21
190
31
0
0
LINE
8
DIM
10
252.5
20
48
30
0
11
252.5
21
190
31
0
0
LINE
8
DIM
10
252.5
20
48
30
0
11
254.5
21
50.0
31
0
0
LINE
8
DIM
10
252.5
20
48
30
0
11
250.5
21
50.0
31
0
0
LINE
8
DIM
10
252.5
20
190
30
0
11
254.5
21
188.0
31
0
0
LINE
8
DIM
10
252.5
20
190
30
0
11
250.5
21
188.0
31
0
0
MTEXT
100
AcDbEntity
8
DIM
100
AcDbMText
10
255.5
20
123.0
30
0
40
3.0
41
40
71
1
1
142
7
Standard
0
LINE
8
DIM
10
202.5
20
50.5
30
0
11
170
21
50.5
31
0
0
LINE
8
DIM
10
202.5
20
145.5
30
0
11
170
21
145.5
31
0
0
LINE
8
DIM
10
170
20
50.5
30
0
11
170
21
145.5
31
0
0
LINE
8
DIM
10
170
20
50.5
30
0
11
172.0
21
52.5
31
0
0
LINE
8
DIM
10
170
20
50.5
30
0
11
168.0
21
52.5
31
0
0
LINE
8
DIM
10
170
20
145.5
30
0
11
172.0
21
143.5
31
0
0
LINE
8
DIM
10
170
20
145.5
30
0
11
168.0
21
143.5
31
0
0
MTEXT
100
AcDbEntity
8
DIM
100
AcDbMText
10
173
20
102.0
30
0
40
3.0
41
40
71
1
1
95
7
Standard
0
MTEXT
100
AcDbEntity
8
DIM
100
AcDbMText
10
22
20
42
30
0
40
3
41
130
71
1
1
\U+0417\U+0410\U+0417\U+041E\U+0420 \U+0414\U+041E \U+0426\U+0415\U+041B\U+042C\U+041D\U+041E\U+0413\U+041E \U+0414\U+041D\U+0410 8 \U+00B7 \U+041D\U+0418\U+0416\U+041D\U+0415\U+0419 \U+041E\U+041F\U+041E\U+0420\U+042B \U+0412\U+0410\U+041B\U+0410 \U+041D\U+0415\U+0422
7
Standard
0
MTEXT
100
AcDbEntity
8
DIM
100
AcDbMText
10
22
20
37
30
0
40
3
41
130
71
1
1
\U+0418\U+041D\U+0421\U+0422\U+0420\U+0423\U+041C\U+0415\U+041D\U+0422 \U+00D8134,02 \U+00B7 \U+0420\U+0410\U+0414\U+0418\U+0410\U+041B\U+042C\U+041D\U+042B\U+0419 \U+0417\U+0410\U+0417\U+041E\U+0420 7,99
7
Standard
0
LINE
8
OUTLINE
10
245
20
198
30
0
11
400
21
198
31
0
0
LINE
8
OUTLINE
10
400
20
198
30
0
11
400
21
260
31
0
0
LINE
8
OUTLINE
10
400
20
260
30
0
11
245
21
260
31
0
0
LINE
8
OUTLINE
10
245
20
260
30
0
11
245
21
198
31
0
0
MTEXT
100
AcDbEntity
8
TITLE
100
AcDbMText
10
250
20
253
30
0
40
4
41
140
71
1
1
\U+041F\U+0420\U+041E\U+0412\U+0415\U+0420\U+0415\U+041D\U+041D\U+042B\U+0415 \U+0414\U+0410\U+041D\U+041D\U+042B\U+0415 P2
7
Standard
0
MTEXT
100
AcDbEntity
8
TEXT
100
AcDbMText
10
250
20
244
30
0
40
3
41
145
71
1
1
\U+0412\U+0430\U+043B \U+00D820 \U+00B7 \U+043F\U+0438\U+043A 24 \U+041D\U+00B7\U+043C \U+00B7 \U+043F\U+0440\U+043E\U+0433\U+0438\U+0431 0,095
\U+0424\U+043E\U+0440\U+043C\U+0430: 1,679 \U+043B \U+00B7 \U+043A\U+0430\U+043C\U+0435\U+0440\U+0430: \U+0432\U+043D\U+0443\U+0442\U+0440. \U+00D8210
\U+0421\U+0442\U+0435\U+043D\U+0434\U+043E\U+0432\U+044B\U+0435 \U+0434\U+0430\U+0432\U+043B\U+0435\U+043D\U+0438\U+044F: +20 / +40 / +60 \U+043A\U+041F\U+0430
8 \U+043F\U+0440\U+043E\U+0443\U+0448\U+0438\U+043D \U+0437\U+0430\U+043C\U+043A\U+0430 \U+00B7 \U+043D\U+0435\U+0437\U+0430\U+0432\U+0438\U+0441\U+0438\U+043C\U+044B\U+0439 \U+043F\U+0440\U+0435\U+0434\U+043E\U+0445\U+0440\U+0430\U+043D\U+0438\U+0442\U+0435\U+043B\U+044C\U+043D\U+044B\U+0439 \U+043A\U+043B\U+0430\U+043F\U+0430\U+043D
\U+0420\U+0430\U+0431\U+043E\U+0447\U+0438\U+0439 \U+043E\U+0440\U+0433\U+0430\U+043D A: \U+0434\U+0432\U+0435 \U+043E\U+0442\U+043A\U+0440\U+044B\U+0442\U+044B\U+0435 \U+043B\U+0435\U+043D\U+0442\U+043E\U+0447\U+043D\U+044B\U+0435 \U+0441\U+043F\U+0438\U+0440\U+0430\U+043B\U+0438
7
Standard
0
LINE
8
OUTLINE
10
250
20
12
30
0
11
410
21
12
31
0
0
LINE
8
OUTLINE
10
410
20
12
30
0
11
410
21
40
31
0
0
LINE
8
OUTLINE
10
410
20
40
30
0
11
250
21
40
31
0
0
LINE
8
OUTLINE
10
250
20
40
30
0
11
250
21
12
31
0
0
LINE
8
OUTLINE
10
250
20
23
30
0
11
410
21
23
31
0
0
LINE
8
OUTLINE
10
330
20
12
30
0
11
330
21
40
31
0
0
MTEXT
100
AcDbEntity
8
TITLE
100
AcDbMText
10
254
20
34
30
0
40
4
41
70
71
1
1
HDA-1 / GA-02
7
Standard
0
MTEXT
100
AcDbEntity
8
TEXT
100
AcDbMText
10
254
20
19
30
0
40
3
41
70
71
1
1
\U+0421\U+0411\U+041E\U+0420\U+041A\U+0410 P2 \U+00B7 1:1
7
Standard
0
MTEXT
100
AcDbEntity
8
TEXT
100
AcDbMText
10
334
20
34
30
0
40
3
41
70
71
1
1
\U+041F\U+0420\U+0415\U+0414\U+041A\U+041E\U+041D\U+0421\U+0422\U+0420\U+0423\U+041A\U+0422\U+041E\U+0420\U+0421\U+041A\U+0418\U+0419
\U+041D\U+0415 \U+0414\U+041B\U+042F \U+041F\U+0420\U+041E\U+0418\U+0417\U+0412\U+041E\U+0414\U+0421\U+0422\U+0412\U+0410
7
Standard
0
ENDSEC
0
EOF
