0
SECTION
2
HEADER
9
$ACADVER
1
AC1027
9
$DWGCODEPAGE
3
ANSI_1252
9
$INSUNITS
70
4
0
ENDSEC
0
SECTION
2
TABLES
0
TABLE
2
LAYER
70
6
0
LAYER
2
0
70
0
62
7
6
CONTINUOUS
0
LAYER
2
OUTLINE
70
0
62
7
6
CONTINUOUS
0
LAYER
2
CENTER
70
0
62
3
6
CONTINUOUS
0
LAYER
2
DIM
70
0
62
5
6
CONTINUOUS
0
LAYER
2
HATCH
70
0
62
8
6
CONTINUOUS
0
LAYER
2
TEXT
70
0
62
7
6
CONTINUOUS
0
LAYER
2
TITLE
70
0
62
2
6
CONTINUOUS
0
ENDTAB
0
TABLE
2
STYLE
70
1
0
STYLE
2
cyrillic_ii
70
0
40
0
41
1
50
0
71
0
42
2.5
3
cyrillic_ii.lff
4

0
ENDTAB
0
ENDSEC
0
SECTION
2
ENTITIES
0
LINE
8
OUTLINE
10
0
20
0
30
0
11
420
21
0
31
0
0
LINE
8
OUTLINE
10
420
20
0
30
0
11
420
21
297
31
0
0
LINE
8
OUTLINE
10
420
20
297
30
0
11
0
21
297
31
0
0
LINE
8
OUTLINE
10
0
20
297
30
0
11
0
21
0
31
0
0
LINE
8
OUTLINE
10
10
20
10
30
0
11
410
21
10
31
0
0
LINE
8
OUTLINE
10
410
20
10
30
0
11
410
21
287
31
0
0
LINE
8
OUTLINE
10
410
20
287
30
0
11
10
21
287
31
0
0
LINE
8
OUTLINE
10
10
20
287
30
0
11
10
21
10
31
0
0
MTEXT
100
AcDbEntity
8
TITLE
100
AcDbMText
10
15
20
279
30
0
40
5.5
41
245
71
1
1
HDA-1 - \U+0423\U+0417\U+0415\U+041B \U+0421\U+041C\U+0415\U+0428\U+0418\U+0412\U+0410\U+041D\U+0418\U+042F \U+0418 \U+0412\U+0421\U+041F\U+0415\U+041D\U+0418\U+0412\U+0410\U+041D\U+0418\U+042F
7
cyrillic_ii
0
MTEXT
100
AcDbEntity
8
TEXT
100
AcDbMText
10
15
20
271
30
0
40
2.8
41
220
71
1
1
GA-03 - \U+0421\U+0411\U+041E\U+0420\U+041E\U+0427\U+041D\U+042B\U+0419 \U+0412\U+0418\U+0414 - \U+041C\U+0410\U+0421\U+0428\U+0422\U+0410\U+0411 1:2 - \U+0420\U+0410\U+0417\U+041C\U+0415\U+0420\U+042B \U+0412 \U+041C\U+041C
7
cyrillic_ii
0
MTEXT
100
AcDbEntity
8
TEXT
100
AcDbMText
10
15
20
265
30
0
40
2.4
41
220
71
1
1
\U+041F\U+0440\U+0435\U+0434\U+043A\U+043E\U+043D\U+0441\U+0442\U+0440\U+0443\U+043A\U+0442\U+043E\U+0440\U+0441\U+043A\U+0430\U+044F \U+043F\U+0440\U+043E\U+0440\U+0430\U+0431\U+043E\U+0442\U+043A\U+0430: \U+0434\U+043B\U+044F \U+043F\U+0440\U+043E\U+0432\U+0435\U+0440\U+043A\U+0438 \U+043A\U+043E\U+043C\U+043F\U+043E\U+043D\U+043E\U+0432\U+043A\U+0438, \U+043D\U+0435 \U+0434\U+043B\U+044F \U+0438\U+0437\U+0433\U+043E\U+0442\U+043E\U+0432\U+043B\U+0435\U+043D\U+0438\U+044F
7
cyrillic_ii
0
LINE
8
OUTLINE
10
74.25
20
112.0
30
0
11
181.75
21
112.0
31
0
0
LINE
8
OUTLINE
10
181.75
20
112.0
30
0
11
181.75
21
183.0
31
0
0
LINE
8
OUTLINE
10
181.75
20
183.0
30
0
11
74.25
21
183.0
31
0
0
LINE
8
OUTLINE
10
74.25
20
183.0
30
0
11
74.25
21
112.0
31
0
0
LINE
8
OUTLINE
10
75.5
20
113.5
30
0
11
180.5
21
113.5
31
0
0
LINE
8
OUTLINE
10
180.5
20
113.5
30
0
11
180.5
21
178.0
31
0
0
LINE
8
OUTLINE
10
180.5
20
178.0
30
0
11
75.5
21
178.0
31
0
0
LINE
8
OUTLINE
10
75.5
20
178.0
30
0
11
75.5
21
113.5
31
0
0
LINE
8
OUTLINE
10
68.0
20
183.0
30
0
11
188.0
21
183.0
31
0
0
LINE
8
OUTLINE
10
188.0
20
183.0
30
0
11
188.0
21
191.0
31
0
0
LINE
8
OUTLINE
10
188.0
20
191.0
30
0
11
68.0
21
191.0
31
0
0
LINE
8
OUTLINE
10
68.0
20
191.0
30
0
11
68.0
21
183.0
31
0
0
LINE
8
OUTLINE
10
63.0
20
176.0
30
0
11
193.0
21
176.0
31
0
0
LINE
8
OUTLINE
10
193.0
20
176.0
30
0
11
193.0
21
183.0
31
0
0
LINE
8
OUTLINE
10
193.0
20
183.0
30
0
11
63.0
21
183.0
31
0
0
LINE
8
OUTLINE
10
63.0
20
183.0
30
0
11
63.0
21
176.0
31
0
0
LINE
8
OUTLINE
10
89.25
20
113.25
30
0
11
166.75
21
113.25
31
0
0
LINE
8
OUTLINE
10
166.75
20
113.25
30
0
11
166.75
21
162.0
31
0
0
LINE
8
OUTLINE
10
166.75
20
162.0
30
0
11
89.25
21
162.0
31
0
0
LINE
8
OUTLINE
10
89.25
20
162.0
30
0
11
89.25
21
113.25
31
0
0
LINE
8
OUTLINE
10
90.5
20
113.25
30
0
11
165.5
21
113.25
31
0
0
LINE
8
OUTLINE
10
165.5
20
113.25
30
0
11
165.5
21
160.75
31
0
0
LINE
8
OUTLINE
10
165.5
20
160.75
30
0
11
90.5
21
160.75
31
0
0
LINE
8
OUTLINE
10
90.5
20
160.75
30
0
11
90.5
21
113.25
31
0
0
LINE
8
OUTLINE
10
123.0
20
117.25
30
0
11
133.0
21
117.25
31
0
0
LINE
8
OUTLINE
10
133.0
20
117.25
30
0
11
133.0
21
219.75
31
0
0
LINE
8
OUTLINE
10
133.0
20
219.75
30
0
11
123.0
21
219.75
31
0
0
LINE
8
OUTLINE
10
123.0
20
219.75
30
0
11
123.0
21
117.25
31
0
0
CIRCLE
8
OUTLINE
10
128.0
20
138.5
30
0
40
27.0
0
ARC
8
OUTLINE
10
128.0
20
138.5
30
0
40
27.0
50
210
51
330
0
ARC
8
OUTLINE
10
128.0
20
138.5
30
0
40
27.0
50
30
51
150
0
LINE
8
OUTLINE
10
96.0
20
122.0
30
0
11
110.5
21
151.0
31
0
0
LINE
8
OUTLINE
10
160.0
20
122.0
30
0
11
145.5
21
151.0
31
0
0
CIRCLE
8
OUTLINE
10
65.0
20
157.0
30
0
40
5.0
0
LINE
8
OUTLINE
10
62.5
20
138.0
30
0
11
67.5
21
138.0
31
0
0
LINE
8
OUTLINE
10
67.5
20
138.0
30
0
11
67.5
21
153.0
31
0
0
LINE
8
OUTLINE
10
67.5
20
153.0
30
0
11
62.5
21
153.0
31
0
0
LINE
8
OUTLINE
10
62.5
20
153.0
30
0
11
62.5
21
138.0
31
0
0
LINE
8
OUTLINE
10
54.0
20
140.0
30
0
11
62.5
21
140.0
31
0
0
LINE
8
OUTLINE
10
62.5
20
140.0
30
0
11
62.5
21
144.0
31
0
0
LINE
8
OUTLINE
10
62.5
20
144.0
30
0
11
54.0
21
144.0
31
0
0
LINE
8
OUTLINE
10
54.0
20
144.0
30
0
11
54.0
21
140.0
31
0
0
LINE
8
CENTER
10
55.5
20
147.5
30
0
11
72.0
21
147.5
31
0
0
LINE
8
CENTER
10
184.0
20
147.5
30
0
11
200.5
21
147.5
31
0
0
LINE
8
CENTER
10
128.0
20
103.0
30
0
11
128.0
21
200.0
31
0
0
LINE
8
HATCH
10
75.0
20
116.0
30
0
11
80.0
21
121.0
31
0
0
LINE
8
HATCH
10
176.0
20
116.0
30
0
11
181.0
21
121.0
31
0
0
LINE
8
HATCH
10
75.0
20
123.0
30
0
11
80.0
21
128.0
31
0
0
LINE
8
HATCH
10
176.0
20
123.0
30
0
11
181.0
21
128.0
31
0
0
LINE
8
HATCH
10
75.0
20
130.0
30
0
11
80.0
21
135.0
31
0
0
LINE
8
HATCH
10
176.0
20
130.0
30
0
11
181.0
21
135.0
31
0
0
LINE
8
HATCH
10
75.0
20
137.0
30
0
11
80.0
21
142.0
31
0
0
LINE
8
HATCH
10
176.0
20
137.0
30
0
11
181.0
21
142.0
31
0
0
LINE
8
HATCH
10
75.0
20
144.0
30
0
11
80.0
21
149.0
31
0
0
LINE
8
HATCH
10
176.0
20
144.0
30
0
11
181.0
21
149.0
31
0
0
LINE
8
HATCH
10
75.0
20
151.0
30
0
11
80.0
21
156.0
31
0
0
LINE
8
HATCH
10
176.0
20
151.0
30
0
11
181.0
21
156.0
31
0
0
LINE
8
HATCH
10
75.0
20
158.0
30
0
11
80.0
21
163.0
31
0
0
LINE
8
HATCH
10
176.0
20
158.0
30
0
11
181.0
21
163.0
31
0
0
LINE
8
HATCH
10
75.0
20
165.0
30
0
11
80.0
21
170.0
31
0
0
LINE
8
HATCH
10
176.0
20
165.0
30
0
11
181.0
21
170.0
31
0
0
LINE
8
HATCH
10
75.0
20
172.0
30
0
11
80.0
21
177.0
31
0
0
LINE
8
HATCH
10
176.0
20
172.0
30
0
11
181.0
21
177.0
31
0
0
LINE
8
HATCH
10
72.0
20
183.5
30
0
11
77.0
21
188.5
31
0
0
LINE
8
HATCH
10
82.0
20
183.5
30
0
11
87.0
21
188.5
31
0
0
LINE
8
HATCH
10
92.0
20
183.5
30
0
11
97.0
21
188.5
31
0
0
LINE
8
HATCH
10
102.0
20
183.5
30
0
11
107.0
21
188.5
31
0
0
LINE
8
HATCH
10
112.0
20
183.5
30
0
11
117.0
21
188.5
31
0
0
LINE
8
HATCH
10
122.0
20
183.5
30
0
11
127.0
21
188.5
31
0
0
LINE
8
HATCH
10
132.0
20
183.5
30
0
11
137.0
21
188.5
31
0
0
LINE
8
HATCH
10
142.0
20
183.5
30
0
11
147.0
21
188.5
31
0
0
LINE
8
HATCH
10
152.0
20
183.5
30
0
11
157.0
21
188.5
31
0
0
LINE
8
HATCH
10
162.0
20
183.5
30
0
11
167.0
21
188.5
31
0
0
LINE
8
HATCH
10
172.0
20
183.5
30
0
11
177.0
21
188.5
31
0
0
LINE
8
HATCH
10
182.0
20
183.5
30
0
11
187.0
21
188.5
31
0
0
LINE
8
DIM
10
74.25
20
112.0
30
0
11
74.25
21
92.0
31
0
0
LINE
8
DIM
10
181.75
20
112.0
30
0
11
181.75
21
92.0
31
0
0
LINE
8
DIM
10
74.25
20
92.0
30
0
11
181.75
21
92.0
31
0
0
LINE
8
DIM
10
74.25
20
92.0
30
0
11
76.35
21
94.1
31
0
0
LINE
8
DIM
10
74.25
20
92.0
30
0
11
76.35
21
89.9
31
0
0
LINE
8
DIM
10
181.75
20
92.0
30
0
11
179.65
21
94.1
31
0
0
LINE
8
DIM
10
181.75
20
92.0
30
0
11
179.65
21
89.9
31
0
0
MTEXT
100
AcDbEntity
8
DIM
100
AcDbMText
10
111.0
20
94.2
30
0
40
2.8
41
34
71
1
1
%%c215
7
cyrillic_ii
0
LINE
8
DIM
10
90.5
20
113.25
30
0
11
90.5
21
99.5
31
0
0
LINE
8
DIM
10
165.5
20
113.25
30
0
11
165.5
21
99.5
31
0
0
LINE
8
DIM
10
90.5
20
99.5
30
0
11
165.5
21
99.5
31
0
0
LINE
8
DIM
10
90.5
20
99.5
30
0
11
92.6
21
101.6
31
0
0
LINE
8
DIM
10
90.5
20
99.5
30
0
11
92.6
21
97.4
31
0
0
LINE
8
DIM
10
165.5
20
99.5
30
0
11
163.4
21
101.6
31
0
0
LINE
8
DIM
10
165.5
20
99.5
30
0
11
163.4
21
97.4
31
0
0
MTEXT
100
AcDbEntity
8
DIM
100
AcDbMText
10
111.0
20
101.7
30
0
40
2.8
41
34
71
1
1
%%c150
7
cyrillic_ii
0
LINE
8
DIM
10
181.75
20
112.0
30
0
11
201.5
21
112.0
31
0
0
LINE
8
DIM
10
181.75
20
183.0
30
0
11
201.5
21
183.0
31
0
0
LINE
8
DIM
10
201.5
20
112.0
30
0
11
201.5
21
183.0
31
0
0
LINE
8
DIM
10
201.5
20
112.0
30
0
11
199.4
21
114.1
31
0
0
LINE
8
DIM
10
201.5
20
112.0
30
0
11
203.6
21
114.1
31
0
0
LINE
8
DIM
10
201.5
20
183.0
30
0
11
199.4
21
180.9
31
0
0
LINE
8
DIM
10
201.5
20
183.0
30
0
11
203.6
21
180.9
31
0
0
MTEXT
100
AcDbEntity
8
DIM
100
AcDbMText
10
204.2
20
148.9
30
0
40
2.8
41
20
71
1
1
142
7
cyrillic_ii
0
LINE
8
DIM
10
166.75
20
113.25
30
0
11
187.0
21
113.25
31
0
0
LINE
8
DIM
10
166.75
20
160.75
30
0
11
187.0
21
160.75
31
0
0
LINE
8
DIM
10
187.0
20
113.25
30
0
11
187.0
21
160.75
31
0
0
LINE
8
DIM
10
187.0
20
113.25
30
0
11
184.9
21
115.35
31
0
0
LINE
8
DIM
10
187.0
20
113.25
30
0
11
189.1
21
115.35
31
0
0
LINE
8
DIM
10
187.0
20
160.75
30
0
11
184.9
21
158.65
31
0
0
LINE
8
DIM
10
187.0
20
160.75
30
0
11
189.1
21
158.65
31
0
0
MTEXT
100
AcDbEntity
8
DIM
100
AcDbMText
10
189.7
20
138.4
30
0
40
2.8
41
20
71
1
1
95
7
cyrillic_ii
0
MTEXT
100
AcDbEntity
8
TEXT
100
AcDbMText
10
50
20
83
30
0
40
3.2
41
140
71
1
1
\U+0420\U+0410\U+0417\U+0420\U+0415\U+0417 \U+0410-\U+0410
7
cyrillic_ii
0
MTEXT
100
AcDbEntity
8
TEXT
100
AcDbMText
10
50
20
77
30
0
40
2.6
41
140
71
1
1
\U+0421\U+044A\U+0451\U+043C\U+043D\U+0430\U+044F \U+0444\U+043E\U+0440\U+043C\U+0430 \U+0441 \U+0446\U+0435\U+043B\U+044C\U+043D\U+044B\U+043C \U+0434\U+043D\U+043E\U+043C; \U+043D\U+0438\U+0436\U+043D\U+0435\U+0439 \U+043E\U+043F\U+043E\U+0440\U+044B \U+0432\U+0430\U+043B\U+0430 \U+043D\U+0435\U+0442
7
cyrillic_ii
0
MTEXT
100
AcDbEntity
8
TEXT
100
AcDbMText
10
50
20
72
30
0
40
2.6
41
140
71
1
1
\U+0417\U+0430\U+0437\U+043E\U+0440 \U+0434\U+043E \U+0434\U+043D\U+0430 8; \U+0438\U+043D\U+0441\U+0442\U+0440\U+0443\U+043C\U+0435\U+043D\U+0442 %%c134,02; \U+0440\U+0430\U+0434\U+0438\U+0430\U+043B\U+044C\U+043D\U+044B\U+0439 \U+0437\U+0430\U+0437\U+043E\U+0440 7,99
7
cyrillic_ii
0
LINE
8
OUTLINE
10
238
20
65
30
0
11
388
21
65
31
0
0
LINE
8
OUTLINE
10
388
20
65
30
0
11
388
21
190
31
0
0
LINE
8
OUTLINE
10
388
20
190
30
0
11
238
21
190
31
0
0
LINE
8
OUTLINE
10
238
20
190
30
0
11
238
21
65
31
0
0
CIRCLE
8
OUTLINE
10
313
20
137
30
0
40
53.75
0
CIRCLE
8
OUTLINE
10
313
20
137
30
0
40
37.5
0
CIRCLE
8
OUTLINE
10
313
20
137
30
0
40
33.505
0
CIRCLE
8
OUTLINE
10
313
20
137
30
0
40
5
0
ARC
8
OUTLINE
10
313
20
137
30
0
40
31
50
0
51
300
0
ARC
8
OUTLINE
10
313
20
137
30
0
40
31
50
180
51
480
0
LINE
8
CENTER
10
248
20
137
30
0
11
378
21
137
31
0
0
LINE
8
CENTER
10
313
20
72
30
0
11
313
21
202
31
0
0
MTEXT
100
AcDbEntity
8
TEXT
100
AcDbMText
10
266
20
198
30
0
40
3.2
41
110
71
1
1
\U+0412\U+0418\U+0414 \U+0421\U+0412\U+0415\U+0420\U+0425\U+0423
7
cyrillic_ii
0
MTEXT
100
AcDbEntity
8
TEXT
100
AcDbMText
10
266
20
192
30
0
40
2.6
41
110
71
1
1
\U+0424\U+043E\U+0440\U+043C\U+0430 %%c150 - \U+043E\U+0440\U+0433\U+0430\U+043D A %%c134,02
7
cyrillic_ii
0
LINE
8
OUTLINE
10
238
20
210
30
0
11
388
21
210
31
0
0
LINE
8
OUTLINE
10
388
20
210
30
0
11
388
21
255
31
0
0
LINE
8
OUTLINE
10
388
20
255
30
0
11
238
21
255
31
0
0
LINE
8
OUTLINE
10
238
20
255
30
0
11
238
21
210
31
0
0
MTEXT
100
AcDbEntity
8
TITLE
100
AcDbMText
10
243
20
248
30
0
40
3.8
41
135
71
1
1
\U+0418\U+0421\U+0425\U+041E\U+0414\U+041D\U+042B\U+0415 \U+0414\U+0410\U+041D\U+041D\U+042B\U+0415 P2
7
cyrillic_ii
0
MTEXT
100
AcDbEntity
8
TEXT
100
AcDbMText
10
243
20
240
30
0
40
2.7
41
135
71
1
1
\U+041F\U+0430\U+0440\U+0442\U+0438\U+044F 350-500 \U+0433 - \U+0444\U+043E\U+0440\U+043C\U+0430 1,679 \U+043B\P\U+0412\U+0430\U+043B %%c20 - \U+043F\U+0438\U+043A 24 \U+041D-\U+043C - \U+043F\U+0440\U+043E\U+0433\U+0438\U+0431 0,095\P\U+0418\U+0441\U+043F\U+044B\U+0442\U+0430\U+043D\U+0438\U+044F \U+0434\U+0430\U+0432\U+043B\U+0435\U+043D\U+0438\U+044F: +20 / +40 / +60 \U+043A\U+041F\U+0430\P8 \U+043F\U+0440\U+043E\U+0443\U+0448\U+0438\U+043D \U+043A\U+0440\U+044B\U+0448\U+043A\U+0438 - \U+043D\U+0435\U+0437\U+0430\U+0432\U+0438\U+0441\U+0438\U+043C\U+044B\U+0439 \U+043A\U+043B\U+0430\U+043F\U+0430\U+043D
7
cyrillic_ii
0
LINE
8
OUTLINE
10
238
20
14
30
0
11
388
21
14
31
0
0
LINE
8
OUTLINE
10
388
20
14
30
0
11
388
21
49
31
0
0
LINE
8
OUTLINE
10
388
20
49
30
0
11
238
21
49
31
0
0
LINE
8
OUTLINE
10
238
20
49
30
0
11
238
21
14
31
0
0
LINE
8
OUTLINE
10
238
20
28
30
0
11
388
21
28
31
0
0
LINE
8
OUTLINE
10
315
20
14
30
0
11
315
21
49
31
0
0
MTEXT
100
AcDbEntity
8
TITLE
100
AcDbMText
10
243
20
41
30
0
40
3.7
41
67
71
1
1
HDA-1 / GA-03
7
cyrillic_ii
0
MTEXT
100
AcDbEntity
8
TEXT
100
AcDbMText
10
243
20
22
30
0
40
2.6
41
67
71
1
1
\U+0421\U+0411\U+041E\U+0420\U+041A\U+0410 P2 - 1:2
7
cyrillic_ii
0
MTEXT
100
AcDbEntity
8
TEXT
100
AcDbMText
10
320
20
41
30
0
40
2.6
41
62
71
1
1
\U+041F\U+0420\U+0415\U+0414\U+041A\U+041E\U+041D\U+0421\U+0422\U+0420\U+0423\U+041A\U+0422\U+041E\U+0420\U+0421\U+041A\U+0418\U+0419\P\U+041D\U+0415 \U+0414\U+041B\U+042F \U+041F\U+0420\U+041E\U+0418\U+0417\U+0412\U+041E\U+0414\U+0421\U+0422\U+0412\U+0410
7
cyrillic_ii
0
ENDSEC
0
EOF
