0
SECTION
2
HEADER
9
$ACADVER
1
AC1027
9
$DWGCODEPAGE
3
ANSI_1252
9
$INSUNITS
70
4
0
ENDSEC
0
SECTION
2
TABLES
0
TABLE
2
LAYER
70
6
0
LAYER
2
0
70
0
62
7
6
CONTINUOUS
0
LAYER
2
OUTLINE
70
0
62
7
6
CONTINUOUS
0
LAYER
2
CENTER
70
0
62
3
6
CONTINUOUS
0
LAYER
2
DIM
70
0
62
5
6
CONTINUOUS
0
LAYER
2
HATCH
70
0
62
8
6
CONTINUOUS
0
LAYER
2
TEXT
70
0
62
7
6
CONTINUOUS
0
LAYER
2
TITLE
70
0
62
2
6
CONTINUOUS
0
ENDTAB
0
TABLE
2
STYLE
70
1
0
STYLE
2
cyrillic_ii
70
0
40
0
41
1
50
0
71
0
42
2.5
3
cyrillic_ii.lff
4

0
ENDTAB
0
ENDSEC
0
SECTION
2
ENTITIES
0
LINE
8
OUTLINE
10
0
20
0
30
0
11
420
21
0
31
0
0
LINE
8
OUTLINE
10
420
20
0
30
0
11
420
21
297
31
0
0
LINE
8
OUTLINE
10
420
20
297
30
0
11
0
21
297
31
0
0
LINE
8
OUTLINE
10
0
20
297
30
0
11
0
21
0
31
0
0
LINE
8
OUTLINE
10
10
20
10
30
0
11
410
21
10
31
0
0
LINE
8
OUTLINE
10
410
20
10
30
0
11
410
21
287
31
0
0
LINE
8
OUTLINE
10
410
20
287
30
0
11
10
21
287
31
0
0
LINE
8
OUTLINE
10
10
20
287
30
0
11
10
21
10
31
0
0
MTEXT
100
AcDbEntity
8
TITLE
100
AcDbMText
10
15
20
279
30
0
40
5.6
41
290
71
1
1
HDA-1 - \U+0423\U+0417\U+0415\U+041B \U+0421\U+041C\U+0415\U+0428\U+0418\U+0412\U+0410\U+041D\U+0418\U+042F \U+0418 \U+0412\U+0421\U+041F\U+0415\U+041D\U+0418\U+0412\U+0410\U+041D\U+0418\U+042F
7
cyrillic_ii
0
MTEXT
100
AcDbEntity
8
TEXT
100
AcDbMText
10
15
20
270
30
0
40
2.8
41
290
71
1
1
GA-06 - \U+0421\U+0411\U+041E\U+0420\U+041E\U+0427\U+041D\U+042B\U+0415 \U+041F\U+0420\U+041E\U+0415\U+041A\U+0426\U+0418\U+0418 P2 - \U+043C\U+0430\U+0441\U+0448\U+0442\U+0430\U+0431 1:2 - \U+0440\U+0430\U+0437\U+043C\U+0435\U+0440\U+044B \U+0432 \U+043C\U+043C
7
cyrillic_ii
0
MTEXT
100
AcDbEntity
8
TEXT
100
AcDbMText
10
15
20
264
30
0
40
2.35
41
290
71
1
1
\U+0413\U+0435\U+043E\U+043C\U+0435\U+0442\U+0440\U+0438\U+044F \U+0432\U+044B\U+0432\U+0435\U+0434\U+0435\U+043D\U+0430 \U+043F\U+043E \U+043F\U+0430\U+0440\U+0430\U+043C\U+0435\U+0442\U+0440\U+0430\U+043C HDA1_P2_Master.FCStd; \U+043B\U+0438\U+0441\U+0442 P2 \U+043D\U+0435 \U+044F\U+0432\U+043B\U+044F\U+0435\U+0442\U+0441\U+044F \U+0440\U+0430\U+0431\U+043E\U+0447\U+0435\U+0439 \U+041A\U+0414.
7
cyrillic_ii
0
LINE
8
OUTLINE
10
64.25
20
55.0
30
0
11
171.75
21
55.0
31
0
0
LINE
8
OUTLINE
10
171.75
20
55.0
30
0
11
171.75
21
126.0
31
0
0
LINE
8
OUTLINE
10
171.75
20
126.0
30
0
11
64.25
21
126.0
31
0
0
LINE
8
OUTLINE
10
64.25
20
126.0
30
0
11
64.25
21
55.0
31
0
0
LINE
8
OUTLINE
10
65.5
20
56.5
30
0
11
170.5
21
56.5
31
0
0
LINE
8
OUTLINE
10
170.5
20
56.5
30
0
11
170.5
21
121.0
31
0
0
LINE
8
OUTLINE
10
170.5
20
121.0
30
0
11
65.5
21
121.0
31
0
0
LINE
8
OUTLINE
10
65.5
20
121.0
30
0
11
65.5
21
56.5
31
0
0
LINE
8
OUTLINE
10
59.0
20
126.0
30
0
11
177.0
21
126.0
31
0
0
LINE
8
OUTLINE
10
177.0
20
126.0
30
0
11
177.0
21
131.0
31
0
0
LINE
8
OUTLINE
10
177.0
20
131.0
30
0
11
59.0
21
131.0
31
0
0
LINE
8
OUTLINE
10
59.0
20
131.0
30
0
11
59.0
21
126.0
31
0
0
LINE
8
OUTLINE
10
53.0
20
131.0
30
0
11
183.0
21
131.0
31
0
0
LINE
8
OUTLINE
10
183.0
20
131.0
30
0
11
183.0
21
136.0
31
0
0
LINE
8
OUTLINE
10
183.0
20
136.0
30
0
11
53.0
21
136.0
31
0
0
LINE
8
OUTLINE
10
53.0
20
136.0
30
0
11
53.0
21
131.0
31
0
0
LINE
8
OUTLINE
10
79.25
20
56.5
30
0
11
156.75
21
56.5
31
0
0
LINE
8
OUTLINE
10
156.75
20
56.5
30
0
11
156.75
21
105.0
31
0
0
LINE
8
OUTLINE
10
156.75
20
105.0
30
0
11
79.25
21
105.0
31
0
0
LINE
8
OUTLINE
10
79.25
20
105.0
30
0
11
79.25
21
56.5
31
0
0
LINE
8
OUTLINE
10
80.5
20
58.0
30
0
11
155.5
21
58.0
31
0
0
LINE
8
OUTLINE
10
155.5
20
58.0
30
0
11
155.5
21
105.0
31
0
0
LINE
8
OUTLINE
10
155.5
20
105.0
30
0
11
80.5
21
105.0
31
0
0
LINE
8
OUTLINE
10
80.5
20
105.0
30
0
11
80.5
21
58.0
31
0
0
LINE
8
OUTLINE
10
113.0
20
62.0
30
0
11
123.0
21
62.0
31
0
0
LINE
8
OUTLINE
10
123.0
20
62.0
30
0
11
123.0
21
166.0
31
0
0
LINE
8
OUTLINE
10
123.0
20
166.0
30
0
11
113.0
21
166.0
31
0
0
LINE
8
OUTLINE
10
113.0
20
166.0
30
0
11
113.0
21
62.0
31
0
0
LINE
8
OUTLINE
10
109.0
20
99.5
30
0
11
127.0
21
99.5
31
0
0
LINE
8
OUTLINE
10
127.0
20
99.5
30
0
11
127.0
21
107.5
31
0
0
LINE
8
OUTLINE
10
127.0
20
107.5
30
0
11
109.0
21
107.5
31
0
0
LINE
8
OUTLINE
10
109.0
20
107.5
30
0
11
109.0
21
99.5
31
0
0
LINE
8
OUTLINE
10
86.5
20
64.0
30
0
11
98.0
21
80.0
31
0
0
LINE
8
OUTLINE
10
88.0
20
64.0
30
0
11
99.5
21
80.0
31
0
0
LINE
8
OUTLINE
10
98.0
20
80.0
30
0
11
86.5
21
97.0
31
0
0
LINE
8
OUTLINE
10
99.5
20
80.0
30
0
11
88.0
21
97.0
31
0
0
LINE
8
OUTLINE
10
149.5
20
64.0
30
0
11
138.0
21
80.0
31
0
0
LINE
8
OUTLINE
10
148.0
20
64.0
30
0
11
136.5
21
80.0
31
0
0
LINE
8
OUTLINE
10
138.0
20
80.0
30
0
11
149.5
21
97.0
31
0
0
LINE
8
OUTLINE
10
136.5
20
80.0
30
0
11
148.0
21
97.0
31
0
0
LINE
8
CENTER
10
118.0
20
47.0
30
0
11
118.0
21
141.0
31
0
0
LINE
8
HATCH
10
65.0
20
58.0
30
0
11
70.0
21
63.0
31
0
0
LINE
8
HATCH
10
166.0
20
58.0
30
0
11
171.0
21
63.0
31
0
0
LINE
8
HATCH
10
65.0
20
65.5
30
0
11
70.0
21
70.5
31
0
0
LINE
8
HATCH
10
166.0
20
65.5
30
0
11
171.0
21
70.5
31
0
0
LINE
8
HATCH
10
65.0
20
73.0
30
0
11
70.0
21
78.0
31
0
0
LINE
8
HATCH
10
166.0
20
73.0
30
0
11
171.0
21
78.0
31
0
0
LINE
8
HATCH
10
65.0
20
80.5
30
0
11
70.0
21
85.5
31
0
0
LINE
8
HATCH
10
166.0
20
80.5
30
0
11
171.0
21
85.5
31
0
0
LINE
8
HATCH
10
65.0
20
88.0
30
0
11
70.0
21
93.0
31
0
0
LINE
8
HATCH
10
166.0
20
88.0
30
0
11
171.0
21
93.0
31
0
0
LINE
8
HATCH
10
65.0
20
95.5
30
0
11
70.0
21
100.5
31
0
0
LINE
8
HATCH
10
166.0
20
95.5
30
0
11
171.0
21
100.5
31
0
0
LINE
8
HATCH
10
65.0
20
103.0
30
0
11
70.0
21
108.0
31
0
0
LINE
8
HATCH
10
166.0
20
103.0
30
0
11
171.0
21
108.0
31
0
0
LINE
8
HATCH
10
65.0
20
110.5
30
0
11
70.0
21
115.5
31
0
0
LINE
8
HATCH
10
166.0
20
110.5
30
0
11
171.0
21
115.5
31
0
0
LINE
8
HATCH
10
65.0
20
118.0
30
0
11
70.0
21
123.0
31
0
0
LINE
8
HATCH
10
166.0
20
118.0
30
0
11
171.0
21
123.0
31
0
0
LINE
8
HATCH
10
60.0
20
126.5
30
0
11
64.5
21
131.0
31
0
0
LINE
8
HATCH
10
69.5
20
126.5
30
0
11
74.0
21
131.0
31
0
0
LINE
8
HATCH
10
79.0
20
126.5
30
0
11
83.5
21
131.0
31
0
0
LINE
8
HATCH
10
88.5
20
126.5
30
0
11
93.0
21
131.0
31
0
0
LINE
8
HATCH
10
98.0
20
126.5
30
0
11
102.5
21
131.0
31
0
0
LINE
8
HATCH
10
107.5
20
126.5
30
0
11
112.0
21
131.0
31
0
0
LINE
8
HATCH
10
117.0
20
126.5
30
0
11
121.5
21
131.0
31
0
0
LINE
8
HATCH
10
126.5
20
126.5
30
0
11
131.0
21
131.0
31
0
0
LINE
8
HATCH
10
136.0
20
126.5
30
0
11
140.5
21
131.0
31
0
0
LINE
8
HATCH
10
145.5
20
126.5
30
0
11
150.0
21
131.0
31
0
0
LINE
8
HATCH
10
155.0
20
126.5
30
0
11
159.5
21
131.0
31
0
0
LINE
8
HATCH
10
164.5
20
126.5
30
0
11
169.0
21
131.0
31
0
0
LINE
8
HATCH
10
174.0
20
126.5
30
0
11
178.5
21
131.0
31
0
0
LINE
8
OUTLINE
10
170.5
20
108.0
30
0
11
189.5
21
108.0
31
0
0
LINE
8
OUTLINE
10
189.5
20
108.0
30
0
11
189.5
21
114.0
31
0
0
LINE
8
OUTLINE
10
189.5
20
114.0
30
0
11
170.5
21
114.0
31
0
0
LINE
8
OUTLINE
10
170.5
20
114.0
30
0
11
170.5
21
108.0
31
0
0
CIRCLE
8
OUTLINE
10
190.5
20
111.0
30
0
40
5
0
LINE
8
OUTLINE
10
170.5
20
94.0
30
0
11
187.5
21
94.0
31
0
0
LINE
8
OUTLINE
10
187.5
20
94.0
30
0
11
187.5
21
100.5
31
0
0
LINE
8
OUTLINE
10
187.5
20
100.5
30
0
11
170.5
21
100.5
31
0
0
LINE
8
OUTLINE
10
170.5
20
100.5
30
0
11
170.5
21
94.0
31
0
0
CIRCLE
8
OUTLINE
10
189.5
20
97.25
30
0
40
7
0
LINE
8
DIM
10
64.25
20
55.0
30
0
11
64.25
21
39.5
31
0
0
LINE
8
DIM
10
171.75
20
55.0
30
0
11
171.75
21
39.5
31
0
0
LINE
8
DIM
10
64.25
20
39.5
30
0
11
171.75
21
39.5
31
0
0
LINE
8
DIM
10
64.25
20
39.5
30
0
11
66.35
21
41.6
31
0
0
LINE
8
DIM
10
64.25
20
39.5
30
0
11
66.35
21
37.4
31
0
0
LINE
8
DIM
10
171.75
20
39.5
30
0
11
169.65
21
41.6
31
0
0
LINE
8
DIM
10
171.75
20
39.5
30
0
11
169.65
21
37.4
31
0
0
MTEXT
100
AcDbEntity
8
DIM
100
AcDbMText
10
101.0
20
41.7
30
0
40
2.8
41
34
71
1
1
%%c215 \U+043A\U+0430\U+043C\U+0435\U+0440\U+0430
7
cyrillic_ii
0
LINE
8
DIM
10
80.5
20
56.5
30
0
11
80.5
21
46.0
31
0
0
LINE
8
DIM
10
155.5
20
56.5
30
0
11
155.5
21
46.0
31
0
0
LINE
8
DIM
10
80.5
20
46.0
30
0
11
155.5
21
46.0
31
0
0
LINE
8
DIM
10
80.5
20
46.0
30
0
11
82.6
21
48.1
31
0
0
LINE
8
DIM
10
80.5
20
46.0
30
0
11
82.6
21
43.9
31
0
0
LINE
8
DIM
10
155.5
20
46.0
30
0
11
153.4
21
48.1
31
0
0
LINE
8
DIM
10
155.5
20
46.0
30
0
11
153.4
21
43.9
31
0
0
MTEXT
100
AcDbEntity
8
DIM
100
AcDbMText
10
101.0
20
48.2
30
0
40
2.8
41
34
71
1
1
%%c150 \U+0444\U+043E\U+0440\U+043C\U+0430
7
cyrillic_ii
0
LINE
8
DIM
10
171.75
20
55.0
30
0
11
190.5
21
55.0
31
0
0
LINE
8
DIM
10
171.75
20
126.0
30
0
11
190.5
21
126.0
31
0
0
LINE
8
DIM
10
190.5
20
55.0
30
0
11
190.5
21
126.0
31
0
0
LINE
8
DIM
10
190.5
20
55.0
30
0
11
188.4
21
57.1
31
0
0
LINE
8
DIM
10
190.5
20
55.0
30
0
11
192.6
21
57.1
31
0
0
LINE
8
DIM
10
190.5
20
126.0
30
0
11
188.4
21
123.9
31
0
0
LINE
8
DIM
10
190.5
20
126.0
30
0
11
192.6
21
123.9
31
0
0
MTEXT
100
AcDbEntity
8
DIM
100
AcDbMText
10
193.2
20
91.9
30
0
40
2.8
41
20
71
1
1
142
7
cyrillic_ii
0
LINE
8
DIM
10
156.75
20
56.5
30
0
11
176.5
21
56.5
31
0
0
LINE
8
DIM
10
156.75
20
105.0
30
0
11
176.5
21
105.0
31
0
0
LINE
8
DIM
10
176.5
20
56.5
30
0
11
176.5
21
105.0
31
0
0
LINE
8
DIM
10
176.5
20
56.5
30
0
11
174.4
21
58.6
31
0
0
LINE
8
DIM
10
176.5
20
56.5
30
0
11
178.6
21
58.6
31
0
0
LINE
8
DIM
10
176.5
20
105.0
30
0
11
174.4
21
102.9
31
0
0
LINE
8
DIM
10
176.5
20
105.0
30
0
11
178.6
21
102.9
31
0
0
MTEXT
100
AcDbEntity
8
DIM
100
AcDbMText
10
179.2
20
82.15
30
0
40
2.8
41
20
71
1
1
95
7
cyrillic_ii
0
MTEXT
100
AcDbEntity
8
TEXT
100
AcDbMText
10
17
20
29
30
0
40
3.4
41
170
71
1
1
\U+0420\U+0410\U+0417\U+0420\U+0415\U+0417 A-A - \U+0427\U+0410\U+0428\U+0410 \U+0421\U+041E \U+0421\U+041F\U+041B\U+041E\U+0428\U+041D\U+042B\U+041C \U+0414\U+041D\U+041E\U+041C; \U+041D\U+0418\U+0416\U+041D\U+0415\U+0419 \U+041E\U+041F\U+041E\U+0420\U+042B \U+0412\U+0410\U+041B\U+0410 \U+041D\U+0415\U+0422
7
cyrillic_ii
0
MTEXT
100
AcDbEntity
8
DIM
100
AcDbMText
10
20
20
23
30
0
40
2.6
41
170
71
1
1
\U+0412\U+0430\U+043B %%c20; \U+043E\U+0440\U+0433\U+0430\U+043D A %%c134; \U+0440\U+0430\U+0434\U+0438\U+0430\U+043B\U+044C\U+043D\U+044B\U+0439 \U+0437\U+0430\U+0437\U+043E\U+0440 8; \U+0437\U+0430\U+0437\U+043E\U+0440 \U+0434\U+043E \U+0434\U+043D\U+0430 8
7
cyrillic_ii
0
LINE
8
DIM
10
22
20
113
30
0
11
65.0
21
102.5
31
0
0
CIRCLE
8
TITLE
10
22
20
113
30
0
40
4.1
0
MTEXT
100
AcDbEntity
8
TITLE
100
AcDbMText
10
20.65
20
111.65
30
0
40
2.7
41
4
71
1
1
1
7
cyrillic_ii
0
LINE
8
DIM
10
34
20
75
30
0
11
80.5
21
76.0
31
0
0
CIRCLE
8
TITLE
10
34
20
75
30
0
40
4.1
0
MTEXT
100
AcDbEntity
8
TITLE
100
AcDbMText
10
32.65
20
73.65
30
0
40
2.7
41
4
71
1
1
2
7
cyrillic_ii
0
LINE
8
DIM
10
76
20
99
30
0
11
90.5
21
81.0
31
0
0
CIRCLE
8
TITLE
10
76
20
99
30
0
40
4.1
0
MTEXT
100
AcDbEntity
8
TITLE
100
AcDbMText
10
74.65
20
97.65
30
0
40
2.7
41
4
71
1
1
3
7
cyrillic_ii
0
LINE
8
DIM
10
38
20
145
30
0
11
74.0
21
132.0
31
0
0
CIRCLE
8
TITLE
10
38
20
145
30
0
40
4.1
0
MTEXT
100
AcDbEntity
8
TITLE
100
AcDbMText
10
36.65
20
143.65
30
0
40
2.7
41
4
71
1
1
4
7
cyrillic_ii
0
LINE
8
DIM
10
105
20
163
30
0
11
118.0
21
140.0
31
0
0
CIRCLE
8
TITLE
10
105
20
163
30
0
40
4.1
0
MTEXT
100
AcDbEntity
8
TITLE
100
AcDbMText
10
103.65
20
161.65
30
0
40
2.7
41
4
71
1
1
5
7
cyrillic_ii
0
LINE
8
DIM
10
122
20
168
30
0
11
118.0
21
147.5
31
0
0
CIRCLE
8
TITLE
10
122
20
168
30
0
40
4.1
0
MTEXT
100
AcDbEntity
8
TITLE
100
AcDbMText
10
120.65
20
166.65
30
0
40
2.7
41
4
71
1
1
6
7
cyrillic_ii
0
LINE
8
DIM
10
208
20
111
30
0
11
180.5
21
111.0
31
0
0
CIRCLE
8
TITLE
10
208
20
111
30
0
40
4.1
0
MTEXT
100
AcDbEntity
8
TITLE
100
AcDbMText
10
206.65
20
109.65
30
0
40
2.7
41
4
71
1
1
8
7
cyrillic_ii
0
LINE
8
DIM
10
207
20
82
30
0
11
179.5
21
97.25
31
0
0
CIRCLE
8
TITLE
10
207
20
82
30
0
40
4.1
0
MTEXT
100
AcDbEntity
8
TITLE
100
AcDbMText
10
205.65
20
80.65
30
0
40
2.7
41
4
71
1
1
9
7
cyrillic_ii
0
CIRCLE
8
OUTLINE
10
296
20
145
30
0
40
53.75
0
CIRCLE
8
OUTLINE
10
296
20
145
30
0
40
37.5
0
CIRCLE
8
OUTLINE
10
296
20
145
30
0
40
33.5
0
CIRCLE
8
OUTLINE
10
296
20
145
30
0
40
5
0
LINE
8
OUTLINE
10
301
20
141.5
30
0
11
329.5
21
141.5
31
0
0
LINE
8
OUTLINE
10
329.5
20
141.5
30
0
11
329.5
21
148.5
31
0
0
LINE
8
OUTLINE
10
329.5
20
148.5
30
0
11
301
21
148.5
31
0
0
LINE
8
OUTLINE
10
301
20
148.5
30
0
11
301
21
141.5
31
0
0
LINE
8
OUTLINE
10
262.5
20
141.5
30
0
11
291.0
21
141.5
31
0
0
LINE
8
OUTLINE
10
291.0
20
141.5
30
0
11
291.0
21
148.5
31
0
0
LINE
8
OUTLINE
10
291.0
20
148.5
30
0
11
262.5
21
148.5
31
0
0
LINE
8
OUTLINE
10
262.5
20
148.5
30
0
11
262.5
21
141.5
31
0
0
LINE
8
CENTER
10
234
20
145
30
0
11
358
21
145
31
0
0
LINE
8
CENTER
10
296
20
83
30
0
11
296
21
207
31
0
0
MTEXT
100
AcDbEntity
8
TITLE
100
AcDbMText
10
238
20
208
30
0
40
3.7
41
140
71
1
1
\U+0421\U+0415\U+0427\U+0415\U+041D\U+0418\U+0415 B-B - \U+0423\U+0420\U+041E\U+0412\U+0415\U+041D\U+042C \U+041B\U+0415\U+041D\U+0422
7
cyrillic_ii
0
MTEXT
100
AcDbEntity
8
TEXT
100
AcDbMText
10
238
20
201
30
0
40
2.7
41
145
71
1
1
\U+0414\U+0432\U+0435 \U+043E\U+0442\U+043A\U+0440\U+044B\U+0442\U+044B\U+0435 \U+043B\U+0435\U+043D\U+0442\U+044B; \U+0440\U+0430\U+0437\U+043D\U+043E\U+0441 180\U+00B0; \U+043D\U+0430\U+0440\U+0443\U+0436\U+043D\U+044B\U+0439 \U+0434\U+0438\U+0430\U+043C\U+0435\U+0442\U+0440 134
7
cyrillic_ii
0
LINE
8
DIM
10
258.5
20
107.5
30
0
11
258.5
21
97
31
0
0
LINE
8
DIM
10
333.5
20
107.5
30
0
11
333.5
21
97
31
0
0
LINE
8
DIM
10
258.5
20
97
30
0
11
333.5
21
97
31
0
0
LINE
8
DIM
10
258.5
20
97
30
0
11
260.6
21
99.1
31
0
0
LINE
8
DIM
10
258.5
20
97
30
0
11
260.6
21
94.9
31
0
0
LINE
8
DIM
10
333.5
20
97
30
0
11
331.4
21
99.1
31
0
0
LINE
8
DIM
10
333.5
20
97
30
0
11
331.4
21
94.9
31
0
0
MTEXT
100
AcDbEntity
8
DIM
100
AcDbMText
10
279.0
20
99.2
30
0
40
2.8
41
34
71
1
1
%%c150
7
cyrillic_ii
0
LINE
8
DIM
10
262.5
20
111.5
30
0
11
262.5
21
88
31
0
0
LINE
8
DIM
10
329.5
20
111.5
30
0
11
329.5
21
88
31
0
0
LINE
8
DIM
10
262.5
20
88
30
0
11
329.5
21
88
31
0
0
LINE
8
DIM
10
262.5
20
88
30
0
11
264.6
21
90.1
31
0
0
LINE
8
DIM
10
262.5
20
88
30
0
11
264.6
21
85.9
31
0
0
LINE
8
DIM
10
329.5
20
88
30
0
11
327.4
21
90.1
31
0
0
LINE
8
DIM
10
329.5
20
88
30
0
11
327.4
21
85.9
31
0
0
MTEXT
100
AcDbEntity
8
DIM
100
AcDbMText
10
279.0
20
90.2
30
0
40
2.8
41
34
71
1
1
%%c134
7
cyrillic_ii
0
LINE
8
OUTLINE
10
238
20
52
30
0
11
326
21
52
31
0
0
LINE
8
OUTLINE
10
326
20
52
30
0
11
326
21
78
31
0
0
LINE
8
OUTLINE
10
326
20
78
30
0
11
238
21
78
31
0
0
LINE
8
OUTLINE
10
238
20
78
30
0
11
238
21
52
31
0
0
LINE
8
OUTLINE
10
246
20
78
30
0
11
318
21
78
31
0
0
LINE
8
OUTLINE
10
318
20
78
30
0
11
318
21
141
31
0
0
LINE
8
OUTLINE
10
318
20
141
30
0
11
246
21
141
31
0
0
LINE
8
OUTLINE
10
246
20
141
30
0
11
246
21
78
31
0
0
LINE
8
OUTLINE
10
258
20
141
30
0
11
306
21
141
31
0
0
LINE
8
OUTLINE
10
306
20
141
30
0
11
306
21
152
31
0
0
LINE
8
OUTLINE
10
306
20
152
30
0
11
258
21
152
31
0
0
LINE
8
OUTLINE
10
258
20
152
30
0
11
258
21
141
31
0
0
LINE
8
OUTLINE
10
272
20
152
30
0
11
292
21
152
31
0
0
LINE
8
OUTLINE
10
292
20
152
30
0
11
292
21
182
31
0
0
LINE
8
OUTLINE
10
292
20
182
30
0
11
272
21
182
31
0
0
LINE
8
OUTLINE
10
272
20
182
30
0
11
272
21
152
31
0
0
LINE
8
OUTLINE
10
244
20
73
30
0
11
251
21
73
31
0
0
LINE
8
OUTLINE
10
251
20
73
30
0
11
251
21
81
31
0
0
LINE
8
OUTLINE
10
251
20
81
30
0
11
244
21
81
31
0
0
LINE
8
OUTLINE
10
244
20
81
30
0
11
244
21
73
31
0
0
LINE
8
OUTLINE
10
260
20
73
30
0
11
267
21
73
31
0
0
LINE
8
OUTLINE
10
267
20
73
30
0
11
267
21
81
31
0
0
LINE
8
OUTLINE
10
267
20
81
30
0
11
260
21
81
31
0
0
LINE
8
OUTLINE
10
260
20
81
30
0
11
260
21
73
31
0
0
LINE
8
OUTLINE
10
276
20
73
30
0
11
283
21
73
31
0
0
LINE
8
OUTLINE
10
283
20
73
30
0
11
283
21
81
31
0
0
LINE
8
OUTLINE
10
283
20
81
30
0
11
276
21
81
31
0
0
LINE
8
OUTLINE
10
276
20
81
30
0
11
276
21
73
31
0
0
LINE
8
OUTLINE
10
292
20
73
30
0
11
299
21
73
31
0
0
LINE
8
OUTLINE
10
299
20
73
30
0
11
299
21
81
31
0
0
LINE
8
OUTLINE
10
299
20
81
30
0
11
292
21
81
31
0
0
LINE
8
OUTLINE
10
292
20
81
30
0
11
292
21
73
31
0
0
LINE
8
OUTLINE
10
308
20
73
30
0
11
315
21
73
31
0
0
LINE
8
OUTLINE
10
315
20
73
30
0
11
315
21
81
31
0
0
LINE
8
OUTLINE
10
315
20
81
30
0
11
308
21
81
31
0
0
LINE
8
OUTLINE
10
308
20
81
30
0
11
308
21
73
31
0
0
MTEXT
100
AcDbEntity
8
TITLE
100
AcDbMText
10
238
20
45
30
0
40
3.4
41
110
71
1
1
\U+0412\U+0418\U+0414 \U+0421\U+041F\U+0415\U+0420\U+0415\U+0414\U+0418
7
cyrillic_ii
0
MTEXT
100
AcDbEntity
8
TEXT
100
AcDbMText
10
238
20
38
30
0
40
2.55
41
115
71
1
1
8-\U+043F\U+043E\U+0437\U+0438\U+0446\U+0438\U+043E\U+043D\U+043D\U+044B\U+0439 \U+0437\U+0430\U+043C\U+043E\U+043A; \U+0441\U+0443\U+0445\U+0430\U+044F \U+0433\U+043E\U+043B\U+043E\U+0432\U+043A\U+0430\P\U+0441 2 \U+043F\U+043E\U+0434\U+0448\U+0438\U+043F\U+043D\U+0438\U+043A\U+0430\U+043C\U+0438 %%c20
7
cyrillic_ii
0
LINE
8
DIM
10
339
20
166
30
0
11
291
21
167
31
0
0
CIRCLE
8
TITLE
10
339
20
166
30
0
40
4.1
0
MTEXT
100
AcDbEntity
8
TITLE
100
AcDbMText
10
337.65
20
164.65
30
0
40
2.7
41
4
71
1
1
7
7
cyrillic_ii
0
LINE
8
OUTLINE
10
335
20
75
30
0
11
400
21
75
31
0
0
LINE
8
OUTLINE
10
400
20
75
30
0
11
400
21
213
31
0
0
LINE
8
OUTLINE
10
400
20
213
30
0
11
335
21
213
31
0
0
LINE
8
OUTLINE
10
335
20
213
30
0
11
335
21
75
31
0
0
LINE
8
TITLE
10
335
20
204
30
0
11
400
21
204
31
0
0
LINE
8
TITLE
10
400
20
204
30
0
11
400
21
213
31
0
0
LINE
8
TITLE
10
400
20
213
30
0
11
335
21
213
31
0
0
LINE
8
TITLE
10
335
20
213
30
0
11
335
21
204
31
0
0
MTEXT
100
AcDbEntity
8
TITLE
100
AcDbMText
10
338
20
207
30
0
40
2.7
41
58
71
1
1
\U+041F\U+041E\U+0417\U+0418\U+0426\U+0418\U+0418
7
cyrillic_ii
0
LINE
8
OUTLINE
10
335
20
193
30
0
11
400
21
193
31
0
0
MTEXT
100
AcDbEntity
8
TEXT
100
AcDbMText
10
338
20
197
30
0
40
2.35
41
58
71
1
1
1 \U+041A\U+0430\U+043C\U+0435\U+0440\U+0430 %%c215 x 142
7
cyrillic_ii
0
LINE
8
OUTLINE
10
335
20
180
30
0
11
400
21
180
31
0
0
MTEXT
100
AcDbEntity
8
TEXT
100
AcDbMText
10
338
20
184
30
0
40
2.35
41
58
71
1
1
2 \U+0424\U+043E\U+0440\U+043C\U+0430 %%c150 x 95
7
cyrillic_ii
0
LINE
8
OUTLINE
10
335
20
167
30
0
11
400
21
167
31
0
0
MTEXT
100
AcDbEntity
8
TEXT
100
AcDbMText
10
338
20
171
30
0
40
2.35
41
58
71
1
1
3 \U+041E\U+0440\U+0433\U+0430\U+043D A: 2 \U+043B\U+0435\U+043D\U+0442\U+044B 180\U+00B0
7
cyrillic_ii
0
LINE
8
OUTLINE
10
335
20
154
30
0
11
400
21
154
31
0
0
MTEXT
100
AcDbEntity
8
TEXT
100
AcDbMText
10
338
20
158
30
0
40
2.35
41
58
71
1
1
4 \U+041A\U+0440\U+044B\U+0448\U+043A\U+0430 \U+0438 \U+0437\U+0430\U+043C\U+043E\U+043A
7
cyrillic_ii
0
LINE
8
OUTLINE
10
335
20
141
30
0
11
400
21
141
31
0
0
MTEXT
100
AcDbEntity
8
TEXT
100
AcDbMText
10
338
20
145
30
0
40
2.35
41
58
71
1
1
5 \U+0412\U+0430\U+043B %%c20; \U+0432\U+044B\U+043B\U+0435\U+0442 120
7
cyrillic_ii
0
LINE
8
OUTLINE
10
335
20
128
30
0
11
400
21
128
31
0
0
MTEXT
100
AcDbEntity
8
TEXT
100
AcDbMText
10
338
20
132
30
0
40
2.35
41
58
71
1
1
6 \U+0421\U+0443\U+0445\U+0430\U+044F \U+0433\U+043E\U+043B\U+043E\U+0432\U+043A\U+0430
7
cyrillic_ii
0
LINE
8
OUTLINE
10
335
20
115
30
0
11
400
21
115
31
0
0
MTEXT
100
AcDbEntity
8
TEXT
100
AcDbMText
10
338
20
119
30
0
40
2.35
41
58
71
1
1
7 BLDC \U+043F\U+0440\U+0438\U+0432\U+043E\U+0434 P2
7
cyrillic_ii
0
LINE
8
OUTLINE
10
335
20
102
30
0
11
400
21
102
31
0
0
MTEXT
100
AcDbEntity
8
TEXT
100
AcDbMText
10
338
20
106
30
0
40
2.35
41
58
71
1
1
8 \U+041C\U+0435\U+0445. \U+043F\U+0440\U+0435\U+0434. \U+043A\U+043B\U+0430\U+043F\U+0430\U+043D
7
cyrillic_ii
0
LINE
8
OUTLINE
10
335
20
89
30
0
11
400
21
89
31
0
0
MTEXT
100
AcDbEntity
8
TEXT
100
AcDbMText
10
338
20
93
30
0
40
2.35
41
58
71
1
1
9 \U+041F\U+043E\U+0434\U+0430\U+0447\U+0430 / \U+0432\U+044B\U+043F\U+0443\U+0441\U+043A \U+0432\U+043E\U+0437\U+0434\U+0443\U+0445\U+0430
7
cyrillic_ii
0
LINE
8
OUTLINE
10
238
20
218
30
0
11
400
21
218
31
0
0
LINE
8
OUTLINE
10
400
20
218
30
0
11
400
21
256
31
0
0
LINE
8
OUTLINE
10
400
20
256
30
0
11
238
21
256
31
0
0
LINE
8
OUTLINE
10
238
20
256
30
0
11
238
21
218
31
0
0
MTEXT
100
AcDbEntity
8
TITLE
100
AcDbMText
10
242
20
250
30
0
40
3.2
41
150
71
1
1
\U+041A\U+041E\U+041D\U+0422\U+0420\U+041E\U+041B\U+042C\U+041D\U+042B\U+0415 \U+0423\U+0421\U+041B\U+041E\U+0412\U+0418\U+042F P2
7
cyrillic_ii
0
MTEXT
100
AcDbEntity
8
TEXT
100
AcDbMText
10
242
20
242
30
0
40
2.45
41
152
71
1
1
\U+0421\U+0442\U+0435\U+043D\U+0434\U+043E\U+0432\U+044B\U+0435 \U+0442\U+043E\U+0447\U+043A\U+0438 \U+0434\U+0430\U+0432\U+043B\U+0435\U+043D\U+0438\U+044F: +20 / +40 / +60 \U+043A\U+041F\U+0430.\P\U+0412\U+0430\U+043B: \U+043F\U+0438\U+043A 24 \U+041D-\U+043C; \U+0440\U+0430\U+0441\U+0447\U+0451\U+0442\U+043D\U+044B\U+0439 \U+043F\U+0440\U+043E\U+0433\U+0438\U+0431 0,095 \U+043C\U+043C.\P\U+0420\U+0430\U+0431\U+043E\U+0447\U+0438\U+0439 \U+043E\U+0440\U+0433\U+0430\U+043D - \U+0435\U+0434\U+0438\U+043D\U+0430\U+044F \U+0441\U+0431\U+043E\U+0440\U+043A\U+0430 \U+0441\U+043E \U+0441\U+0442\U+0443\U+043F\U+0438\U+0446\U+0435\U+0439 \U+0438 \U+0440\U+0430\U+0434\U+0438\U+0430\U+043B\U+044C\U+043D\U+044B\U+043C\U+0438 \U+0441\U+0432\U+044F\U+0437\U+044F\U+043C\U+0438.\P\U+0414\U+043E \U+0438\U+0437\U+0433\U+043E\U+0442\U+043E\U+0432\U+043B\U+0435\U+043D\U+0438\U+044F: FEM, \U+0440\U+0435\U+0441\U+0443\U+0440\U+0441, \U+0437\U+0430\U+043C\U+043E\U+043A, \U+043A\U+0430\U+043C\U+0435\U+0440\U+0430 \U+0438 \U+043F\U+0440\U+043E\U+0442\U+043E\U+043A\U+043E\U+043B \U+0438\U+0441\U+043F\U+044B\U+0442\U+0430\U+043D\U+0438\U+0439.
7
cyrillic_ii
0
LINE
8
OUTLINE
10
245
20
14
30
0
11
400
21
14
31
0
0
LINE
8
OUTLINE
10
400
20
14
30
0
11
400
21
42
31
0
0
LINE
8
OUTLINE
10
400
20
42
30
0
11
245
21
42
31
0
0
LINE
8
OUTLINE
10
245
20
42
30
0
11
245
21
14
31
0
0
LINE
8
OUTLINE
10
245
20
25
30
0
11
400
21
25
31
0
0
LINE
8
OUTLINE
10
324
20
14
30
0
11
324
21
42
31
0
0
MTEXT
100
AcDbEntity
8
TITLE
100
AcDbMText
10
249
20
35
30
0
40
3.9
41
70
71
1
1
HDA-1 / GA-06
7
cyrillic_ii
0
MTEXT
100
AcDbEntity
8
TEXT
100
AcDbMText
10
249
20
20
30
0
40
2.7
41
70
71
1
1
\U+0421\U+0411\U+041E\U+0420\U+041A\U+0410 P2 - 1:2
7
cyrillic_ii
0
MTEXT
100
AcDbEntity
8
TEXT
100
AcDbMText
10
328
20
35
30
0
40
2.5
41
68
71
1
1
\U+041F\U+0420\U+0415\U+0414\U+0412\U+0410\U+0420\U+0418\U+0422\U+0415\U+041B\U+042C\U+041D\U+042B\U+0419\P\U+041D\U+0415 \U+0414\U+041B\U+042F \U+041F\U+0420\U+041E\U+0418\U+0417\U+0412\U+041E\U+0414\U+0421\U+0422\U+0412\U+0410
7
cyrillic_ii
0
ENDSEC
0
EOF
