solid OpenSCAD_Model
  facet normal 0.999051 0.0435588 0
    outer loop
      vertex -80.5 0 -17.2
      vertex -80.5361 0.827979 -22
      vertex -80.5361 0.827979 -17.2
    endloop
  endfacet
  facet normal 0.999051 0.0435588 0
    outer loop
      vertex -80.5361 0.827979 -22
      vertex -80.5 0 -17.2
      vertex -80.5 0 -22
    endloop
  endfacet
  facet normal -0.999051 0.0435588 0
    outer loop
      vertex -99.5 0 -22
      vertex -99.4639 0.827979 -17.2
      vertex -99.4639 0.827979 -22
    endloop
  endfacet
  facet normal -0.999051 0.0435588 0
    outer loop
      vertex -99.4639 0.827979 -17.2
      vertex -99.5 0 -22
      vertex -99.5 0 -17.2
    endloop
  endfacet
  facet normal 0.0436179 0.999048 -0
    outer loop
      vertex -89.172 9.46385 -22
      vertex -90 9.5 -17.2
      vertex -89.172 9.46385 -17.2
    endloop
  endfacet
  facet normal 0.0436179 0.999048 0
    outer loop
      vertex -90 9.5 -17.2
      vertex -89.172 9.46385 -22
      vertex -90 9.5 -22
    endloop
  endfacet
  facet normal 0.737281 0.675586 0
    outer loop
      vertex -82.7226 6.10648 -17.2
      vertex -83.2825 6.71751 -22
      vertex -83.2825 6.71751 -17.2
    endloop
  endfacet
  facet normal 0.737281 0.675586 0
    outer loop
      vertex -83.2825 6.71751 -22
      vertex -82.7226 6.10648 -17.2
      vertex -82.7226 6.10648 -22
    endloop
  endfacet
  facet normal -0.675611 0.737258 0
    outer loop
      vertex -96.1065 7.27742 -22
      vertex -96.7175 6.71751 -17.2
      vertex -96.1065 7.27742 -17.2
    endloop
  endfacet
  facet normal -0.675611 0.737258 0
    outer loop
      vertex -96.7175 6.71751 -17.2
      vertex -96.1065 7.27742 -22
      vertex -96.7175 6.71751 -22
    endloop
  endfacet
  facet normal -0.300714 0.953714 0
    outer loop
      vertex -92.4588 9.1763 -22
      vertex -93.2492 8.92708 -17.2
      vertex -92.4588 9.1763 -17.2
    endloop
  endfacet
  facet normal -0.300714 0.953714 0
    outer loop
      vertex -93.2492 8.92708 -17.2
      vertex -92.4588 9.1763 -22
      vertex -93.2492 8.92708 -22
    endloop
  endfacet
  facet normal 0.92386 0.38273 0
    outer loop
      vertex -81.0729 3.24919 -17.2
      vertex -81.3901 4.01487 -22
      vertex -81.3901 4.01487 -17.2
    endloop
  endfacet
  facet normal 0.92386 0.38273 0
    outer loop
      vertex -81.3901 4.01487 -22
      vertex -81.0729 3.24919 -17.2
      vertex -81.0729 3.24919 -22
    endloop
  endfacet
  facet normal 0.38268 0.923881 -0
    outer loop
      vertex -85.9851 8.60992 -22
      vertex -86.7508 8.92708 -17.2
      vertex -85.9851 8.60992 -17.2
    endloop
  endfacet
  facet normal 0.38268 0.923881 0
    outer loop
      vertex -86.7508 8.92708 -17.2
      vertex -85.9851 8.60992 -22
      vertex -86.7508 8.92708 -22
    endloop
  endfacet
  facet normal 0.608763 0.793352 -0
    outer loop
      vertex -83.8935 7.27742 -22
      vertex -84.551 7.78194 -17.2
      vertex -83.8935 7.27742 -17.2
    endloop
  endfacet
  facet normal 0.608763 0.793352 0
    outer loop
      vertex -84.551 7.78194 -17.2
      vertex -83.8935 7.27742 -22
      vertex -84.551 7.78194 -22
    endloop
  endfacet
  facet normal -0.92386 0.38273 0
    outer loop
      vertex -98.9271 3.24919 -22
      vertex -98.6099 4.01487 -17.2
      vertex -98.6099 4.01487 -22
    endloop
  endfacet
  facet normal -0.92386 0.38273 0
    outer loop
      vertex -98.6099 4.01487 -17.2
      vertex -98.9271 3.24919 -22
      vertex -98.9271 3.24919 -17.2
    endloop
  endfacet
  facet normal -0.130528 0.991445 0
    outer loop
      vertex -90.828 9.46385 -22
      vertex -91.6497 9.35567 -17.2
      vertex -90.828 9.46385 -17.2
    endloop
  endfacet
  facet normal -0.130528 0.991445 0
    outer loop
      vertex -91.6497 9.35567 -17.2
      vertex -90.828 9.46385 -22
      vertex -91.6497 9.35567 -22
    endloop
  endfacet
  facet normal 0.953722 -0.300689 0
    outer loop
      vertex -81.0729 -3.24919 -17.2
      vertex -80.8237 -2.45878 -22
      vertex -80.8237 -2.45878 -17.2
    endloop
  endfacet
  facet normal 0.953722 -0.300689 0
    outer loop
      vertex -80.8237 -2.45878 -22
      vertex -81.0729 -3.24919 -17.2
      vertex -81.0729 -3.24919 -22
    endloop
  endfacet
  facet normal 0 0 -1
    outer loop
      vertex -80.5361 -0.827979 -22
      vertex -80.5361 0.827979 -22
      vertex -80.5 0 -22
    endloop
  endfacet
  facet normal 0 0 -1
    outer loop
      vertex -80.6443 -1.64966 -22
      vertex -80.5361 0.827979 -22
      vertex -80.5361 -0.827979 -22
    endloop
  endfacet
  facet normal 0 0 -1
    outer loop
      vertex -80.6443 -1.64966 -22
      vertex -80.6443 1.64966 -22
      vertex -80.5361 0.827979 -22
    endloop
  endfacet
  facet normal 0 0 -1
    outer loop
      vertex -80.8237 -2.45878 -22
      vertex -80.6443 1.64966 -22
      vertex -80.6443 -1.64966 -22
    endloop
  endfacet
  facet normal 0 0 -1
    outer loop
      vertex -80.8237 -2.45878 -22
      vertex -80.8237 2.45878 -22
      vertex -80.6443 1.64966 -22
    endloop
  endfacet
  facet normal 0 0 -1
    outer loop
      vertex -81.0729 -3.24919 -22
      vertex -80.8237 2.45878 -22
      vertex -80.8237 -2.45878 -22
    endloop
  endfacet
  facet normal 0 0 -1
    outer loop
      vertex -81.0729 -3.24919 -22
      vertex -81.0729 3.24919 -22
      vertex -80.8237 2.45878 -22
    endloop
  endfacet
  facet normal 0 0 -1
    outer loop
      vertex -81.3901 -4.01487 -22
      vertex -81.0729 3.24919 -22
      vertex -81.0729 -3.24919 -22
    endloop
  endfacet
  facet normal 0 0 -1
    outer loop
      vertex -81.3901 -4.01487 -22
      vertex -81.3901 4.01487 -22
      vertex -81.0729 3.24919 -22
    endloop
  endfacet
  facet normal 0 0 -1
    outer loop
      vertex -81.7728 -4.75 -22
      vertex -81.3901 4.01487 -22
      vertex -81.3901 -4.01487 -22
    endloop
  endfacet
  facet normal 0 0 -1
    outer loop
      vertex -81.7728 -4.75 -22
      vertex -81.7728 4.75 -22
      vertex -81.3901 4.01487 -22
    endloop
  endfacet
  facet normal 0 0 -1
    outer loop
      vertex -82.2181 -5.44898 -22
      vertex -81.7728 4.75 -22
      vertex -81.7728 -4.75 -22
    endloop
  endfacet
  facet normal 0 0 -1
    outer loop
      vertex -82.2181 -5.44898 -22
      vertex -82.2181 5.44898 -22
      vertex -81.7728 4.75 -22
    endloop
  endfacet
  facet normal 0 0 -1
    outer loop
      vertex -82.7226 -6.10648 -22
      vertex -82.2181 5.44898 -22
      vertex -82.2181 -5.44898 -22
    endloop
  endfacet
  facet normal 0 0 -1
    outer loop
      vertex -82.7226 -6.10648 -22
      vertex -82.7226 6.10648 -22
      vertex -82.2181 5.44898 -22
    endloop
  endfacet
  facet normal 0 0 -1
    outer loop
      vertex -83.2825 -6.71751 -22
      vertex -82.7226 6.10648 -22
      vertex -82.7226 -6.10648 -22
    endloop
  endfacet
  facet normal 0 0 -1
    outer loop
      vertex -83.2825 -6.71751 -22
      vertex -83.2825 6.71751 -22
      vertex -82.7226 6.10648 -22
    endloop
  endfacet
  facet normal 0 0 -1
    outer loop
      vertex -83.8935 -7.27742 -22
      vertex -83.2825 6.71751 -22
      vertex -83.2825 -6.71751 -22
    endloop
  endfacet
  facet normal 0 0 -1
    outer loop
      vertex -83.8935 -7.27742 -22
      vertex -83.8935 7.27742 -22
      vertex -83.2825 6.71751 -22
    endloop
  endfacet
  facet normal 0 0 -1
    outer loop
      vertex -84.551 -7.78194 -22
      vertex -83.8935 7.27742 -22
      vertex -83.8935 -7.27742 -22
    endloop
  endfacet
  facet normal 0 0 -1
    outer loop
      vertex -84.551 -7.78194 -22
      vertex -84.551 7.78194 -22
      vertex -83.8935 7.27742 -22
    endloop
  endfacet
  facet normal 0 0 -1
    outer loop
      vertex -85.25 -8.22724 -22
      vertex -84.551 7.78194 -22
      vertex -84.551 -7.78194 -22
    endloop
  endfacet
  facet normal 0 0 -1
    outer loop
      vertex -85.25 -8.22724 -22
      vertex -85.25 8.22724 -22
      vertex -84.551 7.78194 -22
    endloop
  endfacet
  facet normal 0 0 -1
    outer loop
      vertex -85.9851 -8.60992 -22
      vertex -85.25 8.22724 -22
      vertex -85.25 -8.22724 -22
    endloop
  endfacet
  facet normal 0 0 -1
    outer loop
      vertex -85.9851 -8.60992 -22
      vertex -85.9851 8.60992 -22
      vertex -85.25 8.22724 -22
    endloop
  endfacet
  facet normal 0 0 -1
    outer loop
      vertex -86.7508 -8.92708 -22
      vertex -85.9851 8.60992 -22
      vertex -85.9851 -8.60992 -22
    endloop
  endfacet
  facet normal 0 0 -1
    outer loop
      vertex -86.7508 -8.92708 -22
      vertex -86.7508 8.92708 -22
      vertex -85.9851 8.60992 -22
    endloop
  endfacet
  facet normal 0 0 -1
    outer loop
      vertex -87.5412 -9.1763 -22
      vertex -86.7508 8.92708 -22
      vertex -86.7508 -8.92708 -22
    endloop
  endfacet
  facet normal 0 0 -1
    outer loop
      vertex -87.5412 -9.1763 -22
      vertex -87.5412 9.1763 -22
      vertex -86.7508 8.92708 -22
    endloop
  endfacet
  facet normal 0 0 -1
    outer loop
      vertex -88.3503 -9.35567 -22
      vertex -87.5412 9.1763 -22
      vertex -87.5412 -9.1763 -22
    endloop
  endfacet
  facet normal 0 0 -1
    outer loop
      vertex -88.3503 -9.35567 -22
      vertex -88.3503 9.35567 -22
      vertex -87.5412 9.1763 -22
    endloop
  endfacet
  facet normal 0 0 -1
    outer loop
      vertex -89.172 -9.46385 -22
      vertex -88.3503 9.35567 -22
      vertex -88.3503 -9.35567 -22
    endloop
  endfacet
  facet normal 0 0 -1
    outer loop
      vertex -89.172 -9.46385 -22
      vertex -89.172 9.46385 -22
      vertex -88.3503 9.35567 -22
    endloop
  endfacet
  facet normal 0 0 -1
    outer loop
      vertex -90 -9.5 -22
      vertex -89.172 9.46385 -22
      vertex -89.172 -9.46385 -22
    endloop
  endfacet
  facet normal 0 0 -1
    outer loop
      vertex -90 -9.5 -22
      vertex -90 9.5 -22
      vertex -89.172 9.46385 -22
    endloop
  endfacet
  facet normal 0 0 -1
    outer loop
      vertex -90.828 -9.46385 -22
      vertex -90 9.5 -22
      vertex -90 -9.5 -22
    endloop
  endfacet
  facet normal 0 0 -1
    outer loop
      vertex -90.828 -9.46385 -22
      vertex -90.828 9.46385 -22
      vertex -90 9.5 -22
    endloop
  endfacet
  facet normal 0 0 -1
    outer loop
      vertex -91.6497 -9.35567 -22
      vertex -90.828 9.46385 -22
      vertex -90.828 -9.46385 -22
    endloop
  endfacet
  facet normal 0 0 -1
    outer loop
      vertex -91.6497 -9.35567 -22
      vertex -91.6497 9.35567 -22
      vertex -90.828 9.46385 -22
    endloop
  endfacet
  facet normal 0 0 -1
    outer loop
      vertex -92.4588 -9.1763 -22
      vertex -91.6497 9.35567 -22
      vertex -91.6497 -9.35567 -22
    endloop
  endfacet
  facet normal 0 0 -1
    outer loop
      vertex -92.4588 -9.1763 -22
      vertex -92.4588 9.1763 -22
      vertex -91.6497 9.35567 -22
    endloop
  endfacet
  facet normal 0 0 -1
    outer loop
      vertex -93.2492 -8.92708 -22
      vertex -92.4588 9.1763 -22
      vertex -92.4588 -9.1763 -22
    endloop
  endfacet
  facet normal 0 0 -1
    outer loop
      vertex -93.2492 -8.92708 -22
      vertex -93.2492 8.92708 -22
      vertex -92.4588 9.1763 -22
    endloop
  endfacet
  facet normal 0 0 -1
    outer loop
      vertex -94.0149 -8.60992 -22
      vertex -93.2492 8.92708 -22
      vertex -93.2492 -8.92708 -22
    endloop
  endfacet
  facet normal 0 0 -1
    outer loop
      vertex -94.0149 -8.60992 -22
      vertex -94.0149 8.60992 -22
      vertex -93.2492 8.92708 -22
    endloop
  endfacet
  facet normal 0 0 -1
    outer loop
      vertex -94.75 -8.22724 -22
      vertex -94.0149 8.60992 -22
      vertex -94.0149 -8.60992 -22
    endloop
  endfacet
  facet normal 0 0 -1
    outer loop
      vertex -94.75 -8.22724 -22
      vertex -94.75 8.22724 -22
      vertex -94.0149 8.60992 -22
    endloop
  endfacet
  facet normal 0 0 -1
    outer loop
      vertex -95.449 -7.78194 -22
      vertex -94.75 8.22724 -22
      vertex -94.75 -8.22724 -22
    endloop
  endfacet
  facet normal 0 0 -1
    outer loop
      vertex -95.449 -7.78194 -22
      vertex -95.449 7.78194 -22
      vertex -94.75 8.22724 -22
    endloop
  endfacet
  facet normal 0 0 -1
    outer loop
      vertex -96.1065 -7.27742 -22
      vertex -95.449 7.78194 -22
      vertex -95.449 -7.78194 -22
    endloop
  endfacet
  facet normal 0 0 -1
    outer loop
      vertex -96.1065 -7.27742 -22
      vertex -96.1065 7.27742 -22
      vertex -95.449 7.78194 -22
    endloop
  endfacet
  facet normal 0 0 -1
    outer loop
      vertex -96.7175 -6.71751 -22
      vertex -96.1065 7.27742 -22
      vertex -96.1065 -7.27742 -22
    endloop
  endfacet
  facet normal 0 0 -1
    outer loop
      vertex -96.7175 -6.71751 -22
      vertex -96.7175 6.71751 -22
      vertex -96.1065 7.27742 -22
    endloop
  endfacet
  facet normal 0 0 -1
    outer loop
      vertex -97.2774 -6.10648 -22
      vertex -96.7175 6.71751 -22
      vertex -96.7175 -6.71751 -22
    endloop
  endfacet
  facet normal 0 0 -1
    outer loop
      vertex -97.2774 -6.10648 -22
      vertex -97.2774 6.10648 -22
      vertex -96.7175 6.71751 -22
    endloop
  endfacet
  facet normal 0 0 -1
    outer loop
      vertex -97.7819 -5.44898 -22
      vertex -97.2774 6.10648 -22
      vertex -97.2774 -6.10648 -22
    endloop
  endfacet
  facet normal 0 0 -1
    outer loop
      vertex -97.7819 -5.44898 -22
      vertex -97.7819 5.44898 -22
      vertex -97.2774 6.10648 -22
    endloop
  endfacet
  facet normal 0 0 -1
    outer loop
      vertex -98.2272 -4.75 -22
      vertex -97.7819 5.44898 -22
      vertex -97.7819 -5.44898 -22
    endloop
  endfacet
  facet normal 0 0 -1
    outer loop
      vertex -98.2272 -4.75 -22
      vertex -98.2272 4.75 -22
      vertex -97.7819 5.44898 -22
    endloop
  endfacet
  facet normal 0 0 -1
    outer loop
      vertex -98.6099 -4.01487 -22
      vertex -98.2272 4.75 -22
      vertex -98.2272 -4.75 -22
    endloop
  endfacet
  facet normal 0 0 -1
    outer loop
      vertex -98.6099 -4.01487 -22
      vertex -98.6099 4.01487 -22
      vertex -98.2272 4.75 -22
    endloop
  endfacet
  facet normal 0 0 -1
    outer loop
      vertex -98.9271 -3.24919 -22
      vertex -98.6099 4.01487 -22
      vertex -98.6099 -4.01487 -22
    endloop
  endfacet
  facet normal 0 0 -1
    outer loop
      vertex -98.9271 -3.24919 -22
      vertex -98.9271 3.24919 -22
      vertex -98.6099 4.01487 -22
    endloop
  endfacet
  facet normal 0 0 -1
    outer loop
      vertex -99.1763 -2.45878 -22
      vertex -98.9271 3.24919 -22
      vertex -98.9271 -3.24919 -22
    endloop
  endfacet
  facet normal 0 0 -1
    outer loop
      vertex -99.1763 -2.45878 -22
      vertex -99.1763 2.45878 -22
      vertex -98.9271 3.24919 -22
    endloop
  endfacet
  facet normal 0 0 -1
    outer loop
      vertex -99.3557 -1.64966 -22
      vertex -99.1763 2.45878 -22
      vertex -99.1763 -2.45878 -22
    endloop
  endfacet
  facet normal 0 0 -1
    outer loop
      vertex -99.3557 -1.64966 -22
      vertex -99.3557 1.64966 -22
      vertex -99.1763 2.45878 -22
    endloop
  endfacet
  facet normal 0 0 -1
    outer loop
      vertex -99.4639 -0.827979 -22
      vertex -99.3557 1.64966 -22
      vertex -99.3557 -1.64966 -22
    endloop
  endfacet
  facet normal 0 0 -1
    outer loop
      vertex -99.4639 -0.827979 -22
      vertex -99.4639 0.827979 -22
      vertex -99.3557 1.64966 -22
    endloop
  endfacet
  facet normal 0 -0 -1
    outer loop
      vertex -99.4639 0.827979 -22
      vertex -99.4639 -0.827979 -22
      vertex -99.5 0 -22
    endloop
  endfacet
  facet normal 0.97629 0.216465 0
    outer loop
      vertex -80.6443 1.64966 -17.2
      vertex -80.8237 2.45878 -22
      vertex -80.8237 2.45878 -17.2
    endloop
  endfacet
  facet normal 0.97629 0.216465 0
    outer loop
      vertex -80.8237 2.45878 -22
      vertex -80.6443 1.64966 -17.2
      vertex -80.6443 1.64966 -22
    endloop
  endfacet
  facet normal 0.991441 0.130554 0
    outer loop
      vertex -80.5361 0.827979 -17.2
      vertex -80.6443 1.64966 -22
      vertex -80.6443 1.64966 -17.2
    endloop
  endfacet
  facet normal 0.991441 0.130554 0
    outer loop
      vertex -80.6443 1.64966 -22
      vertex -80.5361 0.827979 -17.2
      vertex -80.5361 0.827979 -22
    endloop
  endfacet
  facet normal 0.953722 0.300689 0
    outer loop
      vertex -80.8237 2.45878 -17.2
      vertex -81.0729 3.24919 -22
      vertex -81.0729 3.24919 -17.2
    endloop
  endfacet
  facet normal 0.953722 0.300689 0
    outer loop
      vertex -81.0729 3.24919 -22
      vertex -80.8237 2.45878 -17.2
      vertex -80.8237 2.45878 -22
    endloop
  endfacet
  facet normal 0.843391 0.5373 0
    outer loop
      vertex -81.7728 4.75 -17.2
      vertex -82.2181 5.44898 -22
      vertex -82.2181 5.44898 -17.2
    endloop
  endfacet
  facet normal 0.843391 0.5373 0
    outer loop
      vertex -82.2181 5.44898 -22
      vertex -81.7728 4.75 -17.2
      vertex -81.7728 4.75 -22
    endloop
  endfacet
  facet normal 0.793364 0.608748 0
    outer loop
      vertex -82.2181 5.44898 -17.2
      vertex -82.7226 6.10648 -22
      vertex -82.7226 6.10648 -17.2
    endloop
  endfacet
  facet normal 0.793364 0.608748 0
    outer loop
      vertex -82.7226 6.10648 -22
      vertex -82.2181 5.44898 -17.2
      vertex -82.2181 5.44898 -22
    endloop
  endfacet
  facet normal 0.887003 0.461763 0
    outer loop
      vertex -81.3901 4.01487 -17.2
      vertex -81.7728 4.75 -22
      vertex -81.7728 4.75 -17.2
    endloop
  endfacet
  facet normal 0.887003 0.461763 0
    outer loop
      vertex -81.7728 4.75 -22
      vertex -81.3901 4.01487 -17.2
      vertex -81.3901 4.01487 -22
    endloop
  endfacet
  facet normal 0.216436 0.976297 -0
    outer loop
      vertex -87.5412 9.1763 -22
      vertex -88.3503 9.35567 -17.2
      vertex -87.5412 9.1763 -17.2
    endloop
  endfacet
  facet normal 0.216436 0.976297 0
    outer loop
      vertex -88.3503 9.35567 -17.2
      vertex -87.5412 9.1763 -22
      vertex -88.3503 9.35567 -22
    endloop
  endfacet
  facet normal 0.300714 0.953714 -0
    outer loop
      vertex -86.7508 8.92708 -22
      vertex -87.5412 9.1763 -17.2
      vertex -86.7508 8.92708 -17.2
    endloop
  endfacet
  facet normal 0.300714 0.953714 0
    outer loop
      vertex -87.5412 9.1763 -17.2
      vertex -86.7508 8.92708 -22
      vertex -87.5412 9.1763 -22
    endloop
  endfacet
  facet normal 0.130528 0.991445 -0
    outer loop
      vertex -88.3503 9.35567 -22
      vertex -89.172 9.46385 -17.2
      vertex -88.3503 9.35567 -17.2
    endloop
  endfacet
  facet normal 0.130528 0.991445 0
    outer loop
      vertex -89.172 9.46385 -17.2
      vertex -88.3503 9.35567 -22
      vertex -89.172 9.46385 -22
    endloop
  endfacet
  facet normal 0.675611 0.737258 -0
    outer loop
      vertex -83.2825 6.71751 -22
      vertex -83.8935 7.27742 -17.2
      vertex -83.2825 6.71751 -17.2
    endloop
  endfacet
  facet normal 0.675611 0.737258 0
    outer loop
      vertex -83.8935 7.27742 -17.2
      vertex -83.2825 6.71751 -22
      vertex -83.8935 7.27742 -22
    endloop
  endfacet
  facet normal -0.97629 0.216465 0
    outer loop
      vertex -99.3557 1.64966 -22
      vertex -99.1763 2.45878 -17.2
      vertex -99.1763 2.45878 -22
    endloop
  endfacet
  facet normal -0.97629 0.216465 0
    outer loop
      vertex -99.1763 2.45878 -17.2
      vertex -99.3557 1.64966 -22
      vertex -99.3557 1.64966 -17.2
    endloop
  endfacet
  facet normal -0.793364 0.608748 0
    outer loop
      vertex -97.7819 5.44898 -22
      vertex -97.2774 6.10648 -17.2
      vertex -97.2774 6.10648 -22
    endloop
  endfacet
  facet normal -0.793364 0.608748 0
    outer loop
      vertex -97.2774 6.10648 -17.2
      vertex -97.7819 5.44898 -22
      vertex -97.7819 5.44898 -17.2
    endloop
  endfacet
  facet normal -0.737281 0.675586 0
    outer loop
      vertex -97.2774 6.10648 -22
      vertex -96.7175 6.71751 -17.2
      vertex -96.7175 6.71751 -22
    endloop
  endfacet
  facet normal -0.737281 0.675586 0
    outer loop
      vertex -96.7175 6.71751 -17.2
      vertex -97.2774 6.10648 -22
      vertex -97.2774 6.10648 -17.2
    endloop
  endfacet
  facet normal -0.843391 0.5373 0
    outer loop
      vertex -98.2272 4.75 -22
      vertex -97.7819 5.44898 -17.2
      vertex -97.7819 5.44898 -22
    endloop
  endfacet
  facet normal -0.843391 0.5373 0
    outer loop
      vertex -97.7819 5.44898 -17.2
      vertex -98.2272 4.75 -22
      vertex -98.2272 4.75 -17.2
    endloop
  endfacet
  facet normal -0.953722 0.300689 0
    outer loop
      vertex -99.1763 2.45878 -22
      vertex -98.9271 3.24919 -17.2
      vertex -98.9271 3.24919 -22
    endloop
  endfacet
  facet normal -0.953722 0.300689 0
    outer loop
      vertex -98.9271 3.24919 -17.2
      vertex -99.1763 2.45878 -22
      vertex -99.1763 2.45878 -17.2
    endloop
  endfacet
  facet normal -0.991441 0.130554 0
    outer loop
      vertex -99.4639 0.827979 -22
      vertex -99.3557 1.64966 -17.2
      vertex -99.3557 1.64966 -22
    endloop
  endfacet
  facet normal -0.991441 0.130554 0
    outer loop
      vertex -99.3557 1.64966 -17.2
      vertex -99.4639 0.827979 -22
      vertex -99.4639 0.827979 -17.2
    endloop
  endfacet
  facet normal 0 0 1
    outer loop
      vertex -82.7 0 -17.2
      vertex -80.5 0 -17.2
      vertex -80.5361 0.827979 -17.2
    endloop
  endfacet
  facet normal 0 0 1
    outer loop
      vertex -82.7278 0.636236 -17.2
      vertex -80.5361 0.827979 -17.2
      vertex -80.6443 1.64966 -17.2
    endloop
  endfacet
  facet normal 0 0 1
    outer loop
      vertex -80.5 0 -17.2
      vertex -82.7 0 -17.2
      vertex -80.5361 -0.827979 -17.2
    endloop
  endfacet
  facet normal 0 0 1
    outer loop
      vertex -82.8109 1.26763 -17.2
      vertex -80.6443 1.64966 -17.2
      vertex -80.8237 2.45878 -17.2
    endloop
  endfacet
  facet normal -0 0 1
    outer loop
      vertex -82.7278 -0.636236 -17.2
      vertex -80.5361 -0.827979 -17.2
      vertex -82.7 0 -17.2
    endloop
  endfacet
  facet normal 0 0 1
    outer loop
      vertex -82.9487 1.88938 -17.2
      vertex -80.8237 2.45878 -17.2
      vertex -81.0729 3.24919 -17.2
    endloop
  endfacet
  facet normal 0 0 1
    outer loop
      vertex -80.5361 -0.827979 -17.2
      vertex -82.7278 -0.636236 -17.2
      vertex -80.6443 -1.64966 -17.2
    endloop
  endfacet
  facet normal 0 0 1
    outer loop
      vertex -83.1402 2.49675 -17.2
      vertex -81.0729 3.24919 -17.2
      vertex -81.3901 4.01487 -17.2
    endloop
  endfacet
  facet normal -0 0 1
    outer loop
      vertex -82.8109 -1.26763 -17.2
      vertex -80.6443 -1.64966 -17.2
      vertex -82.7278 -0.636236 -17.2
    endloop
  endfacet
  facet normal 0 0 1
    outer loop
      vertex -83.384 3.08511 -17.2
      vertex -81.3901 4.01487 -17.2
      vertex -81.7728 4.75 -17.2
    endloop
  endfacet
  facet normal 0 0 1
    outer loop
      vertex -80.6443 -1.64966 -17.2
      vertex -82.8109 -1.26763 -17.2
      vertex -80.8237 -2.45878 -17.2
    endloop
  endfacet
  facet normal 0 0 1
    outer loop
      vertex -83.678 3.65 -17.2
      vertex -81.7728 4.75 -17.2
      vertex -82.2181 5.44898 -17.2
    endloop
  endfacet
  facet normal -0 0 1
    outer loop
      vertex -82.9487 -1.88938 -17.2
      vertex -80.8237 -2.45878 -17.2
      vertex -82.8109 -1.26763 -17.2
    endloop
  endfacet
  facet normal 0 0 1
    outer loop
      vertex -80.8237 -2.45878 -17.2
      vertex -82.9487 -1.88938 -17.2
      vertex -81.0729 -3.24919 -17.2
    endloop
  endfacet
  facet normal 0 0 1
    outer loop
      vertex -84.0202 4.18711 -17.2
      vertex -82.2181 5.44898 -17.2
      vertex -82.7226 6.10648 -17.2
    endloop
  endfacet
  facet normal 0 0 1
    outer loop
      vertex -80.5361 0.827979 -17.2
      vertex -82.7278 0.636236 -17.2
      vertex -82.7 0 -17.2
    endloop
  endfacet
  facet normal 0 0 1
    outer loop
      vertex -80.6443 1.64966 -17.2
      vertex -82.8109 1.26763 -17.2
      vertex -82.7278 0.636236 -17.2
    endloop
  endfacet
  facet normal 0 0 1
    outer loop
      vertex -80.8237 2.45878 -17.2
      vertex -82.9487 1.88938 -17.2
      vertex -82.8109 1.26763 -17.2
    endloop
  endfacet
  facet normal 0 0 1
    outer loop
      vertex -81.0729 3.24919 -17.2
      vertex -83.1402 2.49675 -17.2
      vertex -82.9487 1.88938 -17.2
    endloop
  endfacet
  facet normal 0 0 1
    outer loop
      vertex -84.4079 4.69235 -17.2
      vertex -82.7226 6.10648 -17.2
      vertex -83.2825 6.71751 -17.2
    endloop
  endfacet
  facet normal 0 0 1
    outer loop
      vertex -81.3901 4.01487 -17.2
      vertex -83.384 3.08511 -17.2
      vertex -83.1402 2.49675 -17.2
    endloop
  endfacet
  facet normal 0 0 1
    outer loop
      vertex -81.7728 4.75 -17.2
      vertex -83.678 3.65 -17.2
      vertex -83.384 3.08511 -17.2
    endloop
  endfacet
  facet normal 0 0 1
    outer loop
      vertex -84.8381 5.16188 -17.2
      vertex -83.2825 6.71751 -17.2
      vertex -83.8935 7.27742 -17.2
    endloop
  endfacet
  facet normal 0 0 1
    outer loop
      vertex -82.2181 5.44898 -17.2
      vertex -84.0202 4.18711 -17.2
      vertex -83.678 3.65 -17.2
    endloop
  endfacet
  facet normal 0 0 1
    outer loop
      vertex -82.7226 6.10648 -17.2
      vertex -84.4079 4.69235 -17.2
      vertex -84.0202 4.18711 -17.2
    endloop
  endfacet
  facet normal 0 0 1
    outer loop
      vertex -85.3076 5.59212 -17.2
      vertex -83.8935 7.27742 -17.2
      vertex -84.551 7.78194 -17.2
    endloop
  endfacet
  facet normal 0 0 1
    outer loop
      vertex -83.2825 6.71751 -17.2
      vertex -84.8381 5.16188 -17.2
      vertex -84.4079 4.69235 -17.2
    endloop
  endfacet
  facet normal 0 0 1
    outer loop
      vertex -85.8129 5.97981 -17.2
      vertex -84.551 7.78194 -17.2
      vertex -85.25 8.22724 -17.2
    endloop
  endfacet
  facet normal 0 0 1
    outer loop
      vertex -83.8935 7.27742 -17.2
      vertex -85.3076 5.59212 -17.2
      vertex -84.8381 5.16188 -17.2
    endloop
  endfacet
  facet normal 0 0 1
    outer loop
      vertex -84.551 7.78194 -17.2
      vertex -85.8129 5.97981 -17.2
      vertex -85.3076 5.59212 -17.2
    endloop
  endfacet
  facet normal 0 0 1
    outer loop
      vertex -86.35 6.32199 -17.2
      vertex -85.25 8.22724 -17.2
      vertex -85.9851 8.60992 -17.2
    endloop
  endfacet
  facet normal 0 0 1
    outer loop
      vertex -85.25 8.22724 -17.2
      vertex -86.35 6.32199 -17.2
      vertex -85.8129 5.97981 -17.2
    endloop
  endfacet
  facet normal 0 0 1
    outer loop
      vertex -86.9149 6.61605 -17.2
      vertex -85.9851 8.60992 -17.2
      vertex -86.7508 8.92708 -17.2
    endloop
  endfacet
  facet normal 0 0 1
    outer loop
      vertex -85.9851 8.60992 -17.2
      vertex -86.9149 6.61605 -17.2
      vertex -86.35 6.32199 -17.2
    endloop
  endfacet
  facet normal 0 0 1
    outer loop
      vertex -86.7508 8.92708 -17.2
      vertex -87.5033 6.85976 -17.2
      vertex -86.9149 6.61605 -17.2
    endloop
  endfacet
  facet normal 0 0 1
    outer loop
      vertex -87.5412 9.1763 -17.2
      vertex -87.5033 6.85976 -17.2
      vertex -86.7508 8.92708 -17.2
    endloop
  endfacet
  facet normal 0 0 1
    outer loop
      vertex -87.5412 9.1763 -17.2
      vertex -88.1106 7.05126 -17.2
      vertex -87.5033 6.85976 -17.2
    endloop
  endfacet
  facet normal 0 0 1
    outer loop
      vertex -88.3503 9.35567 -17.2
      vertex -88.1106 7.05126 -17.2
      vertex -87.5412 9.1763 -17.2
    endloop
  endfacet
  facet normal 0 0 1
    outer loop
      vertex -88.3503 9.35567 -17.2
      vertex -88.7324 7.1891 -17.2
      vertex -88.1106 7.05126 -17.2
    endloop
  endfacet
  facet normal 0 0 1
    outer loop
      vertex -89.172 9.46385 -17.2
      vertex -88.7324 7.1891 -17.2
      vertex -88.3503 9.35567 -17.2
    endloop
  endfacet
  facet normal 0 0 1
    outer loop
      vertex -89.172 9.46385 -17.2
      vertex -89.3638 7.27222 -17.2
      vertex -88.7324 7.1891 -17.2
    endloop
  endfacet
  facet normal 0 0 1
    outer loop
      vertex -90 9.5 -17.2
      vertex -89.3638 7.27222 -17.2
      vertex -89.172 9.46385 -17.2
    endloop
  endfacet
  facet normal 0 0 1
    outer loop
      vertex -90 9.5 -17.2
      vertex -90 7.3 -17.2
      vertex -89.3638 7.27222 -17.2
    endloop
  endfacet
  facet normal 0 0 1
    outer loop
      vertex -90 9.5 -17.2
      vertex -90.6362 7.27222 -17.2
      vertex -90 7.3 -17.2
    endloop
  endfacet
  facet normal -0 0 1
    outer loop
      vertex -90.828 9.46385 -17.2
      vertex -90.6362 7.27222 -17.2
      vertex -90 9.5 -17.2
    endloop
  endfacet
  facet normal 0 0 1
    outer loop
      vertex -90.828 9.46385 -17.2
      vertex -91.2676 7.1891 -17.2
      vertex -90.6362 7.27222 -17.2
    endloop
  endfacet
  facet normal -0 0 1
    outer loop
      vertex -91.6497 9.35567 -17.2
      vertex -91.2676 7.1891 -17.2
      vertex -90.828 9.46385 -17.2
    endloop
  endfacet
  facet normal 0 0 1
    outer loop
      vertex -91.6497 9.35567 -17.2
      vertex -91.8894 7.05126 -17.2
      vertex -91.2676 7.1891 -17.2
    endloop
  endfacet
  facet normal -0 0 1
    outer loop
      vertex -92.4588 9.1763 -17.2
      vertex -91.8894 7.05126 -17.2
      vertex -91.6497 9.35567 -17.2
    endloop
  endfacet
  facet normal 0 0 1
    outer loop
      vertex -92.4588 9.1763 -17.2
      vertex -92.4967 6.85976 -17.2
      vertex -91.8894 7.05126 -17.2
    endloop
  endfacet
  facet normal -0 0 1
    outer loop
      vertex -93.2492 8.92708 -17.2
      vertex -92.4967 6.85976 -17.2
      vertex -92.4588 9.1763 -17.2
    endloop
  endfacet
  facet normal 0 0 1
    outer loop
      vertex -92.4967 6.85976 -17.2
      vertex -93.2492 8.92708 -17.2
      vertex -93.0851 6.61605 -17.2
    endloop
  endfacet
  facet normal -0 0 1
    outer loop
      vertex -94.0149 8.60992 -17.2
      vertex -93.0851 6.61605 -17.2
      vertex -93.2492 8.92708 -17.2
    endloop
  endfacet
  facet normal 0 0 1
    outer loop
      vertex -93.0851 6.61605 -17.2
      vertex -94.0149 8.60992 -17.2
      vertex -93.65 6.32199 -17.2
    endloop
  endfacet
  facet normal -0 0 1
    outer loop
      vertex -94.75 8.22724 -17.2
      vertex -93.65 6.32199 -17.2
      vertex -94.0149 8.60992 -17.2
    endloop
  endfacet
  facet normal 0 0 1
    outer loop
      vertex -93.65 6.32199 -17.2
      vertex -94.75 8.22724 -17.2
      vertex -94.1871 5.97981 -17.2
    endloop
  endfacet
  facet normal -0 0 1
    outer loop
      vertex -95.449 7.78194 -17.2
      vertex -94.1871 5.97981 -17.2
      vertex -94.75 8.22724 -17.2
    endloop
  endfacet
  facet normal 0 0 1
    outer loop
      vertex -94.1871 5.97981 -17.2
      vertex -95.449 7.78194 -17.2
      vertex -94.6924 5.59212 -17.2
    endloop
  endfacet
  facet normal -0 0 1
    outer loop
      vertex -96.1065 7.27742 -17.2
      vertex -94.6924 5.59212 -17.2
      vertex -95.449 7.78194 -17.2
    endloop
  endfacet
  facet normal 0 0 1
    outer loop
      vertex -94.6924 5.59212 -17.2
      vertex -96.1065 7.27742 -17.2
      vertex -95.1619 5.16188 -17.2
    endloop
  endfacet
  facet normal -0 0 1
    outer loop
      vertex -96.7175 6.71751 -17.2
      vertex -95.1619 5.16188 -17.2
      vertex -96.1065 7.27742 -17.2
    endloop
  endfacet
  facet normal 0 0 1
    outer loop
      vertex -95.1619 5.16188 -17.2
      vertex -96.7175 6.71751 -17.2
      vertex -95.5921 4.69235 -17.2
    endloop
  endfacet
  facet normal -0 0 1
    outer loop
      vertex -97.2774 6.10648 -17.2
      vertex -95.5921 4.69235 -17.2
      vertex -96.7175 6.71751 -17.2
    endloop
  endfacet
  facet normal 0 0 1
    outer loop
      vertex -95.5921 4.69235 -17.2
      vertex -97.2774 6.10648 -17.2
      vertex -95.9798 4.18711 -17.2
    endloop
  endfacet
  facet normal -0 0 1
    outer loop
      vertex -97.7819 5.44898 -17.2
      vertex -95.9798 4.18711 -17.2
      vertex -97.2774 6.10648 -17.2
    endloop
  endfacet
  facet normal 0 0 1
    outer loop
      vertex -95.9798 4.18711 -17.2
      vertex -97.7819 5.44898 -17.2
      vertex -96.322 3.65 -17.2
    endloop
  endfacet
  facet normal -0 0 1
    outer loop
      vertex -98.2272 4.75 -17.2
      vertex -96.322 3.65 -17.2
      vertex -97.7819 5.44898 -17.2
    endloop
  endfacet
  facet normal 0 0 1
    outer loop
      vertex -96.322 3.65 -17.2
      vertex -98.2272 4.75 -17.2
      vertex -96.616 3.08511 -17.2
    endloop
  endfacet
  facet normal -0 0 1
    outer loop
      vertex -98.6099 4.01487 -17.2
      vertex -96.616 3.08511 -17.2
      vertex -98.2272 4.75 -17.2
    endloop
  endfacet
  facet normal 0 0 1
    outer loop
      vertex -96.616 3.08511 -17.2
      vertex -98.6099 4.01487 -17.2
      vertex -96.8598 2.49675 -17.2
    endloop
  endfacet
  facet normal -0 0 1
    outer loop
      vertex -98.9271 3.24919 -17.2
      vertex -96.8598 2.49675 -17.2
      vertex -98.6099 4.01487 -17.2
    endloop
  endfacet
  facet normal 0 0 1
    outer loop
      vertex -96.8598 2.49675 -17.2
      vertex -98.9271 3.24919 -17.2
      vertex -97.0513 1.88938 -17.2
    endloop
  endfacet
  facet normal -0 0 1
    outer loop
      vertex -83.1402 -2.49675 -17.2
      vertex -81.0729 -3.24919 -17.2
      vertex -82.9487 -1.88938 -17.2
    endloop
  endfacet
  facet normal 0 0 1
    outer loop
      vertex -81.0729 -3.24919 -17.2
      vertex -83.1402 -2.49675 -17.2
      vertex -81.3901 -4.01487 -17.2
    endloop
  endfacet
  facet normal -0 0 1
    outer loop
      vertex -83.384 -3.08511 -17.2
      vertex -81.3901 -4.01487 -17.2
      vertex -83.1402 -2.49675 -17.2
    endloop
  endfacet
  facet normal 0 0 1
    outer loop
      vertex -81.3901 -4.01487 -17.2
      vertex -83.384 -3.08511 -17.2
      vertex -81.7728 -4.75 -17.2
    endloop
  endfacet
  facet normal -0 0 1
    outer loop
      vertex -83.678 -3.65 -17.2
      vertex -81.7728 -4.75 -17.2
      vertex -83.384 -3.08511 -17.2
    endloop
  endfacet
  facet normal 0 0 1
    outer loop
      vertex -81.7728 -4.75 -17.2
      vertex -83.678 -3.65 -17.2
      vertex -82.2181 -5.44898 -17.2
    endloop
  endfacet
  facet normal -0 0 1
    outer loop
      vertex -84.0202 -4.18711 -17.2
      vertex -82.2181 -5.44898 -17.2
      vertex -83.678 -3.65 -17.2
    endloop
  endfacet
  facet normal 0 0 1
    outer loop
      vertex -82.2181 -5.44898 -17.2
      vertex -84.0202 -4.18711 -17.2
      vertex -82.7226 -6.10648 -17.2
    endloop
  endfacet
  facet normal -0 0 1
    outer loop
      vertex -84.4079 -4.69235 -17.2
      vertex -82.7226 -6.10648 -17.2
      vertex -84.0202 -4.18711 -17.2
    endloop
  endfacet
  facet normal 0 0 1
    outer loop
      vertex -82.7226 -6.10648 -17.2
      vertex -84.4079 -4.69235 -17.2
      vertex -83.2825 -6.71751 -17.2
    endloop
  endfacet
  facet normal -0 0 1
    outer loop
      vertex -84.8381 -5.16188 -17.2
      vertex -83.2825 -6.71751 -17.2
      vertex -84.4079 -4.69235 -17.2
    endloop
  endfacet
  facet normal 0 0 1
    outer loop
      vertex -83.2825 -6.71751 -17.2
      vertex -84.8381 -5.16188 -17.2
      vertex -83.8935 -7.27742 -17.2
    endloop
  endfacet
  facet normal -0 0 1
    outer loop
      vertex -85.3076 -5.59212 -17.2
      vertex -83.8935 -7.27742 -17.2
      vertex -84.8381 -5.16188 -17.2
    endloop
  endfacet
  facet normal 0 0 1
    outer loop
      vertex -83.8935 -7.27742 -17.2
      vertex -85.3076 -5.59212 -17.2
      vertex -84.551 -7.78194 -17.2
    endloop
  endfacet
  facet normal -0 0 1
    outer loop
      vertex -85.8129 -5.97981 -17.2
      vertex -84.551 -7.78194 -17.2
      vertex -85.3076 -5.59212 -17.2
    endloop
  endfacet
  facet normal 0 0 1
    outer loop
      vertex -84.551 -7.78194 -17.2
      vertex -85.8129 -5.97981 -17.2
      vertex -85.25 -8.22724 -17.2
    endloop
  endfacet
  facet normal -0 0 1
    outer loop
      vertex -86.35 -6.32199 -17.2
      vertex -85.25 -8.22724 -17.2
      vertex -85.8129 -5.97981 -17.2
    endloop
  endfacet
  facet normal 0 0 1
    outer loop
      vertex -85.25 -8.22724 -17.2
      vertex -86.35 -6.32199 -17.2
      vertex -85.9851 -8.60992 -17.2
    endloop
  endfacet
  facet normal -0 0 1
    outer loop
      vertex -86.9149 -6.61605 -17.2
      vertex -85.9851 -8.60992 -17.2
      vertex -86.35 -6.32199 -17.2
    endloop
  endfacet
  facet normal 0 0 1
    outer loop
      vertex -85.9851 -8.60992 -17.2
      vertex -86.9149 -6.61605 -17.2
      vertex -86.7508 -8.92708 -17.2
    endloop
  endfacet
  facet normal -0 0 1
    outer loop
      vertex -87.5033 -6.85976 -17.2
      vertex -86.7508 -8.92708 -17.2
      vertex -86.9149 -6.61605 -17.2
    endloop
  endfacet
  facet normal 0 0 1
    outer loop
      vertex -87.5033 -6.85976 -17.2
      vertex -87.5412 -9.1763 -17.2
      vertex -86.7508 -8.92708 -17.2
    endloop
  endfacet
  facet normal -0 0 1
    outer loop
      vertex -88.1106 -7.05126 -17.2
      vertex -87.5412 -9.1763 -17.2
      vertex -87.5033 -6.85976 -17.2
    endloop
  endfacet
  facet normal 0 0 1
    outer loop
      vertex -88.1106 -7.05126 -17.2
      vertex -88.3503 -9.35567 -17.2
      vertex -87.5412 -9.1763 -17.2
    endloop
  endfacet
  facet normal -0 0 1
    outer loop
      vertex -88.7324 -7.1891 -17.2
      vertex -88.3503 -9.35567 -17.2
      vertex -88.1106 -7.05126 -17.2
    endloop
  endfacet
  facet normal 0 0 1
    outer loop
      vertex -88.7324 -7.1891 -17.2
      vertex -89.172 -9.46385 -17.2
      vertex -88.3503 -9.35567 -17.2
    endloop
  endfacet
  facet normal -0 0 1
    outer loop
      vertex -89.3638 -7.27222 -17.2
      vertex -89.172 -9.46385 -17.2
      vertex -88.7324 -7.1891 -17.2
    endloop
  endfacet
  facet normal -0 0 1
    outer loop
      vertex -90 -7.3 -17.2
      vertex -89.172 -9.46385 -17.2
      vertex -89.3638 -7.27222 -17.2
    endloop
  endfacet
  facet normal 0 0 1
    outer loop
      vertex -90 -7.3 -17.2
      vertex -90 -9.5 -17.2
      vertex -89.172 -9.46385 -17.2
    endloop
  endfacet
  facet normal 0 0 1
    outer loop
      vertex -90.6362 -7.27222 -17.2
      vertex -90 -9.5 -17.2
      vertex -90 -7.3 -17.2
    endloop
  endfacet
  facet normal 0 0 1
    outer loop
      vertex -90.6362 -7.27222 -17.2
      vertex -90.828 -9.46385 -17.2
      vertex -90 -9.5 -17.2
    endloop
  endfacet
  facet normal 0 0 1
    outer loop
      vertex -91.2676 -7.1891 -17.2
      vertex -90.828 -9.46385 -17.2
      vertex -90.6362 -7.27222 -17.2
    endloop
  endfacet
  facet normal 0 0 1
    outer loop
      vertex -91.2676 -7.1891 -17.2
      vertex -91.6497 -9.35567 -17.2
      vertex -90.828 -9.46385 -17.2
    endloop
  endfacet
  facet normal 0 0 1
    outer loop
      vertex -91.8894 -7.05126 -17.2
      vertex -91.6497 -9.35567 -17.2
      vertex -91.2676 -7.1891 -17.2
    endloop
  endfacet
  facet normal 0 0 1
    outer loop
      vertex -91.8894 -7.05126 -17.2
      vertex -92.4588 -9.1763 -17.2
      vertex -91.6497 -9.35567 -17.2
    endloop
  endfacet
  facet normal 0 0 1
    outer loop
      vertex -92.4967 -6.85976 -17.2
      vertex -92.4588 -9.1763 -17.2
      vertex -91.8894 -7.05126 -17.2
    endloop
  endfacet
  facet normal 0 0 1
    outer loop
      vertex -93.2492 -8.92708 -17.2
      vertex -92.4967 -6.85976 -17.2
      vertex -93.0851 -6.61605 -17.2
    endloop
  endfacet
  facet normal 0 0 1
    outer loop
      vertex -92.4967 -6.85976 -17.2
      vertex -93.2492 -8.92708 -17.2
      vertex -92.4588 -9.1763 -17.2
    endloop
  endfacet
  facet normal 0 0 1
    outer loop
      vertex -94.0149 -8.60992 -17.2
      vertex -93.0851 -6.61605 -17.2
      vertex -93.65 -6.32199 -17.2
    endloop
  endfacet
  facet normal 0 0 1
    outer loop
      vertex -93.0851 -6.61605 -17.2
      vertex -94.0149 -8.60992 -17.2
      vertex -93.2492 -8.92708 -17.2
    endloop
  endfacet
  facet normal 0 0 1
    outer loop
      vertex -94.75 -8.22724 -17.2
      vertex -93.65 -6.32199 -17.2
      vertex -94.1871 -5.97981 -17.2
    endloop
  endfacet
  facet normal 0 0 1
    outer loop
      vertex -95.449 -7.78194 -17.2
      vertex -94.1871 -5.97981 -17.2
      vertex -94.6924 -5.59212 -17.2
    endloop
  endfacet
  facet normal 0 0 1
    outer loop
      vertex -93.65 -6.32199 -17.2
      vertex -94.75 -8.22724 -17.2
      vertex -94.0149 -8.60992 -17.2
    endloop
  endfacet
  facet normal 0 0 1
    outer loop
      vertex -96.1065 -7.27742 -17.2
      vertex -94.6924 -5.59212 -17.2
      vertex -95.1619 -5.16188 -17.2
    endloop
  endfacet
  facet normal 0 0 1
    outer loop
      vertex -94.1871 -5.97981 -17.2
      vertex -95.449 -7.78194 -17.2
      vertex -94.75 -8.22724 -17.2
    endloop
  endfacet
  facet normal 0 0 1
    outer loop
      vertex -96.7175 -6.71751 -17.2
      vertex -95.1619 -5.16188 -17.2
      vertex -95.5921 -4.69235 -17.2
    endloop
  endfacet
  facet normal 0 0 1
    outer loop
      vertex -97.2774 -6.10648 -17.2
      vertex -95.5921 -4.69235 -17.2
      vertex -95.9798 -4.18711 -17.2
    endloop
  endfacet
  facet normal 0 0 1
    outer loop
      vertex -94.6924 -5.59212 -17.2
      vertex -96.1065 -7.27742 -17.2
      vertex -95.449 -7.78194 -17.2
    endloop
  endfacet
  facet normal 0 0 1
    outer loop
      vertex -97.7819 -5.44898 -17.2
      vertex -95.9798 -4.18711 -17.2
      vertex -96.322 -3.65 -17.2
    endloop
  endfacet
  facet normal 0 0 1
    outer loop
      vertex -98.2272 -4.75 -17.2
      vertex -96.322 -3.65 -17.2
      vertex -96.616 -3.08511 -17.2
    endloop
  endfacet
  facet normal 0 0 1
    outer loop
      vertex -95.1619 -5.16188 -17.2
      vertex -96.7175 -6.71751 -17.2
      vertex -96.1065 -7.27742 -17.2
    endloop
  endfacet
  facet normal 0 0 1
    outer loop
      vertex -98.6099 -4.01487 -17.2
      vertex -96.616 -3.08511 -17.2
      vertex -96.8598 -2.49675 -17.2
    endloop
  endfacet
  facet normal 0 0 1
    outer loop
      vertex -98.9271 -3.24919 -17.2
      vertex -96.8598 -2.49675 -17.2
      vertex -97.0513 -1.88938 -17.2
    endloop
  endfacet
  facet normal 0 0 1
    outer loop
      vertex -99.1763 -2.45878 -17.2
      vertex -97.0513 -1.88938 -17.2
      vertex -97.1891 -1.26763 -17.2
    endloop
  endfacet
  facet normal 0 0 1
    outer loop
      vertex -99.3557 -1.64966 -17.2
      vertex -97.1891 -1.26763 -17.2
      vertex -97.2722 -0.636236 -17.2
    endloop
  endfacet
  facet normal 0 0 1
    outer loop
      vertex -95.5921 -4.69235 -17.2
      vertex -97.2774 -6.10648 -17.2
      vertex -96.7175 -6.71751 -17.2
    endloop
  endfacet
  facet normal 0 0 1
    outer loop
      vertex -99.4639 -0.827979 -17.2
      vertex -97.2722 -0.636236 -17.2
      vertex -97.3 0 -17.2
    endloop
  endfacet
  facet normal -0 0 1
    outer loop
      vertex -99.1763 2.45878 -17.2
      vertex -97.0513 1.88938 -17.2
      vertex -98.9271 3.24919 -17.2
    endloop
  endfacet
  facet normal 0 0 1
    outer loop
      vertex -95.9798 -4.18711 -17.2
      vertex -97.7819 -5.44898 -17.2
      vertex -97.2774 -6.10648 -17.2
    endloop
  endfacet
  facet normal 0 0 1
    outer loop
      vertex -97.0513 1.88938 -17.2
      vertex -99.1763 2.45878 -17.2
      vertex -97.1891 1.26763 -17.2
    endloop
  endfacet
  facet normal 0 0 1
    outer loop
      vertex -96.322 -3.65 -17.2
      vertex -98.2272 -4.75 -17.2
      vertex -97.7819 -5.44898 -17.2
    endloop
  endfacet
  facet normal -0 0 1
    outer loop
      vertex -99.3557 1.64966 -17.2
      vertex -97.1891 1.26763 -17.2
      vertex -99.1763 2.45878 -17.2
    endloop
  endfacet
  facet normal 0 0 1
    outer loop
      vertex -96.616 -3.08511 -17.2
      vertex -98.6099 -4.01487 -17.2
      vertex -98.2272 -4.75 -17.2
    endloop
  endfacet
  facet normal 0 0 1
    outer loop
      vertex -97.1891 1.26763 -17.2
      vertex -99.3557 1.64966 -17.2
      vertex -97.2722 0.636236 -17.2
    endloop
  endfacet
  facet normal 0 0 1
    outer loop
      vertex -96.8598 -2.49675 -17.2
      vertex -98.9271 -3.24919 -17.2
      vertex -98.6099 -4.01487 -17.2
    endloop
  endfacet
  facet normal -0 0 1
    outer loop
      vertex -99.4639 0.827979 -17.2
      vertex -97.2722 0.636236 -17.2
      vertex -99.3557 1.64966 -17.2
    endloop
  endfacet
  facet normal 0 0 1
    outer loop
      vertex -97.0513 -1.88938 -17.2
      vertex -99.1763 -2.45878 -17.2
      vertex -98.9271 -3.24919 -17.2
    endloop
  endfacet
  facet normal 0 0 1
    outer loop
      vertex -97.2722 0.636236 -17.2
      vertex -99.4639 0.827979 -17.2
      vertex -97.3 0 -17.2
    endloop
  endfacet
  facet normal 0 0 1
    outer loop
      vertex -97.1891 -1.26763 -17.2
      vertex -99.3557 -1.64966 -17.2
      vertex -99.1763 -2.45878 -17.2
    endloop
  endfacet
  facet normal 0 0 1
    outer loop
      vertex -99.5 0 -17.2
      vertex -97.3 0 -17.2
      vertex -99.4639 0.827979 -17.2
    endloop
  endfacet
  facet normal 0 0 1
    outer loop
      vertex -97.2722 -0.636236 -17.2
      vertex -99.4639 -0.827979 -17.2
      vertex -99.3557 -1.64966 -17.2
    endloop
  endfacet
  facet normal 0 0 1
    outer loop
      vertex -97.3 0 -17.2
      vertex -99.5 0 -17.2
      vertex -99.4639 -0.827979 -17.2
    endloop
  endfacet
  facet normal -0.537289 0.843398 0
    outer loop
      vertex -94.75 8.22724 -22
      vertex -95.449 7.78194 -17.2
      vertex -94.75 8.22724 -17.2
    endloop
  endfacet
  facet normal -0.537289 0.843398 0
    outer loop
      vertex -95.449 7.78194 -17.2
      vertex -94.75 8.22724 -22
      vertex -95.449 7.78194 -22
    endloop
  endfacet
  facet normal -0.608763 0.793352 0
    outer loop
      vertex -95.449 7.78194 -22
      vertex -96.1065 7.27742 -17.2
      vertex -95.449 7.78194 -17.2
    endloop
  endfacet
  facet normal -0.608763 0.793352 0
    outer loop
      vertex -96.1065 7.27742 -17.2
      vertex -95.449 7.78194 -22
      vertex -96.1065 7.27742 -22
    endloop
  endfacet
  facet normal -0.216436 0.976297 0
    outer loop
      vertex -91.6497 9.35567 -22
      vertex -92.4588 9.1763 -17.2
      vertex -91.6497 9.35567 -17.2
    endloop
  endfacet
  facet normal -0.216436 0.976297 0
    outer loop
      vertex -92.4588 9.1763 -17.2
      vertex -91.6497 9.35567 -22
      vertex -92.4588 9.1763 -22
    endloop
  endfacet
  facet normal -0.0436179 0.999048 0
    outer loop
      vertex -90 9.5 -22
      vertex -90.828 9.46385 -17.2
      vertex -90 9.5 -17.2
    endloop
  endfacet
  facet normal -0.0436179 0.999048 0
    outer loop
      vertex -90.828 9.46385 -17.2
      vertex -90 9.5 -22
      vertex -90.828 9.46385 -22
    endloop
  endfacet
  facet normal 0.999051 -0.0435588 0
    outer loop
      vertex -80.5361 -0.827979 -17.2
      vertex -80.5 0 -22
      vertex -80.5 0 -17.2
    endloop
  endfacet
  facet normal 0.999051 -0.0435588 0
    outer loop
      vertex -80.5 0 -22
      vertex -80.5361 -0.827979 -17.2
      vertex -80.5361 -0.827979 -22
    endloop
  endfacet
  facet normal 0.0436179 -0.999048 0
    outer loop
      vertex -90 -9.5 -22
      vertex -89.172 -9.46385 -17.2
      vertex -90 -9.5 -17.2
    endloop
  endfacet
  facet normal 0.0436179 -0.999048 0
    outer loop
      vertex -89.172 -9.46385 -17.2
      vertex -90 -9.5 -22
      vertex -89.172 -9.46385 -22
    endloop
  endfacet
  facet normal 0.216436 -0.976297 0
    outer loop
      vertex -88.3503 -9.35567 -22
      vertex -87.5412 -9.1763 -17.2
      vertex -88.3503 -9.35567 -17.2
    endloop
  endfacet
  facet normal 0.216436 -0.976297 0
    outer loop
      vertex -87.5412 -9.1763 -17.2
      vertex -88.3503 -9.35567 -22
      vertex -87.5412 -9.1763 -22
    endloop
  endfacet
  facet normal 0.608763 -0.793352 0
    outer loop
      vertex -84.551 -7.78194 -22
      vertex -83.8935 -7.27742 -17.2
      vertex -84.551 -7.78194 -17.2
    endloop
  endfacet
  facet normal 0.608763 -0.793352 0
    outer loop
      vertex -83.8935 -7.27742 -17.2
      vertex -84.551 -7.78194 -22
      vertex -83.8935 -7.27742 -22
    endloop
  endfacet
  facet normal 0.38268 -0.923881 0
    outer loop
      vertex -86.7508 -8.92708 -22
      vertex -85.9851 -8.60992 -17.2
      vertex -86.7508 -8.92708 -17.2
    endloop
  endfacet
  facet normal 0.38268 -0.923881 0
    outer loop
      vertex -85.9851 -8.60992 -17.2
      vertex -86.7508 -8.92708 -22
      vertex -85.9851 -8.60992 -22
    endloop
  endfacet
  facet normal 0.737281 -0.675586 0
    outer loop
      vertex -83.2825 -6.71751 -17.2
      vertex -82.7226 -6.10648 -22
      vertex -82.7226 -6.10648 -17.2
    endloop
  endfacet
  facet normal 0.737281 -0.675586 0
    outer loop
      vertex -82.7226 -6.10648 -22
      vertex -83.2825 -6.71751 -17.2
      vertex -83.2825 -6.71751 -22
    endloop
  endfacet
  facet normal 0.843391 -0.5373 0
    outer loop
      vertex -82.2181 -5.44898 -17.2
      vertex -81.7728 -4.75 -22
      vertex -81.7728 -4.75 -17.2
    endloop
  endfacet
  facet normal 0.843391 -0.5373 0
    outer loop
      vertex -81.7728 -4.75 -22
      vertex -82.2181 -5.44898 -17.2
      vertex -82.2181 -5.44898 -22
    endloop
  endfacet
  facet normal -0.675611 -0.737258 0
    outer loop
      vertex -96.7175 -6.71751 -22
      vertex -96.1065 -7.27742 -17.2
      vertex -96.7175 -6.71751 -17.2
    endloop
  endfacet
  facet normal -0.675611 -0.737258 -0
    outer loop
      vertex -96.1065 -7.27742 -17.2
      vertex -96.7175 -6.71751 -22
      vertex -96.1065 -7.27742 -22
    endloop
  endfacet
  facet normal -0.537289 -0.843398 0
    outer loop
      vertex -95.449 -7.78194 -22
      vertex -94.75 -8.22724 -17.2
      vertex -95.449 -7.78194 -17.2
    endloop
  endfacet
  facet normal -0.537289 -0.843398 -0
    outer loop
      vertex -94.75 -8.22724 -17.2
      vertex -95.449 -7.78194 -22
      vertex -94.75 -8.22724 -22
    endloop
  endfacet
  facet normal -0.300714 -0.953714 0
    outer loop
      vertex -93.2492 -8.92708 -22
      vertex -92.4588 -9.1763 -17.2
      vertex -93.2492 -8.92708 -17.2
    endloop
  endfacet
  facet normal -0.300714 -0.953714 -0
    outer loop
      vertex -92.4588 -9.1763 -17.2
      vertex -93.2492 -8.92708 -22
      vertex -92.4588 -9.1763 -22
    endloop
  endfacet
  facet normal -0.130528 -0.991445 0
    outer loop
      vertex -91.6497 -9.35567 -22
      vertex -90.828 -9.46385 -17.2
      vertex -91.6497 -9.35567 -17.2
    endloop
  endfacet
  facet normal -0.130528 -0.991445 -0
    outer loop
      vertex -90.828 -9.46385 -17.2
      vertex -91.6497 -9.35567 -22
      vertex -90.828 -9.46385 -22
    endloop
  endfacet
  facet normal -0.793364 -0.608748 0
    outer loop
      vertex -97.2774 -6.10648 -22
      vertex -97.7819 -5.44898 -17.2
      vertex -97.7819 -5.44898 -22
    endloop
  endfacet
  facet normal -0.793364 -0.608748 0
    outer loop
      vertex -97.7819 -5.44898 -17.2
      vertex -97.2774 -6.10648 -22
      vertex -97.2774 -6.10648 -17.2
    endloop
  endfacet
  facet normal -0.97629 -0.216465 0
    outer loop
      vertex -99.1763 -2.45878 -22
      vertex -99.3557 -1.64966 -17.2
      vertex -99.3557 -1.64966 -22
    endloop
  endfacet
  facet normal -0.97629 -0.216465 0
    outer loop
      vertex -99.3557 -1.64966 -17.2
      vertex -99.1763 -2.45878 -22
      vertex -99.1763 -2.45878 -17.2
    endloop
  endfacet
  facet normal -0.999051 -0.0435588 0
    outer loop
      vertex -99.4639 -0.827979 -22
      vertex -99.5 0 -17.2
      vertex -99.5 0 -22
    endloop
  endfacet
  facet normal -0.999051 -0.0435588 0
    outer loop
      vertex -99.5 0 -17.2
      vertex -99.4639 -0.827979 -22
      vertex -99.4639 -0.827979 -17.2
    endloop
  endfacet
  facet normal 0.537289 0.843398 -0
    outer loop
      vertex -84.551 7.78194 -22
      vertex -85.25 8.22724 -17.2
      vertex -84.551 7.78194 -17.2
    endloop
  endfacet
  facet normal 0.537289 0.843398 0
    outer loop
      vertex -85.25 8.22724 -17.2
      vertex -84.551 7.78194 -22
      vertex -85.25 8.22724 -22
    endloop
  endfacet
  facet normal 0.461759 0.887005 -0
    outer loop
      vertex -85.25 8.22724 -22
      vertex -85.9851 8.60992 -17.2
      vertex -85.25 8.22724 -17.2
    endloop
  endfacet
  facet normal 0.461759 0.887005 0
    outer loop
      vertex -85.9851 8.60992 -17.2
      vertex -85.25 8.22724 -22
      vertex -85.9851 8.60992 -22
    endloop
  endfacet
  facet normal -0.887003 0.461763 0
    outer loop
      vertex -98.6099 4.01487 -22
      vertex -98.2272 4.75 -17.2
      vertex -98.2272 4.75 -22
    endloop
  endfacet
  facet normal -0.887003 0.461763 0
    outer loop
      vertex -98.2272 4.75 -17.2
      vertex -98.6099 4.01487 -22
      vertex -98.6099 4.01487 -17.2
    endloop
  endfacet
  facet normal -0.461759 0.887005 0
    outer loop
      vertex -94.0149 8.60992 -22
      vertex -94.75 8.22724 -17.2
      vertex -94.0149 8.60992 -17.2
    endloop
  endfacet
  facet normal -0.461759 0.887005 0
    outer loop
      vertex -94.75 8.22724 -17.2
      vertex -94.0149 8.60992 -22
      vertex -94.75 8.22724 -22
    endloop
  endfacet
  facet normal -0.38268 0.923881 0
    outer loop
      vertex -93.2492 8.92708 -22
      vertex -94.0149 8.60992 -17.2
      vertex -93.2492 8.92708 -17.2
    endloop
  endfacet
  facet normal -0.38268 0.923881 0
    outer loop
      vertex -94.0149 8.60992 -17.2
      vertex -93.2492 8.92708 -22
      vertex -94.0149 8.60992 -22
    endloop
  endfacet
  facet normal 0.130528 -0.991445 0
    outer loop
      vertex -89.172 -9.46385 -22
      vertex -88.3503 -9.35567 -17.2
      vertex -89.172 -9.46385 -17.2
    endloop
  endfacet
  facet normal 0.130528 -0.991445 0
    outer loop
      vertex -88.3503 -9.35567 -17.2
      vertex -89.172 -9.46385 -22
      vertex -88.3503 -9.35567 -22
    endloop
  endfacet
  facet normal 0.300714 -0.953714 0
    outer loop
      vertex -87.5412 -9.1763 -22
      vertex -86.7508 -8.92708 -17.2
      vertex -87.5412 -9.1763 -17.2
    endloop
  endfacet
  facet normal 0.300714 -0.953714 0
    outer loop
      vertex -86.7508 -8.92708 -17.2
      vertex -87.5412 -9.1763 -22
      vertex -86.7508 -8.92708 -22
    endloop
  endfacet
  facet normal 0.675611 -0.737258 0
    outer loop
      vertex -83.8935 -7.27742 -22
      vertex -83.2825 -6.71751 -17.2
      vertex -83.8935 -7.27742 -17.2
    endloop
  endfacet
  facet normal 0.675611 -0.737258 0
    outer loop
      vertex -83.2825 -6.71751 -17.2
      vertex -83.8935 -7.27742 -22
      vertex -83.2825 -6.71751 -22
    endloop
  endfacet
  facet normal 0.461759 -0.887005 0
    outer loop
      vertex -85.9851 -8.60992 -22
      vertex -85.25 -8.22724 -17.2
      vertex -85.9851 -8.60992 -17.2
    endloop
  endfacet
  facet normal 0.461759 -0.887005 0
    outer loop
      vertex -85.25 -8.22724 -17.2
      vertex -85.9851 -8.60992 -22
      vertex -85.25 -8.22724 -22
    endloop
  endfacet
  facet normal 0.793364 -0.608748 0
    outer loop
      vertex -82.7226 -6.10648 -17.2
      vertex -82.2181 -5.44898 -22
      vertex -82.2181 -5.44898 -17.2
    endloop
  endfacet
  facet normal 0.793364 -0.608748 0
    outer loop
      vertex -82.2181 -5.44898 -22
      vertex -82.7226 -6.10648 -17.2
      vertex -82.7226 -6.10648 -22
    endloop
  endfacet
  facet normal 0.887003 -0.461763 0
    outer loop
      vertex -81.7728 -4.75 -17.2
      vertex -81.3901 -4.01487 -22
      vertex -81.3901 -4.01487 -17.2
    endloop
  endfacet
  facet normal 0.887003 -0.461763 0
    outer loop
      vertex -81.3901 -4.01487 -22
      vertex -81.7728 -4.75 -17.2
      vertex -81.7728 -4.75 -22
    endloop
  endfacet
  facet normal 0.991441 -0.130554 0
    outer loop
      vertex -80.6443 -1.64966 -17.2
      vertex -80.5361 -0.827979 -22
      vertex -80.5361 -0.827979 -17.2
    endloop
  endfacet
  facet normal 0.991441 -0.130554 0
    outer loop
      vertex -80.5361 -0.827979 -22
      vertex -80.6443 -1.64966 -17.2
      vertex -80.6443 -1.64966 -22
    endloop
  endfacet
  facet normal -0.608763 -0.793352 0
    outer loop
      vertex -96.1065 -7.27742 -22
      vertex -95.449 -7.78194 -17.2
      vertex -96.1065 -7.27742 -17.2
    endloop
  endfacet
  facet normal -0.608763 -0.793352 -0
    outer loop
      vertex -95.449 -7.78194 -17.2
      vertex -96.1065 -7.27742 -22
      vertex -95.449 -7.78194 -22
    endloop
  endfacet
  facet normal -0.461759 -0.887005 0
    outer loop
      vertex -94.75 -8.22724 -22
      vertex -94.0149 -8.60992 -17.2
      vertex -94.75 -8.22724 -17.2
    endloop
  endfacet
  facet normal -0.461759 -0.887005 -0
    outer loop
      vertex -94.0149 -8.60992 -17.2
      vertex -94.75 -8.22724 -22
      vertex -94.0149 -8.60992 -22
    endloop
  endfacet
  facet normal -0.216436 -0.976297 0
    outer loop
      vertex -92.4588 -9.1763 -22
      vertex -91.6497 -9.35567 -17.2
      vertex -92.4588 -9.1763 -17.2
    endloop
  endfacet
  facet normal -0.216436 -0.976297 -0
    outer loop
      vertex -91.6497 -9.35567 -17.2
      vertex -92.4588 -9.1763 -22
      vertex -91.6497 -9.35567 -22
    endloop
  endfacet
  facet normal -0.0436179 -0.999048 0
    outer loop
      vertex -90.828 -9.46385 -22
      vertex -90 -9.5 -17.2
      vertex -90.828 -9.46385 -17.2
    endloop
  endfacet
  facet normal -0.0436179 -0.999048 -0
    outer loop
      vertex -90 -9.5 -17.2
      vertex -90.828 -9.46385 -22
      vertex -90 -9.5 -22
    endloop
  endfacet
  facet normal -0.92386 -0.38273 0
    outer loop
      vertex -98.6099 -4.01487 -22
      vertex -98.9271 -3.24919 -17.2
      vertex -98.9271 -3.24919 -22
    endloop
  endfacet
  facet normal -0.92386 -0.38273 0
    outer loop
      vertex -98.9271 -3.24919 -17.2
      vertex -98.6099 -4.01487 -22
      vertex -98.6099 -4.01487 -17.2
    endloop
  endfacet
  facet normal -0.843391 -0.5373 0
    outer loop
      vertex -97.7819 -5.44898 -22
      vertex -98.2272 -4.75 -17.2
      vertex -98.2272 -4.75 -22
    endloop
  endfacet
  facet normal -0.843391 -0.5373 0
    outer loop
      vertex -98.2272 -4.75 -17.2
      vertex -97.7819 -5.44898 -22
      vertex -97.7819 -5.44898 -17.2
    endloop
  endfacet
  facet normal -0.737281 -0.675586 0
    outer loop
      vertex -96.7175 -6.71751 -22
      vertex -97.2774 -6.10648 -17.2
      vertex -97.2774 -6.10648 -22
    endloop
  endfacet
  facet normal -0.737281 -0.675586 0
    outer loop
      vertex -97.2774 -6.10648 -17.2
      vertex -96.7175 -6.71751 -22
      vertex -96.7175 -6.71751 -17.2
    endloop
  endfacet
  facet normal -0.953722 -0.300689 0
    outer loop
      vertex -98.9271 -3.24919 -22
      vertex -99.1763 -2.45878 -17.2
      vertex -99.1763 -2.45878 -22
    endloop
  endfacet
  facet normal -0.953722 -0.300689 0
    outer loop
      vertex -99.1763 -2.45878 -17.2
      vertex -98.9271 -3.24919 -22
      vertex -98.9271 -3.24919 -17.2
    endloop
  endfacet
  facet normal -0.991441 -0.130554 0
    outer loop
      vertex -99.3557 -1.64966 -22
      vertex -99.4639 -0.827979 -17.2
      vertex -99.4639 -0.827979 -22
    endloop
  endfacet
  facet normal -0.991441 -0.130554 0
    outer loop
      vertex -99.4639 -0.827979 -17.2
      vertex -99.3557 -1.64966 -22
      vertex -99.3557 -1.64966 -17.2
    endloop
  endfacet
  facet normal 0.537289 -0.843398 0
    outer loop
      vertex -85.25 -8.22724 -22
      vertex -84.551 -7.78194 -17.2
      vertex -85.25 -8.22724 -17.2
    endloop
  endfacet
  facet normal 0.537289 -0.843398 0
    outer loop
      vertex -84.551 -7.78194 -17.2
      vertex -85.25 -8.22724 -22
      vertex -84.551 -7.78194 -22
    endloop
  endfacet
  facet normal 0.92386 -0.38273 0
    outer loop
      vertex -81.3901 -4.01487 -17.2
      vertex -81.0729 -3.24919 -22
      vertex -81.0729 -3.24919 -17.2
    endloop
  endfacet
  facet normal 0.92386 -0.38273 0
    outer loop
      vertex -81.0729 -3.24919 -22
      vertex -81.3901 -4.01487 -17.2
      vertex -81.3901 -4.01487 -22
    endloop
  endfacet
  facet normal 0.97629 -0.216465 0
    outer loop
      vertex -80.8237 -2.45878 -17.2
      vertex -80.6443 -1.64966 -22
      vertex -80.6443 -1.64966 -17.2
    endloop
  endfacet
  facet normal 0.97629 -0.216465 0
    outer loop
      vertex -80.6443 -1.64966 -22
      vertex -80.8237 -2.45878 -17.2
      vertex -80.8237 -2.45878 -22
    endloop
  endfacet
  facet normal -0.38268 -0.923881 0
    outer loop
      vertex -94.0149 -8.60992 -22
      vertex -93.2492 -8.92708 -17.2
      vertex -94.0149 -8.60992 -17.2
    endloop
  endfacet
  facet normal -0.38268 -0.923881 -0
    outer loop
      vertex -93.2492 -8.92708 -17.2
      vertex -94.0149 -8.60992 -22
      vertex -93.2492 -8.92708 -22
    endloop
  endfacet
  facet normal -0.887003 -0.461763 0
    outer loop
      vertex -98.2272 -4.75 -22
      vertex -98.6099 -4.01487 -17.2
      vertex -98.6099 -4.01487 -22
    endloop
  endfacet
  facet normal -0.887003 -0.461763 0
    outer loop
      vertex -98.6099 -4.01487 -17.2
      vertex -98.2272 -4.75 -22
      vertex -98.2272 -4.75 -17.2
    endloop
  endfacet
  facet normal 0.999047 0.0436528 0
    outer loop
      vertex -82.7 0 -9.2
      vertex -82.7278 0.636236 -17.2
      vertex -82.7278 0.636236 -9.2
    endloop
  endfacet
  facet normal 0.999047 0.0436528 0
    outer loop
      vertex -82.7278 0.636236 -17.2
      vertex -82.7 0 -9.2
      vertex -82.7 0 -17.2
    endloop
  endfacet
  facet normal -0.999047 0.0436528 0
    outer loop
      vertex -97.3 0 -17.2
      vertex -97.2722 0.636236 -9.2
      vertex -97.2722 0.636236 -17.2
    endloop
  endfacet
  facet normal -0.999047 0.0436528 0
    outer loop
      vertex -97.2722 0.636236 -9.2
      vertex -97.3 0 -17.2
      vertex -97.3 0 -9.2
    endloop
  endfacet
  facet normal -0.0436239 0.999048 0
    outer loop
      vertex -90 7.3 -17.2
      vertex -90.6362 7.27222 -9.2
      vertex -90 7.3 -9.2
    endloop
  endfacet
  facet normal -0.0436239 0.999048 0
    outer loop
      vertex -90.6362 7.27222 -9.2
      vertex -90 7.3 -17.2
      vertex -90.6362 7.27222 -17.2
    endloop
  endfacet
  facet normal 0.0436239 -0.999048 0
    outer loop
      vertex -90 -7.3 -17.2
      vertex -89.3638 -7.27222 -9.2
      vertex -90 -7.3 -9.2
    endloop
  endfacet
  facet normal 0.0436239 -0.999048 0
    outer loop
      vertex -89.3638 -7.27222 -9.2
      vertex -90 -7.3 -17.2
      vertex -89.3638 -7.27222 -17.2
    endloop
  endfacet
  facet normal 0.675609 0.73726 -0
    outer loop
      vertex -84.8381 5.16188 -17.2
      vertex -85.3076 5.59212 -9.2
      vertex -84.8381 5.16188 -9.2
    endloop
  endfacet
  facet normal 0.675609 0.73726 0
    outer loop
      vertex -85.3076 5.59212 -9.2
      vertex -84.8381 5.16188 -17.2
      vertex -85.3076 5.59212 -17.2
    endloop
  endfacet
  facet normal -0.737313 0.675552 0
    outer loop
      vertex -95.5921 4.69235 -17.2
      vertex -95.1619 5.16188 -9.2
      vertex -95.1619 5.16188 -17.2
    endloop
  endfacet
  facet normal -0.737313 0.675552 0
    outer loop
      vertex -95.1619 5.16188 -9.2
      vertex -95.5921 4.69235 -17.2
      vertex -95.5921 4.69235 -9.2
    endloop
  endfacet
  facet normal -0.461738 0.887016 0
    outer loop
      vertex -93.0851 6.61605 -17.2
      vertex -93.65 6.32199 -9.2
      vertex -93.0851 6.61605 -9.2
    endloop
  endfacet
  facet normal -0.461738 0.887016 0
    outer loop
      vertex -93.65 6.32199 -9.2
      vertex -93.0851 6.61605 -17.2
      vertex -93.65 6.32199 -17.2
    endloop
  endfacet
  facet normal 0.887051 0.461671 0
    outer loop
      vertex -83.384 3.08511 -9.2
      vertex -83.678 3.65 -17.2
      vertex -83.678 3.65 -9.2
    endloop
  endfacet
  facet normal 0.887051 0.461671 0
    outer loop
      vertex -83.678 3.65 -17.2
      vertex -83.384 3.08511 -9.2
      vertex -83.384 3.08511 -17.2
    endloop
  endfacet
  facet normal 0.300733 0.953708 -0
    outer loop
      vertex -87.5033 6.85976 -17.2
      vertex -88.1106 7.05126 -9.2
      vertex -87.5033 6.85976 -9.2
    endloop
  endfacet
  facet normal 0.300733 0.953708 0
    outer loop
      vertex -88.1106 7.05126 -9.2
      vertex -87.5033 6.85976 -17.2
      vertex -88.1106 7.05126 -17.2
    endloop
  endfacet
  facet normal 0.53731 0.843385 -0
    outer loop
      vertex -85.8129 5.97981 -17.2
      vertex -86.35 6.32199 -9.2
      vertex -85.8129 5.97981 -9.2
    endloop
  endfacet
  facet normal 0.53731 0.843385 0
    outer loop
      vertex -86.35 6.32199 -9.2
      vertex -85.8129 5.97981 -17.2
      vertex -86.35 6.32199 -17.2
    endloop
  endfacet
  facet normal -0.923828 0.382808 0
    outer loop
      vertex -96.8598 2.49675 -17.2
      vertex -96.616 3.08511 -9.2
      vertex -96.616 3.08511 -17.2
    endloop
  endfacet
  facet normal -0.923828 0.382808 0
    outer loop
      vertex -96.616 3.08511 -9.2
      vertex -96.8598 2.49675 -17.2
      vertex -96.8598 2.49675 -9.2
    endloop
  endfacet
  facet normal -0.216425 0.976299 0
    outer loop
      vertex -91.2676 7.1891 -17.2
      vertex -91.8894 7.05126 -9.2
      vertex -91.2676 7.1891 -9.2
    endloop
  endfacet
  facet normal -0.216425 0.976299 0
    outer loop
      vertex -91.8894 7.05126 -9.2
      vertex -91.2676 7.1891 -17.2
      vertex -91.8894 7.05126 -17.2
    endloop
  endfacet
  facet normal -0.737313 -0.675552 0
    outer loop
      vertex -95.1619 -5.16188 -17.2
      vertex -95.5921 -4.69235 -9.2
      vertex -95.5921 -4.69235 -17.2
    endloop
  endfacet
  facet normal -0.737313 -0.675552 0
    outer loop
      vertex -95.5921 -4.69235 -9.2
      vertex -95.1619 -5.16188 -17.2
      vertex -95.1619 -5.16188 -9.2
    endloop
  endfacet
  facet normal 0.461738 -0.887016 0
    outer loop
      vertex -86.9149 -6.61605 -17.2
      vertex -86.35 -6.32199 -9.2
      vertex -86.9149 -6.61605 -9.2
    endloop
  endfacet
  facet normal 0.461738 -0.887016 0
    outer loop
      vertex -86.35 -6.32199 -9.2
      vertex -86.9149 -6.61605 -17.2
      vertex -86.35 -6.32199 -17.2
    endloop
  endfacet
  facet normal 0.976309 0.216382 0
    outer loop
      vertex -82.8109 1.26763 -9.2
      vertex -82.9487 1.88938 -17.2
      vertex -82.9487 1.88938 -9.2
    endloop
  endfacet
  facet normal 0.976309 0.216382 0
    outer loop
      vertex -82.9487 1.88938 -17.2
      vertex -82.8109 1.26763 -9.2
      vertex -82.8109 1.26763 -17.2
    endloop
  endfacet
  facet normal 0.99145 0.130488 0
    outer loop
      vertex -82.7278 0.636236 -9.2
      vertex -82.8109 1.26763 -17.2
      vertex -82.8109 1.26763 -9.2
    endloop
  endfacet
  facet normal 0.99145 0.130488 0
    outer loop
      vertex -82.8109 1.26763 -17.2
      vertex -82.7278 0.636236 -9.2
      vertex -82.7278 0.636236 -17.2
    endloop
  endfacet
  facet normal 0.953718 0.300701 0
    outer loop
      vertex -82.9487 1.88938 -9.2
      vertex -83.1402 2.49675 -17.2
      vertex -83.1402 2.49675 -9.2
    endloop
  endfacet
  facet normal 0.953718 0.300701 0
    outer loop
      vertex -83.1402 2.49675 -17.2
      vertex -82.9487 1.88938 -9.2
      vertex -82.9487 1.88938 -17.2
    endloop
  endfacet
  facet normal 0.793341 0.608777 0
    outer loop
      vertex -84.0202 4.18711 -9.2
      vertex -84.4079 4.69235 -17.2
      vertex -84.4079 4.69235 -9.2
    endloop
  endfacet
  facet normal 0.793341 0.608777 0
    outer loop
      vertex -84.4079 4.69235 -17.2
      vertex -84.0202 4.18711 -9.2
      vertex -84.0202 4.18711 -17.2
    endloop
  endfacet
  facet normal 0.737313 0.675552 0
    outer loop
      vertex -84.4079 4.69235 -9.2
      vertex -84.8381 5.16188 -17.2
      vertex -84.8381 5.16188 -9.2
    endloop
  endfacet
  facet normal 0.737313 0.675552 0
    outer loop
      vertex -84.8381 5.16188 -17.2
      vertex -84.4079 4.69235 -9.2
      vertex -84.4079 4.69235 -17.2
    endloop
  endfacet
  facet normal 0.843375 0.537326 0
    outer loop
      vertex -83.678 3.65 -9.2
      vertex -84.0202 4.18711 -17.2
      vertex -84.0202 4.18711 -9.2
    endloop
  endfacet
  facet normal 0.843375 0.537326 0
    outer loop
      vertex -84.0202 4.18711 -17.2
      vertex -83.678 3.65 -9.2
      vertex -83.678 3.65 -17.2
    endloop
  endfacet
  facet normal 0.130518 0.991446 -0
    outer loop
      vertex -88.7324 7.1891 -17.2
      vertex -89.3638 7.27222 -9.2
      vertex -88.7324 7.1891 -9.2
    endloop
  endfacet
  facet normal 0.130518 0.991446 0
    outer loop
      vertex -89.3638 7.27222 -9.2
      vertex -88.7324 7.1891 -17.2
      vertex -89.3638 7.27222 -17.2
    endloop
  endfacet
  facet normal 0.216425 0.976299 -0
    outer loop
      vertex -88.1106 7.05126 -17.2
      vertex -88.7324 7.1891 -9.2
      vertex -88.1106 7.05126 -9.2
    endloop
  endfacet
  facet normal 0.216425 0.976299 0
    outer loop
      vertex -88.7324 7.1891 -9.2
      vertex -88.1106 7.05126 -17.2
      vertex -88.7324 7.1891 -17.2
    endloop
  endfacet
  facet normal 0.0436239 0.999048 -0
    outer loop
      vertex -89.3638 7.27222 -17.2
      vertex -90 7.3 -9.2
      vertex -89.3638 7.27222 -9.2
    endloop
  endfacet
  facet normal 0.0436239 0.999048 0
    outer loop
      vertex -90 7.3 -9.2
      vertex -89.3638 7.27222 -17.2
      vertex -90 7.3 -17.2
    endloop
  endfacet
  facet normal 0.608722 0.793384 -0
    outer loop
      vertex -85.3076 5.59212 -17.2
      vertex -85.8129 5.97981 -9.2
      vertex -85.3076 5.59212 -9.2
    endloop
  endfacet
  facet normal 0.608722 0.793384 0
    outer loop
      vertex -85.8129 5.97981 -9.2
      vertex -85.3076 5.59212 -17.2
      vertex -85.8129 5.97981 -17.2
    endloop
  endfacet
  facet normal -0.976309 0.216382 0
    outer loop
      vertex -97.1891 1.26763 -17.2
      vertex -97.0513 1.88938 -9.2
      vertex -97.0513 1.88938 -17.2
    endloop
  endfacet
  facet normal -0.976309 0.216382 0
    outer loop
      vertex -97.0513 1.88938 -9.2
      vertex -97.1891 1.26763 -17.2
      vertex -97.1891 1.26763 -9.2
    endloop
  endfacet
  facet normal -0.843375 0.537326 0
    outer loop
      vertex -96.322 3.65 -17.2
      vertex -95.9798 4.18711 -9.2
      vertex -95.9798 4.18711 -17.2
    endloop
  endfacet
  facet normal -0.843375 0.537326 0
    outer loop
      vertex -95.9798 4.18711 -9.2
      vertex -96.322 3.65 -17.2
      vertex -96.322 3.65 -9.2
    endloop
  endfacet
  facet normal -0.793341 0.608777 0
    outer loop
      vertex -95.9798 4.18711 -17.2
      vertex -95.5921 4.69235 -9.2
      vertex -95.5921 4.69235 -17.2
    endloop
  endfacet
  facet normal -0.793341 0.608777 0
    outer loop
      vertex -95.5921 4.69235 -9.2
      vertex -95.9798 4.18711 -17.2
      vertex -95.9798 4.18711 -9.2
    endloop
  endfacet
  facet normal -0.887051 0.461671 0
    outer loop
      vertex -96.616 3.08511 -17.2
      vertex -96.322 3.65 -9.2
      vertex -96.322 3.65 -17.2
    endloop
  endfacet
  facet normal -0.887051 0.461671 0
    outer loop
      vertex -96.322 3.65 -9.2
      vertex -96.616 3.08511 -17.2
      vertex -96.616 3.08511 -9.2
    endloop
  endfacet
  facet normal -0.953718 0.300701 0
    outer loop
      vertex -97.0513 1.88938 -17.2
      vertex -96.8598 2.49675 -9.2
      vertex -96.8598 2.49675 -17.2
    endloop
  endfacet
  facet normal -0.953718 0.300701 0
    outer loop
      vertex -96.8598 2.49675 -9.2
      vertex -97.0513 1.88938 -17.2
      vertex -97.0513 1.88938 -9.2
    endloop
  endfacet
  facet normal -0.99145 0.130488 0
    outer loop
      vertex -97.2722 0.636236 -17.2
      vertex -97.1891 1.26763 -9.2
      vertex -97.1891 1.26763 -17.2
    endloop
  endfacet
  facet normal -0.99145 0.130488 0
    outer loop
      vertex -97.1891 1.26763 -9.2
      vertex -97.2722 0.636236 -17.2
      vertex -97.2722 0.636236 -9.2
    endloop
  endfacet
  facet normal 0 0 1
    outer loop
      vertex -82.7278 0.636236 -9.2
      vertex -82.7278 -0.636236 -9.2
      vertex -82.7 0 -9.2
    endloop
  endfacet
  facet normal 0 0 1
    outer loop
      vertex -82.8109 1.26763 -9.2
      vertex -82.7278 -0.636236 -9.2
      vertex -82.7278 0.636236 -9.2
    endloop
  endfacet
  facet normal 0 0 1
    outer loop
      vertex -82.8109 1.26763 -9.2
      vertex -82.8109 -1.26763 -9.2
      vertex -82.7278 -0.636236 -9.2
    endloop
  endfacet
  facet normal 0 0 1
    outer loop
      vertex -82.9487 1.88938 -9.2
      vertex -82.8109 -1.26763 -9.2
      vertex -82.8109 1.26763 -9.2
    endloop
  endfacet
  facet normal 0 0 1
    outer loop
      vertex -82.9487 1.88938 -9.2
      vertex -82.9487 -1.88938 -9.2
      vertex -82.8109 -1.26763 -9.2
    endloop
  endfacet
  facet normal 0 0 1
    outer loop
      vertex -83.1402 2.49675 -9.2
      vertex -82.9487 -1.88938 -9.2
      vertex -82.9487 1.88938 -9.2
    endloop
  endfacet
  facet normal 0 0 1
    outer loop
      vertex -83.1402 2.49675 -9.2
      vertex -83.1402 -2.49675 -9.2
      vertex -82.9487 -1.88938 -9.2
    endloop
  endfacet
  facet normal 0 0 1
    outer loop
      vertex -83.384 3.08511 -9.2
      vertex -83.1402 -2.49675 -9.2
      vertex -83.1402 2.49675 -9.2
    endloop
  endfacet
  facet normal 0 0 1
    outer loop
      vertex -83.384 3.08511 -9.2
      vertex -83.384 -3.08511 -9.2
      vertex -83.1402 -2.49675 -9.2
    endloop
  endfacet
  facet normal 0 0 1
    outer loop
      vertex -83.678 3.65 -9.2
      vertex -83.384 -3.08511 -9.2
      vertex -83.384 3.08511 -9.2
    endloop
  endfacet
  facet normal 0 0 1
    outer loop
      vertex -83.678 3.65 -9.2
      vertex -83.678 -3.65 -9.2
      vertex -83.384 -3.08511 -9.2
    endloop
  endfacet
  facet normal 0 0 1
    outer loop
      vertex -84.0202 4.18711 -9.2
      vertex -83.678 -3.65 -9.2
      vertex -83.678 3.65 -9.2
    endloop
  endfacet
  facet normal 0 0 1
    outer loop
      vertex -84.0202 4.18711 -9.2
      vertex -84.0202 -4.18711 -9.2
      vertex -83.678 -3.65 -9.2
    endloop
  endfacet
  facet normal 0 0 1
    outer loop
      vertex -84.4079 4.69235 -9.2
      vertex -84.0202 -4.18711 -9.2
      vertex -84.0202 4.18711 -9.2
    endloop
  endfacet
  facet normal 0 0 1
    outer loop
      vertex -84.4079 4.69235 -9.2
      vertex -84.4079 -4.69235 -9.2
      vertex -84.0202 -4.18711 -9.2
    endloop
  endfacet
  facet normal 0 0 1
    outer loop
      vertex -84.8381 5.16188 -9.2
      vertex -84.4079 -4.69235 -9.2
      vertex -84.4079 4.69235 -9.2
    endloop
  endfacet
  facet normal 0 0 1
    outer loop
      vertex -84.8381 5.16188 -9.2
      vertex -84.8381 -5.16188 -9.2
      vertex -84.4079 -4.69235 -9.2
    endloop
  endfacet
  facet normal 0 0 1
    outer loop
      vertex -85.3076 5.59212 -9.2
      vertex -84.8381 -5.16188 -9.2
      vertex -84.8381 5.16188 -9.2
    endloop
  endfacet
  facet normal 0 0 1
    outer loop
      vertex -85.3076 5.59212 -9.2
      vertex -85.3076 -5.59212 -9.2
      vertex -84.8381 -5.16188 -9.2
    endloop
  endfacet
  facet normal 0 0 1
    outer loop
      vertex -85.8129 5.97981 -9.2
      vertex -85.3076 -5.59212 -9.2
      vertex -85.3076 5.59212 -9.2
    endloop
  endfacet
  facet normal 0 0 1
    outer loop
      vertex -85.8129 5.97981 -9.2
      vertex -85.8129 -5.97981 -9.2
      vertex -85.3076 -5.59212 -9.2
    endloop
  endfacet
  facet normal 0 0 1
    outer loop
      vertex -86.35 6.32199 -9.2
      vertex -85.8129 -5.97981 -9.2
      vertex -85.8129 5.97981 -9.2
    endloop
  endfacet
  facet normal 0 0 1
    outer loop
      vertex -86.35 6.32199 -9.2
      vertex -86.35 -6.32199 -9.2
      vertex -85.8129 -5.97981 -9.2
    endloop
  endfacet
  facet normal 0 0 1
    outer loop
      vertex -86.9149 6.61605 -9.2
      vertex -86.35 -6.32199 -9.2
      vertex -86.35 6.32199 -9.2
    endloop
  endfacet
  facet normal 0 0 1
    outer loop
      vertex -86.9149 6.61605 -9.2
      vertex -86.9149 -6.61605 -9.2
      vertex -86.35 -6.32199 -9.2
    endloop
  endfacet
  facet normal 0 0 1
    outer loop
      vertex -87.5033 6.85976 -9.2
      vertex -86.9149 -6.61605 -9.2
      vertex -86.9149 6.61605 -9.2
    endloop
  endfacet
  facet normal 0 0 1
    outer loop
      vertex -87.5033 6.85976 -9.2
      vertex -87.5033 -6.85976 -9.2
      vertex -86.9149 -6.61605 -9.2
    endloop
  endfacet
  facet normal 0 0 1
    outer loop
      vertex -88.1106 7.05126 -9.2
      vertex -87.5033 -6.85976 -9.2
      vertex -87.5033 6.85976 -9.2
    endloop
  endfacet
  facet normal 0 0 1
    outer loop
      vertex -88.1106 7.05126 -9.2
      vertex -88.1106 -7.05126 -9.2
      vertex -87.5033 -6.85976 -9.2
    endloop
  endfacet
  facet normal 0 0 1
    outer loop
      vertex -88.7324 7.1891 -9.2
      vertex -88.1106 -7.05126 -9.2
      vertex -88.1106 7.05126 -9.2
    endloop
  endfacet
  facet normal 0 0 1
    outer loop
      vertex -88.7324 7.1891 -9.2
      vertex -88.7324 -7.1891 -9.2
      vertex -88.1106 -7.05126 -9.2
    endloop
  endfacet
  facet normal 0 0 1
    outer loop
      vertex -89.3638 7.27222 -9.2
      vertex -88.7324 -7.1891 -9.2
      vertex -88.7324 7.1891 -9.2
    endloop
  endfacet
  facet normal 0 0 1
    outer loop
      vertex -89.3638 7.27222 -9.2
      vertex -89.3638 -7.27222 -9.2
      vertex -88.7324 -7.1891 -9.2
    endloop
  endfacet
  facet normal 0 0 1
    outer loop
      vertex -90 7.3 -9.2
      vertex -89.3638 -7.27222 -9.2
      vertex -89.3638 7.27222 -9.2
    endloop
  endfacet
  facet normal 0 0 1
    outer loop
      vertex -90 7.3 -9.2
      vertex -90 -7.3 -9.2
      vertex -89.3638 -7.27222 -9.2
    endloop
  endfacet
  facet normal -0 0 1
    outer loop
      vertex -90.6362 7.27222 -9.2
      vertex -90 -7.3 -9.2
      vertex -90 7.3 -9.2
    endloop
  endfacet
  facet normal 0 0 1
    outer loop
      vertex -90.6362 7.27222 -9.2
      vertex -90.6362 -7.27222 -9.2
      vertex -90 -7.3 -9.2
    endloop
  endfacet
  facet normal -0 0 1
    outer loop
      vertex -91.2676 7.1891 -9.2
      vertex -90.6362 -7.27222 -9.2
      vertex -90.6362 7.27222 -9.2
    endloop
  endfacet
  facet normal 0 0 1
    outer loop
      vertex -91.2676 7.1891 -9.2
      vertex -91.2676 -7.1891 -9.2
      vertex -90.6362 -7.27222 -9.2
    endloop
  endfacet
  facet normal -0 0 1
    outer loop
      vertex -91.8894 7.05126 -9.2
      vertex -91.2676 -7.1891 -9.2
      vertex -91.2676 7.1891 -9.2
    endloop
  endfacet
  facet normal 0 0 1
    outer loop
      vertex -91.8894 7.05126 -9.2
      vertex -91.8894 -7.05126 -9.2
      vertex -91.2676 -7.1891 -9.2
    endloop
  endfacet
  facet normal -0 0 1
    outer loop
      vertex -92.4967 6.85976 -9.2
      vertex -91.8894 -7.05126 -9.2
      vertex -91.8894 7.05126 -9.2
    endloop
  endfacet
  facet normal 0 0 1
    outer loop
      vertex -92.4967 6.85976 -9.2
      vertex -92.4967 -6.85976 -9.2
      vertex -91.8894 -7.05126 -9.2
    endloop
  endfacet
  facet normal -0 0 1
    outer loop
      vertex -93.0851 6.61605 -9.2
      vertex -92.4967 -6.85976 -9.2
      vertex -92.4967 6.85976 -9.2
    endloop
  endfacet
  facet normal 0 0 1
    outer loop
      vertex -93.0851 6.61605 -9.2
      vertex -93.0851 -6.61605 -9.2
      vertex -92.4967 -6.85976 -9.2
    endloop
  endfacet
  facet normal -0 0 1
    outer loop
      vertex -93.65 6.32199 -9.2
      vertex -93.0851 -6.61605 -9.2
      vertex -93.0851 6.61605 -9.2
    endloop
  endfacet
  facet normal 0 0 1
    outer loop
      vertex -93.65 6.32199 -9.2
      vertex -93.65 -6.32199 -9.2
      vertex -93.0851 -6.61605 -9.2
    endloop
  endfacet
  facet normal -0 0 1
    outer loop
      vertex -94.1871 5.97981 -9.2
      vertex -93.65 -6.32199 -9.2
      vertex -93.65 6.32199 -9.2
    endloop
  endfacet
  facet normal 0 0 1
    outer loop
      vertex -94.1871 5.97981 -9.2
      vertex -94.1871 -5.97981 -9.2
      vertex -93.65 -6.32199 -9.2
    endloop
  endfacet
  facet normal -0 0 1
    outer loop
      vertex -94.6924 5.59212 -9.2
      vertex -94.1871 -5.97981 -9.2
      vertex -94.1871 5.97981 -9.2
    endloop
  endfacet
  facet normal 0 0 1
    outer loop
      vertex -94.6924 5.59212 -9.2
      vertex -94.6924 -5.59212 -9.2
      vertex -94.1871 -5.97981 -9.2
    endloop
  endfacet
  facet normal -0 0 1
    outer loop
      vertex -95.1619 5.16188 -9.2
      vertex -94.6924 -5.59212 -9.2
      vertex -94.6924 5.59212 -9.2
    endloop
  endfacet
  facet normal 0 0 1
    outer loop
      vertex -95.1619 5.16188 -9.2
      vertex -95.1619 -5.16188 -9.2
      vertex -94.6924 -5.59212 -9.2
    endloop
  endfacet
  facet normal -0 0 1
    outer loop
      vertex -95.5921 4.69235 -9.2
      vertex -95.1619 -5.16188 -9.2
      vertex -95.1619 5.16188 -9.2
    endloop
  endfacet
  facet normal 0 0 1
    outer loop
      vertex -95.5921 4.69235 -9.2
      vertex -95.5921 -4.69235 -9.2
      vertex -95.1619 -5.16188 -9.2
    endloop
  endfacet
  facet normal -0 0 1
    outer loop
      vertex -95.9798 4.18711 -9.2
      vertex -95.5921 -4.69235 -9.2
      vertex -95.5921 4.69235 -9.2
    endloop
  endfacet
  facet normal 0 0 1
    outer loop
      vertex -95.9798 4.18711 -9.2
      vertex -95.9798 -4.18711 -9.2
      vertex -95.5921 -4.69235 -9.2
    endloop
  endfacet
  facet normal -0 0 1
    outer loop
      vertex -96.322 3.65 -9.2
      vertex -95.9798 -4.18711 -9.2
      vertex -95.9798 4.18711 -9.2
    endloop
  endfacet
  facet normal 0 0 1
    outer loop
      vertex -96.322 3.65 -9.2
      vertex -96.322 -3.65 -9.2
      vertex -95.9798 -4.18711 -9.2
    endloop
  endfacet
  facet normal -0 0 1
    outer loop
      vertex -96.616 3.08511 -9.2
      vertex -96.322 -3.65 -9.2
      vertex -96.322 3.65 -9.2
    endloop
  endfacet
  facet normal 0 0 1
    outer loop
      vertex -96.616 3.08511 -9.2
      vertex -96.616 -3.08511 -9.2
      vertex -96.322 -3.65 -9.2
    endloop
  endfacet
  facet normal -0 0 1
    outer loop
      vertex -96.8598 2.49675 -9.2
      vertex -96.616 -3.08511 -9.2
      vertex -96.616 3.08511 -9.2
    endloop
  endfacet
  facet normal 0 0 1
    outer loop
      vertex -96.8598 2.49675 -9.2
      vertex -96.8598 -2.49675 -9.2
      vertex -96.616 -3.08511 -9.2
    endloop
  endfacet
  facet normal -0 0 1
    outer loop
      vertex -97.0513 1.88938 -9.2
      vertex -96.8598 -2.49675 -9.2
      vertex -96.8598 2.49675 -9.2
    endloop
  endfacet
  facet normal 0 0 1
    outer loop
      vertex -97.0513 1.88938 -9.2
      vertex -97.0513 -1.88938 -9.2
      vertex -96.8598 -2.49675 -9.2
    endloop
  endfacet
  facet normal -0 0 1
    outer loop
      vertex -97.1891 1.26763 -9.2
      vertex -97.0513 -1.88938 -9.2
      vertex -97.0513 1.88938 -9.2
    endloop
  endfacet
  facet normal 0 0 1
    outer loop
      vertex -97.1891 1.26763 -9.2
      vertex -97.1891 -1.26763 -9.2
      vertex -97.0513 -1.88938 -9.2
    endloop
  endfacet
  facet normal -0 0 1
    outer loop
      vertex -97.2722 0.636236 -9.2
      vertex -97.1891 -1.26763 -9.2
      vertex -97.1891 1.26763 -9.2
    endloop
  endfacet
  facet normal 0 0 1
    outer loop
      vertex -97.2722 0.636236 -9.2
      vertex -97.2722 -0.636236 -9.2
      vertex -97.1891 -1.26763 -9.2
    endloop
  endfacet
  facet normal 0 -0 1
    outer loop
      vertex -97.2722 -0.636236 -9.2
      vertex -97.2722 0.636236 -9.2
      vertex -97.3 0 -9.2
    endloop
  endfacet
  facet normal -0.608722 0.793384 0
    outer loop
      vertex -94.1871 5.97981 -17.2
      vertex -94.6924 5.59212 -9.2
      vertex -94.1871 5.97981 -9.2
    endloop
  endfacet
  facet normal -0.608722 0.793384 0
    outer loop
      vertex -94.6924 5.59212 -9.2
      vertex -94.1871 5.97981 -17.2
      vertex -94.6924 5.59212 -17.2
    endloop
  endfacet
  facet normal -0.53731 0.843385 0
    outer loop
      vertex -93.65 6.32199 -17.2
      vertex -94.1871 5.97981 -9.2
      vertex -93.65 6.32199 -9.2
    endloop
  endfacet
  facet normal -0.53731 0.843385 0
    outer loop
      vertex -94.1871 5.97981 -9.2
      vertex -93.65 6.32199 -17.2
      vertex -94.1871 5.97981 -17.2
    endloop
  endfacet
  facet normal -0.675609 0.73726 0
    outer loop
      vertex -94.6924 5.59212 -17.2
      vertex -95.1619 5.16188 -9.2
      vertex -94.6924 5.59212 -9.2
    endloop
  endfacet
  facet normal -0.675609 0.73726 0
    outer loop
      vertex -95.1619 5.16188 -9.2
      vertex -94.6924 5.59212 -17.2
      vertex -95.1619 5.16188 -17.2
    endloop
  endfacet
  facet normal -0.300733 0.953708 0
    outer loop
      vertex -91.8894 7.05126 -17.2
      vertex -92.4967 6.85976 -9.2
      vertex -91.8894 7.05126 -9.2
    endloop
  endfacet
  facet normal -0.300733 0.953708 0
    outer loop
      vertex -92.4967 6.85976 -9.2
      vertex -91.8894 7.05126 -17.2
      vertex -92.4967 6.85976 -17.2
    endloop
  endfacet
  facet normal -0.130518 0.991446 0
    outer loop
      vertex -90.6362 7.27222 -17.2
      vertex -91.2676 7.1891 -9.2
      vertex -90.6362 7.27222 -9.2
    endloop
  endfacet
  facet normal -0.130518 0.991446 0
    outer loop
      vertex -91.2676 7.1891 -9.2
      vertex -90.6362 7.27222 -17.2
      vertex -91.2676 7.1891 -17.2
    endloop
  endfacet
  facet normal 0.999047 -0.0436528 0
    outer loop
      vertex -82.7278 -0.636236 -9.2
      vertex -82.7 0 -17.2
      vertex -82.7 0 -9.2
    endloop
  endfacet
  facet normal 0.999047 -0.0436528 0
    outer loop
      vertex -82.7 0 -17.2
      vertex -82.7278 -0.636236 -9.2
      vertex -82.7278 -0.636236 -17.2
    endloop
  endfacet
  facet normal 0.737313 -0.675552 0
    outer loop
      vertex -84.8381 -5.16188 -9.2
      vertex -84.4079 -4.69235 -17.2
      vertex -84.4079 -4.69235 -9.2
    endloop
  endfacet
  facet normal 0.737313 -0.675552 0
    outer loop
      vertex -84.4079 -4.69235 -17.2
      vertex -84.8381 -5.16188 -9.2
      vertex -84.8381 -5.16188 -17.2
    endloop
  endfacet
  facet normal 0.130518 -0.991446 0
    outer loop
      vertex -89.3638 -7.27222 -17.2
      vertex -88.7324 -7.1891 -9.2
      vertex -89.3638 -7.27222 -9.2
    endloop
  endfacet
  facet normal 0.130518 -0.991446 0
    outer loop
      vertex -88.7324 -7.1891 -9.2
      vertex -89.3638 -7.27222 -17.2
      vertex -88.7324 -7.1891 -17.2
    endloop
  endfacet
  facet normal 0.923828 0.382808 0
    outer loop
      vertex -83.1402 2.49675 -9.2
      vertex -83.384 3.08511 -17.2
      vertex -83.384 3.08511 -9.2
    endloop
  endfacet
  facet normal 0.923828 0.382808 0
    outer loop
      vertex -83.384 3.08511 -17.2
      vertex -83.1402 2.49675 -9.2
      vertex -83.1402 2.49675 -17.2
    endloop
  endfacet
  facet normal 0.461738 0.887016 -0
    outer loop
      vertex -86.35 6.32199 -17.2
      vertex -86.9149 6.61605 -9.2
      vertex -86.35 6.32199 -9.2
    endloop
  endfacet
  facet normal 0.461738 0.887016 0
    outer loop
      vertex -86.9149 6.61605 -9.2
      vertex -86.35 6.32199 -17.2
      vertex -86.9149 6.61605 -17.2
    endloop
  endfacet
  facet normal 0.382666 0.923887 -0
    outer loop
      vertex -86.9149 6.61605 -17.2
      vertex -87.5033 6.85976 -9.2
      vertex -86.9149 6.61605 -9.2
    endloop
  endfacet
  facet normal 0.382666 0.923887 0
    outer loop
      vertex -87.5033 6.85976 -9.2
      vertex -86.9149 6.61605 -17.2
      vertex -87.5033 6.85976 -17.2
    endloop
  endfacet
  facet normal -0.382666 0.923887 0
    outer loop
      vertex -92.4967 6.85976 -17.2
      vertex -93.0851 6.61605 -9.2
      vertex -92.4967 6.85976 -9.2
    endloop
  endfacet
  facet normal -0.382666 0.923887 0
    outer loop
      vertex -93.0851 6.61605 -9.2
      vertex -92.4967 6.85976 -17.2
      vertex -93.0851 6.61605 -17.2
    endloop
  endfacet
  facet normal 0.99145 -0.130488 0
    outer loop
      vertex -82.8109 -1.26763 -9.2
      vertex -82.7278 -0.636236 -17.2
      vertex -82.7278 -0.636236 -9.2
    endloop
  endfacet
  facet normal 0.99145 -0.130488 0
    outer loop
      vertex -82.7278 -0.636236 -17.2
      vertex -82.8109 -1.26763 -9.2
      vertex -82.8109 -1.26763 -17.2
    endloop
  endfacet
  facet normal 0.675609 -0.73726 0
    outer loop
      vertex -85.3076 -5.59212 -17.2
      vertex -84.8381 -5.16188 -9.2
      vertex -85.3076 -5.59212 -9.2
    endloop
  endfacet
  facet normal 0.675609 -0.73726 0
    outer loop
      vertex -84.8381 -5.16188 -9.2
      vertex -85.3076 -5.59212 -17.2
      vertex -84.8381 -5.16188 -17.2
    endloop
  endfacet
  facet normal 0.793341 -0.608777 0
    outer loop
      vertex -84.4079 -4.69235 -9.2
      vertex -84.0202 -4.18711 -17.2
      vertex -84.0202 -4.18711 -9.2
    endloop
  endfacet
  facet normal 0.793341 -0.608777 0
    outer loop
      vertex -84.0202 -4.18711 -17.2
      vertex -84.4079 -4.69235 -9.2
      vertex -84.4079 -4.69235 -17.2
    endloop
  endfacet
  facet normal -0.999047 -0.0436528 0
    outer loop
      vertex -97.2722 -0.636236 -17.2
      vertex -97.3 0 -9.2
      vertex -97.3 0 -17.2
    endloop
  endfacet
  facet normal -0.999047 -0.0436528 0
    outer loop
      vertex -97.3 0 -9.2
      vertex -97.2722 -0.636236 -17.2
      vertex -97.2722 -0.636236 -9.2
    endloop
  endfacet
  facet normal 0.382666 -0.923887 0
    outer loop
      vertex -87.5033 -6.85976 -17.2
      vertex -86.9149 -6.61605 -9.2
      vertex -87.5033 -6.85976 -9.2
    endloop
  endfacet
  facet normal 0.382666 -0.923887 0
    outer loop
      vertex -86.9149 -6.61605 -9.2
      vertex -87.5033 -6.85976 -17.2
      vertex -86.9149 -6.61605 -17.2
    endloop
  endfacet
  facet normal 0.976309 -0.216382 0
    outer loop
      vertex -82.9487 -1.88938 -9.2
      vertex -82.8109 -1.26763 -17.2
      vertex -82.8109 -1.26763 -9.2
    endloop
  endfacet
  facet normal 0.976309 -0.216382 0
    outer loop
      vertex -82.8109 -1.26763 -17.2
      vertex -82.9487 -1.88938 -9.2
      vertex -82.9487 -1.88938 -17.2
    endloop
  endfacet
  facet normal 0.887051 -0.461671 0
    outer loop
      vertex -83.678 -3.65 -9.2
      vertex -83.384 -3.08511 -17.2
      vertex -83.384 -3.08511 -9.2
    endloop
  endfacet
  facet normal 0.887051 -0.461671 0
    outer loop
      vertex -83.384 -3.08511 -17.2
      vertex -83.678 -3.65 -9.2
      vertex -83.678 -3.65 -17.2
    endloop
  endfacet
  facet normal 0.953718 -0.300701 0
    outer loop
      vertex -83.1402 -2.49675 -9.2
      vertex -82.9487 -1.88938 -17.2
      vertex -82.9487 -1.88938 -9.2
    endloop
  endfacet
  facet normal 0.953718 -0.300701 0
    outer loop
      vertex -82.9487 -1.88938 -17.2
      vertex -83.1402 -2.49675 -9.2
      vertex -83.1402 -2.49675 -17.2
    endloop
  endfacet
  facet normal 0.53731 -0.843385 0
    outer loop
      vertex -86.35 -6.32199 -17.2
      vertex -85.8129 -5.97981 -9.2
      vertex -86.35 -6.32199 -9.2
    endloop
  endfacet
  facet normal 0.53731 -0.843385 0
    outer loop
      vertex -85.8129 -5.97981 -9.2
      vertex -86.35 -6.32199 -17.2
      vertex -85.8129 -5.97981 -17.2
    endloop
  endfacet
  facet normal 0.608722 -0.793384 0
    outer loop
      vertex -85.8129 -5.97981 -17.2
      vertex -85.3076 -5.59212 -9.2
      vertex -85.8129 -5.97981 -9.2
    endloop
  endfacet
  facet normal 0.608722 -0.793384 0
    outer loop
      vertex -85.3076 -5.59212 -9.2
      vertex -85.8129 -5.97981 -17.2
      vertex -85.3076 -5.59212 -17.2
    endloop
  endfacet
  facet normal 0.843375 -0.537326 0
    outer loop
      vertex -84.0202 -4.18711 -9.2
      vertex -83.678 -3.65 -17.2
      vertex -83.678 -3.65 -9.2
    endloop
  endfacet
  facet normal 0.843375 -0.537326 0
    outer loop
      vertex -83.678 -3.65 -17.2
      vertex -84.0202 -4.18711 -9.2
      vertex -84.0202 -4.18711 -17.2
    endloop
  endfacet
  facet normal -0.0436239 -0.999048 0
    outer loop
      vertex -90.6362 -7.27222 -17.2
      vertex -90 -7.3 -9.2
      vertex -90.6362 -7.27222 -9.2
    endloop
  endfacet
  facet normal -0.0436239 -0.999048 -0
    outer loop
      vertex -90 -7.3 -9.2
      vertex -90.6362 -7.27222 -17.2
      vertex -90 -7.3 -17.2
    endloop
  endfacet
  facet normal -0.130518 -0.991446 0
    outer loop
      vertex -91.2676 -7.1891 -17.2
      vertex -90.6362 -7.27222 -9.2
      vertex -91.2676 -7.1891 -9.2
    endloop
  endfacet
  facet normal -0.130518 -0.991446 -0
    outer loop
      vertex -90.6362 -7.27222 -9.2
      vertex -91.2676 -7.1891 -17.2
      vertex -90.6362 -7.27222 -17.2
    endloop
  endfacet
  facet normal -0.608722 -0.793384 0
    outer loop
      vertex -94.6924 -5.59212 -17.2
      vertex -94.1871 -5.97981 -9.2
      vertex -94.6924 -5.59212 -9.2
    endloop
  endfacet
  facet normal -0.608722 -0.793384 -0
    outer loop
      vertex -94.1871 -5.97981 -9.2
      vertex -94.6924 -5.59212 -17.2
      vertex -94.1871 -5.97981 -17.2
    endloop
  endfacet
  facet normal -0.675609 -0.73726 0
    outer loop
      vertex -95.1619 -5.16188 -17.2
      vertex -94.6924 -5.59212 -9.2
      vertex -95.1619 -5.16188 -9.2
    endloop
  endfacet
  facet normal -0.675609 -0.73726 -0
    outer loop
      vertex -94.6924 -5.59212 -9.2
      vertex -95.1619 -5.16188 -17.2
      vertex -94.6924 -5.59212 -17.2
    endloop
  endfacet
  facet normal -0.923828 -0.382808 0
    outer loop
      vertex -96.616 -3.08511 -17.2
      vertex -96.8598 -2.49675 -9.2
      vertex -96.8598 -2.49675 -17.2
    endloop
  endfacet
  facet normal -0.923828 -0.382808 0
    outer loop
      vertex -96.8598 -2.49675 -9.2
      vertex -96.616 -3.08511 -17.2
      vertex -96.616 -3.08511 -9.2
    endloop
  endfacet
  facet normal -0.99145 -0.130488 0
    outer loop
      vertex -97.1891 -1.26763 -17.2
      vertex -97.2722 -0.636236 -9.2
      vertex -97.2722 -0.636236 -17.2
    endloop
  endfacet
  facet normal -0.99145 -0.130488 0
    outer loop
      vertex -97.2722 -0.636236 -9.2
      vertex -97.1891 -1.26763 -17.2
      vertex -97.1891 -1.26763 -9.2
    endloop
  endfacet
  facet normal 0.300733 -0.953708 0
    outer loop
      vertex -88.1106 -7.05126 -17.2
      vertex -87.5033 -6.85976 -9.2
      vertex -88.1106 -7.05126 -9.2
    endloop
  endfacet
  facet normal 0.300733 -0.953708 0
    outer loop
      vertex -87.5033 -6.85976 -9.2
      vertex -88.1106 -7.05126 -17.2
      vertex -87.5033 -6.85976 -17.2
    endloop
  endfacet
  facet normal 0.216425 -0.976299 0
    outer loop
      vertex -88.7324 -7.1891 -17.2
      vertex -88.1106 -7.05126 -9.2
      vertex -88.7324 -7.1891 -9.2
    endloop
  endfacet
  facet normal 0.216425 -0.976299 0
    outer loop
      vertex -88.1106 -7.05126 -9.2
      vertex -88.7324 -7.1891 -17.2
      vertex -88.1106 -7.05126 -17.2
    endloop
  endfacet
  facet normal 0.923828 -0.382808 0
    outer loop
      vertex -83.384 -3.08511 -9.2
      vertex -83.1402 -2.49675 -17.2
      vertex -83.1402 -2.49675 -9.2
    endloop
  endfacet
  facet normal 0.923828 -0.382808 0
    outer loop
      vertex -83.1402 -2.49675 -17.2
      vertex -83.384 -3.08511 -9.2
      vertex -83.384 -3.08511 -17.2
    endloop
  endfacet
  facet normal -0.216425 -0.976299 0
    outer loop
      vertex -91.8894 -7.05126 -17.2
      vertex -91.2676 -7.1891 -9.2
      vertex -91.8894 -7.05126 -9.2
    endloop
  endfacet
  facet normal -0.216425 -0.976299 -0
    outer loop
      vertex -91.2676 -7.1891 -9.2
      vertex -91.8894 -7.05126 -17.2
      vertex -91.2676 -7.1891 -17.2
    endloop
  endfacet
  facet normal -0.461738 -0.887016 0
    outer loop
      vertex -93.65 -6.32199 -17.2
      vertex -93.0851 -6.61605 -9.2
      vertex -93.65 -6.32199 -9.2
    endloop
  endfacet
  facet normal -0.461738 -0.887016 -0
    outer loop
      vertex -93.0851 -6.61605 -9.2
      vertex -93.65 -6.32199 -17.2
      vertex -93.0851 -6.61605 -17.2
    endloop
  endfacet
  facet normal -0.887051 -0.461671 0
    outer loop
      vertex -96.322 -3.65 -17.2
      vertex -96.616 -3.08511 -9.2
      vertex -96.616 -3.08511 -17.2
    endloop
  endfacet
  facet normal -0.887051 -0.461671 0
    outer loop
      vertex -96.616 -3.08511 -9.2
      vertex -96.322 -3.65 -17.2
      vertex -96.322 -3.65 -9.2
    endloop
  endfacet
  facet normal -0.953718 -0.300701 0
    outer loop
      vertex -96.8598 -2.49675 -17.2
      vertex -97.0513 -1.88938 -9.2
      vertex -97.0513 -1.88938 -17.2
    endloop
  endfacet
  facet normal -0.953718 -0.300701 0
    outer loop
      vertex -97.0513 -1.88938 -9.2
      vertex -96.8598 -2.49675 -17.2
      vertex -96.8598 -2.49675 -9.2
    endloop
  endfacet
  facet normal -0.976309 -0.216382 0
    outer loop
      vertex -97.0513 -1.88938 -17.2
      vertex -97.1891 -1.26763 -9.2
      vertex -97.1891 -1.26763 -17.2
    endloop
  endfacet
  facet normal -0.976309 -0.216382 0
    outer loop
      vertex -97.1891 -1.26763 -9.2
      vertex -97.0513 -1.88938 -17.2
      vertex -97.0513 -1.88938 -9.2
    endloop
  endfacet
  facet normal -0.53731 -0.843385 0
    outer loop
      vertex -94.1871 -5.97981 -17.2
      vertex -93.65 -6.32199 -9.2
      vertex -94.1871 -5.97981 -9.2
    endloop
  endfacet
  facet normal -0.53731 -0.843385 -0
    outer loop
      vertex -93.65 -6.32199 -9.2
      vertex -94.1871 -5.97981 -17.2
      vertex -93.65 -6.32199 -17.2
    endloop
  endfacet
  facet normal -0.843375 -0.537326 0
    outer loop
      vertex -95.9798 -4.18711 -17.2
      vertex -96.322 -3.65 -9.2
      vertex -96.322 -3.65 -17.2
    endloop
  endfacet
  facet normal -0.843375 -0.537326 0
    outer loop
      vertex -96.322 -3.65 -9.2
      vertex -95.9798 -4.18711 -17.2
      vertex -95.9798 -4.18711 -9.2
    endloop
  endfacet
  facet normal -0.793341 -0.608777 0
    outer loop
      vertex -95.5921 -4.69235 -17.2
      vertex -95.9798 -4.18711 -9.2
      vertex -95.9798 -4.18711 -17.2
    endloop
  endfacet
  facet normal -0.793341 -0.608777 0
    outer loop
      vertex -95.9798 -4.18711 -9.2
      vertex -95.5921 -4.69235 -17.2
      vertex -95.5921 -4.69235 -9.2
    endloop
  endfacet
  facet normal -0.382666 -0.923887 0
    outer loop
      vertex -93.0851 -6.61605 -17.2
      vertex -92.4967 -6.85976 -9.2
      vertex -93.0851 -6.61605 -9.2
    endloop
  endfacet
  facet normal -0.382666 -0.923887 -0
    outer loop
      vertex -92.4967 -6.85976 -9.2
      vertex -93.0851 -6.61605 -17.2
      vertex -92.4967 -6.85976 -17.2
    endloop
  endfacet
  facet normal -0.300733 -0.953708 0
    outer loop
      vertex -92.4967 -6.85976 -17.2
      vertex -91.8894 -7.05126 -9.2
      vertex -92.4967 -6.85976 -9.2
    endloop
  endfacet
  facet normal -0.300733 -0.953708 -0
    outer loop
      vertex -91.8894 -7.05126 -9.2
      vertex -92.4967 -6.85976 -17.2
      vertex -91.8894 -7.05126 -17.2
    endloop
  endfacet
endsolid OpenSCAD_Model
